Danfo.glyphspackage
{
glyphname = exclam;
layers = (
{
layerId = m01;
shapes = (
{
closed = 1;
nodes = (
(202,280,l),
(252,724,l),
(30,724,l),
(80,280,l)
);
},
{
closed = 1;
nodes = (
(217,-10,o),
(268,60,o),
(268,119,cs),
(268,190,o),
(210,240,o),
(146,240,cs),
(76,240,o),
(20,186,o),
(20,119,cs),
(20,39,o),
(72,-10,o),
(144,-10,cs)
);
}
);
width = 288;
}
);
metricLeft = period;
metricRight = period;
unicode = 33;
}
{
glyphname = numbersign;
layers = (
{
layerId = m01;
shapes = (
{
closed = 1;
nodes = (
(397,0,l),
(574,716,l),
(466,716,l),
(289,0,l)
);
},
{
closed = 1;
nodes = (
(167,0,l),
(344,716,l),
(236,716,l),
(59,0,l)
);
},
{
closed = 1;
nodes = (
(592,411,l),
(627,551,l),
(99,551,l),
(64,411,l)
);
},
{
closed = 1;
nodes = (
(538,194,l),
(573,334,l),
(45,334,l),
(10,194,l)
);
}
);
width = 630;
},
{
associatedMasterId = m01;
layerId = "57403FB5-8DD1-4CAB-AD05-AE34093C66AB";
name = "Jan 18, 24 at 12:40";
shapes = (
{
closed = 1;
nodes = (
(270,-31,l),
(434,753,l),
(262,753,l),
(98,-31,l)
);
},
{
closed = 1;
nodes = (
(717,192,l),
(761,326,l),
(74,326,l),
(30,192,l)
);
},
{
closed = 1;
nodes = (
(563,-31,l),
(726,753,l),
(554,753,l),
(391,-31,l)
);
},
{
closed = 1;
nodes = (
(756,470,l),
(801,605,l),
(117,605,l),
(72,470,l)
);
}
);
width = 831;
}
);
unicode = 35;
}
{
glyphname = ampersand;
layers = (
{
layerId = m01;
shapes = (
{
closed = 1;
nodes = (
(330,-6,ls),
(433,-6,o),
(467,49,o),
(467,111,cs),
(467,170,l),
(510,170,o),
(525,146,o),
(525,111,cs),
(525,0,l),
(615,0,l),
(615,260,ls),
(615,293,o),
(615,283,o),
(615,296,cs),
(615,297,ls),
(615,310,o),
(615,301,o),
(615,334,c),
(615,391,ls),
(615,431,o),
(632,458,o),
(682,458,c),
(682,540,l),
(414,540,l),
(414,505,ls),
(414,465,o),
(397,439,o),
(347,439,cs),
(280,439,ls),
(247,439,o),
(232,449,o),
(232,470,cs),
(232,495,o),
(247,505,o),
(280,505,cs),
(331,505,l),
(331,575,l),
(305,575,ls),
(273,575,o),
(258,588,o),
(258,606,cs),
(258,623,o),
(273,636,o),
(305,636,cs),
(358,636,ls),
(397,636,o),
(414,615,o),
(414,591,c),
(609,591,l),
(609,662,o),
(545,722,o),
(458,722,cs),
(193,722,ls),
(99,722,o),
(55,687,o),
(55,629,cs),
(55,577,o),
(90,543,o),
(144,543,cs),
(171,543,l),
(171,533,l),
(102,533,o),
(26,516,o),
(26,373,cs),
(26,334,l),
(26,301,o),
(26,310,o),
(26,297,cs),
(26,296,ls),
(26,283,o),
(26,293,o),
(26,260,cs),
(26,209,ls),
(26,175,o),
(26,184,o),
(26,171,cs),
(26,170,ls),
(26,161,o),
(28,144,o),
(30,135,cs),
(49,52,o),
(122,-6,o),
(215,-6,cs)
);
}
);
width = 711;
},
{
associatedMasterId = m01;
attr = {
coordinates = (
50
);
};
layerId = "1AF88C91-B99B-4415-B6A0-3194D79B0184";
name = "{50} 6 Feb 24 at 15:26";
shapes = (
{
closed = 1;
nodes = (
(330,-6,ls),
(433,-6,o),
(467,49,o),
(467,111,cs),
(467,170,l),
(510,170,o),
(525,146,o),
(525,111,cs),
(525,0,l),
(615,0,l),
(615,260,l),
(583,260,o),
(551,264,o),
(551,296,cs),
(551,298,ls),
(551,330,o),
(583,334,o),
(615,334,c),
(615,391,ls),
(615,431,o),
(632,458,o),
(682,458,c),
(682,540,l),
(414,540,l),
(414,505,ls),
(414,465,o),
(397,439,o),
(347,439,cs),
(280,439,ls),
(247,439,o),
(232,449,o),
(232,470,cs),
(232,495,o),
(247,505,o),
(280,505,cs),
(331,505,l),
(331,575,l),
(305,575,ls),
(273,575,o),
(258,588,o),
(258,606,cs),
(258,623,o),
(273,636,o),
(305,636,cs),
(358,636,ls),
(397,636,o),
(414,615,o),
(414,591,c),
(609,591,l),
(609,662,o),
(545,722,o),
(458,722,cs),
(193,722,ls),
(99,722,o),
(55,687,o),
(55,629,cs),
(55,577,o),
(90,543,o),
(144,543,cs),
(171,543,l),
(171,533,l),
(102,533,o),
(26,516,o),
(26,373,cs),
(26,334,l),
(58,334,o),
(90,330,o),
(90,298,cs),
(90,296,ls),
(90,264,o),
(58,260,o),
(26,260,c),
(26,209,l),
(58,209,o),
(90,205,o),
(90,173,cs),
(90,171,ls),
(90,140,o),
(61,135,o),
(30,135,c),
(49,52,o),
(122,-6,o),
(215,-6,cs)
);
}
);
width = 711;
},
{
associatedMasterId = m01;
attr = {
coordinates = (
100
);
};
layerId = "16D86C5B-9028-40CB-94DF-52AA3C273BCE";
name = "6 Feb 24 at 15:27";
shapes = (
{
closed = 1;
nodes = (
(330,-6,ls),
(433,-6,o),
(467,49,o),
(467,111,cs),
(467,170,l),
(510,170,o),
(525,146,o),
(525,111,cs),
(525,0,l),
(615,0,l),
(615,260,l),
(584,260,o),
(512,285,o),
(500,375,c),
(503,376,l),
(544,334,o),
(604,334,o),
(615,334,c),
(615,391,ls),
(615,431,o),
(632,458,o),
(682,458,c),
(682,540,l),
(414,540,l),
(414,505,ls),
(414,465,o),
(397,439,o),
(347,439,cs),
(280,439,ls),
(247,439,o),
(232,449,o),
(232,470,cs),
(232,495,o),
(247,505,o),
(280,505,cs),
(331,505,l),
(331,575,l),
(305,575,ls),
(273,575,o),
(258,588,o),
(258,606,cs),
(258,623,o),
(273,636,o),
(305,636,cs),
(358,636,ls),
(397,636,o),
(414,615,o),
(414,591,c),
(609,591,l),
(609,662,o),
(545,722,o),
(458,722,cs),
(193,722,ls),
(99,722,o),
(55,687,o),
(55,629,cs),
(55,577,o),
(90,543,o),
(144,543,cs),
(171,543,l),
(171,533,l),
(102,533,o),
(26,516,o),
(26,373,cs),
(26,334,l),
(37,334,o),
(97,334,o),
(138,376,c),
(141,375,l),
(129,285,o),
(57,260,o),
(26,260,c),
(26,209,l),
(37,209,o),
(97,209,o),
(138,251,c),
(141,250,l),
(129,164,o),
(63,137,o),
(30,135,c),
(49,52,o),
(122,-6,o),
(215,-6,cs)
);
}
);
width = 711;
}
);
metricLeft = eight;
metricRight = G;
unicode = 38;
}
{
glyphname = quotesingle;
layers = (
{
layerId = m01;
shapes = (
{
closed = 1;
nodes = (
(177,432,l),
(265,716,l),
(32,716,l),
(107,432,l)
);
}
);
width = 297;
}
);
unicode = 39;
}
{
glyphname = parenleft;
layers = (
{
layerId = m01;
shapes = (
{
closed = 1;
nodes = (
(421,-36,l),
(297,-36,o),
(198,141,o),
(198,365,cs),
(198,578,o),
(301,764,o),
(421,764,c),
(421,844,l),
(194,844,o),
(30,652,o),
(30,375,cs),
(30,76,o),
(191,-116,o),
(421,-116,c)
);
}
);
width = 444;
}
);
unicode = 40;
}
{
glyphname = asterisk;
layers = (
{
background = {
shapes = (
{
closed = 1;
nodes = (
(184,374,o),
(239,421,o),
(248,476,c),
(282,452,o),
(312,412,o),
(320,379,c),
(347,441,o),
(334,512,o),
(291,547,c),
(328,565,o),
(378,570,o),
(410,561,c),
(370,615,o),
(302,639,o),
(251,619,c),
(254,660,o),
(274,706,o),
(298,730,c),
(232,722,o),
(177,675,o),
(168,620,c),
(134,644,o),
(104,684,o),
(96,717,c),
(69,655,o),
(82,584,o),
(125,549,c),
(88,531,o),
(38,526,o),
(6,535,c),
(46,481,o),
(114,457,o),
(165,477,c),
(162,436,o),
(142,390,o),
(118,366,c)
);
}
);
};
layerId = m01;
shapes = (
{
closed = 1;
nodes = (
(258,366,l),
(240,491,l),
(340,413,l),
(391,501,l),
(274,548,l),
(391,596,l),
(340,683,l),
(240,605,l),
(258,730,l),
(157,730,l),
(175,605,l),
(75,683,l),
(24,596,l),
(141,548,l),
(24,501,l),
(75,413,l),
(175,491,l),
(157,366,l)
);
}
);
width = 416;
}
);
unicode = 42;
}
{
glyphname = plus;
layers = (
{
layerId = m01;
shapes = (
{
closed = 1;
nodes = (
(8,533,l),
(290,533,l),
(290,617,l),
(8,617,l)
);
},
{
closed = 1;
nodes = (
(106,716,l),
(106,434,l),
(190,434,l),
(190,716,l)
);
}
);
width = 298;
}
);
unicode = 43;
}
{
glyphname = comma;
layers = (
{
background = {
shapes = (
{
closed = 1;
nodes = (
(198,-10,o),
(260,47,o),
(260,106,cs),
(260,177,o),
(200,240,o),
(136,240,cs),
(66,240,o),
(10,186,o),
(10,119,cs),
(10,39,o),
(62,-10,o),
(134,-10,c)
);
}
);
};
layerId = m01;
shapes = (
{
closed = 1;
nodes = (
(232,-116,o),
(271,17,o),
(271,90,cs),
(271,211,o),
(192,238,o),
(143,238,cs),
(79,238,o),
(20,186,o),
(20,112,cs),
(20,38,o),
(74,-9,o),
(143,-9,c),
(143,-39,o),
(128,-93,o),
(69,-129,c),
(74,-137,l)
);
}
);
width = 291;
}
);
metricLeft = period;
metricRight = period;
unicode = 44;
}
{
glyphname = hyphen;
layers = (
{
layerId = m01;
shapes = (
{
closed = 1;
nodes = (
(350,484,l),
(350,594,l),
(29,594,l),
(29,484,l)
);
}
);
width = 379;
}
);
unicode = 45;
}
{
glyphname = period;
layers = (
{
background = {
shapes = (
{
closed = 1;
nodes = (
(206,0,o),
(265,62,o),
(265,121,cs),
(265,184,o),
(208,242,o),
(145,242,cs),
(77,242,o),
(23,188,o),
(23,121,cs),
(23,51,o),
(74,0,o),
(144,0,c)
);
}
);
};
layerId = m01;
shapes = (
{
closed = 1;
nodes = (
(217,-10,o),
(268,60,o),
(268,119,cs),
(268,190,o),
(210,240,o),
(146,240,cs),
(76,240,o),
(20,186,o),
(20,119,cs),
(20,39,o),
(72,-10,o),
(144,-10,cs)
);
}
);
width = 288;
}
);
unicode = 46;
}
{
glyphname = slash;
layers = (
{
layerId = m01;
shapes = (
{
closed = 1;
nodes = (
(168,-80,l),
(392,822,l),
(254,822,l),
(30,-80,l)
);
}
);
width = 422;
}
);
metricRight = "=|";
unicode = 47;
}
{
glyphname = zero;
kernLeft = zero;
kernRight = zero;
layers = (
{
layerId = m01;
shapes = (
{
closed = 1;
nodes = (
(410,-6,ls),
(503,-6,o),
(576,52,o),
(595,135,cs),
(597,144,o),
(599,158,o),
(599,171,cs),
(599,172,ls),
(599,185,o),
(599,176,o),
(599,209,cs),
(599,260,ls),
(599,293,o),
(599,283,o),
(599,296,cs),
(599,297,ls),
(599,310,o),
(599,301,o),
(599,334,cs),
(599,536,ls),
(599,643,o),
(519,722,o),
(410,722,cs),
(218,722,ls),
(109,722,o),
(29,643,o),
(29,536,cs),
(29,334,ls),
(29,301,o),
(29,310,o),
(29,297,cs),
(29,296,ls),
(29,283,o),
(29,293,o),
(29,260,cs),
(29,209,ls),
(29,175,o),
(29,184,o),
(29,171,cs),
(29,170,ls),
(29,161,o),
(31,144,o),
(33,135,cs),
(52,52,o),
(125,-6,o),
(218,-6,cs)
);
},
{
closed = 1;
nodes = (
(225,457,o),
(218,475,o),
(218,500,cs),
(218,569,ls),
(218,609,o),
(235,636,o),
(285,636,cs),
(343,636,ls),
(393,636,o),
(410,609,o),
(410,569,cs),
(410,500,ls),
(410,475,o),
(403,457,o),
(392,448,c),
(385,485,o),
(353,513,o),
(314,513,cs),
(275,513,o),
(243,485,o),
(236,448,c)
);
}
);
width = 628;
},
{
associatedMasterId = m01;
attr = {
coordinates = (
50
);
};
layerId = "FB4115B7-8D8B-4451-BA9C-2AD16BF851BE";
name = "Feb 2, 24 at 15:56";
shapes = (
{
closed = 1;
nodes = (
(410,-6,ls),
(503,-6,o),
(576,52,o),
(595,135,c),
(564,135,o),
(535,140,o),
(535,171,cs),
(535,173,ls),
(535,205,o),
(567,209,o),
(599,209,c),
(599,260,l),
(567,260,o),
(535,264,o),
(535,296,cs),
(535,298,ls),
(535,330,o),
(567,334,o),
(599,334,c),
(599,536,ls),
(599,643,o),
(519,722,o),
(410,722,cs),
(218,722,ls),
(109,722,o),
(29,643,o),
(29,536,cs),
(29,334,l),
(61,334,o),
(93,330,o),
(93,298,cs),
(93,296,ls),
(93,264,o),
(61,260,o),
(29,260,c),
(29,209,l),
(61,209,o),
(93,205,o),
(93,173,cs),
(93,171,ls),
(93,140,o),
(64,135,o),
(33,135,c),
(52,52,o),
(125,-6,o),
(218,-6,cs)
);
},
{
closed = 1;
nodes = (
(225,457,o),
(218,475,o),
(218,500,cs),
(218,569,ls),
(218,609,o),
(235,636,o),
(285,636,cs),
(343,636,ls),
(393,636,o),
(410,609,o),
(410,569,cs),
(410,500,ls),
(410,475,o),
(403,457,o),
(392,448,c),
(385,485,o),
(353,513,o),
(314,513,cs),
(275,513,o),
(243,485,o),
(236,448,c)
);
}
);
width = 628;
},
{
associatedMasterId = m01;
attr = {
coordinates = (
100
);
};
layerId = "528D26B1-B179-45B2-9CA5-B4E043832F27";
name = "Feb 2, 24 at 15:56";
shapes = (
{
closed = 1;
nodes = (
(410,-6,ls),
(503,-6,o),
(576,52,o),
(595,135,c),
(562,137,o),
(496,164,o),
(484,250,c),
(487,251,l),
(528,209,o),
(588,209,o),
(599,209,c),
(599,260,l),
(568,260,o),
(496,285,o),
(484,375,c),
(487,376,l),
(528,334,o),
(588,334,o),
(599,334,c),
(599,536,ls),
(599,643,o),
(519,722,o),
(410,722,cs),
(218,722,ls),
(109,722,o),
(29,643,o),
(29,536,cs),
(29,334,l),
(40,334,o),
(100,334,o),
(141,376,c),
(144,375,l),
(132,285,o),
(60,260,o),
(29,260,c),
(29,209,l),
(40,209,o),
(100,209,o),
(141,251,c),
(144,250,l),
(132,164,o),
(66,137,o),
(33,135,c),
(52,52,o),
(125,-6,o),
(218,-6,cs)
);
},
{
closed = 1;
nodes = (
(225,457,o),
(218,475,o),
(218,500,cs),
(218,569,ls),
(218,609,o),
(235,636,o),
(285,636,cs),
(343,636,ls),
(393,636,o),
(410,609,o),
(410,569,cs),
(410,500,ls),
(410,475,o),
(403,457,o),
(392,448,c),
(385,485,o),
(353,513,o),
(314,513,cs),
(275,513,o),
(243,485,o),
(236,448,c)
);
}
);
width = 628;
}
);
unicode = 48;
}
{
glyphname = one;
kernLeft = one;
kernRight = one;
layers = (
{
layerId = m01;
shapes = (
{
closed = 1;
nodes = (
(491,0,l),
(491,135,ls),
(491,168,o),
(491,158,o),
(491,171,cs),
(491,172,ls),
(491,185,o),
(491,176,o),
(491,209,cs),
(491,260,ls),
(491,293,o),
(491,283,o),
(491,296,cs),
(491,297,ls),
(491,310,o),
(491,301,o),
(491,334,cs),
(491,434,l),
(423,434,ls),
(373,434,o),
(356,460,o),
(356,500,cs),
(356,716,l),
(177,716,l),
(177,679,o),
(133,631,o),
(76,631,c),
(76,561,l),
(177,561,l),
(177,500,ls),
(177,460,o),
(160,434,o),
(110,434,cs),
(29,434,l),
(29,334,ls),
(29,301,o),
(29,310,o),
(29,297,cs),
(29,296,ls),
(29,283,o),
(29,293,o),
(29,260,cs),
(29,209,ls),
(29,176,o),
(29,185,o),
(29,172,cs),
(29,171,ls),
(29,158,o),
(29,168,o),
(29,135,cs),
(29,0,l)
);
}
);
width = 520;
},
{
associatedMasterId = m01;
attr = {
coordinates = (
50
);
};
layerId = "F86C90E7-E2B8-4584-B025-71610FA3E0CD";
name = "{50} Feb 2, 24 at 16:05";
shapes = (
{
closed = 1;
nodes = (
(491,0,l),
(491,135,l),
(459,135,o),
(427,139,o),
(427,171,cs),
(427,173,ls),
(427,205,o),
(459,209,o),
(491,209,c),
(491,260,l),
(459,260,o),
(427,264,o),
(427,296,cs),
(427,298,ls),
(427,330,o),
(459,334,o),
(491,334,c),
(491,434,l),
(423,434,ls),
(373,434,o),
(356,460,o),
(356,500,cs),
(356,716,l),
(177,716,l),
(177,679,o),
(133,631,o),
(76,631,c),
(76,561,l),
(177,561,l),
(177,500,ls),
(177,460,o),
(160,434,o),
(110,434,cs),
(29,434,l),
(29,334,l),
(61,334,o),
(93,330,o),
(93,298,cs),
(93,296,ls),
(93,264,o),
(61,260,o),
(29,260,c),
(29,209,l),
(61,209,o),
(93,205,o),
(93,173,cs),
(93,171,ls),
(93,139,o),
(61,135,o),
(29,135,c),
(29,0,l)
);
}
);
width = 520;
},
{
associatedMasterId = m01;
attr = {
coordinates = (
100
);
};
layerId = "762B949B-E230-469B-8D4A-98A083B1163E";
name = "Feb 2, 24 at 16:05";
shapes = (
{
closed = 1;
nodes = (
(491,0,l),
(491,135,l),
(460,135,o),
(388,160,o),
(376,250,c),
(379,251,l),
(420,209,o),
(480,209,o),
(491,209,c),
(491,260,l),
(460,260,o),
(388,285,o),
(376,375,c),
(379,376,l),
(420,334,o),
(480,334,o),
(491,334,c),
(491,434,l),
(423,434,ls),
(373,434,o),
(356,460,o),
(356,500,cs),
(356,716,l),
(177,716,l),
(177,679,o),
(133,631,o),
(76,631,c),
(76,561,l),
(177,561,l),
(177,500,ls),
(177,460,o),
(160,434,o),
(110,434,cs),
(29,434,l),
(29,334,l),
(40,334,o),
(100,334,o),
(141,376,c),
(144,375,l),
(132,285,o),
(60,260,o),
(29,260,c),
(29,209,l),
(40,209,o),
(100,209,o),
(141,251,c),
(144,250,l),
(132,160,o),
(60,135,o),
(29,135,c),
(29,0,l)
);
}
);
width = 520;
}
);
unicode = 49;
}
{
glyphname = two;
kernLeft = two;
kernRight = two;
layers = (
{
layerId = m01;
name = Regular;
shapes = (
{
closed = 1;
nodes = (
(583,0,l),
(583,135,ls),
(583,168,o),
(583,158,o),
(583,171,cs),
(583,172,ls),
(583,185,o),
(583,176,o),
(583,209,cs),
(583,260,ls),
(583,293,o),
(583,283,o),
(583,296,cs),
(583,297,ls),
(583,310,o),
(583,301,o),
(583,334,cs),
(583,439,l),
(229,439,l),
(229,460,o),
(249,473,o),
(292,479,cs),
(460,501,ls),
(542,512,o),
(571,562,o),
(571,613,cs),
(571,684,o),
(518,721,o),
(378,721,cs),
(213,721,ls),
(109,721,o),
(46,669,o),
(46,581,c),
(230,581,l),
(230,625,o),
(254,641,o),
(297,641,cs),
(330,641,ls),
(374,641,o),
(392,631,o),
(392,607,cs),
(392,583,o),
(371,570,o),
(335,565,cs),
(206,547,ls),
(92,531,o),
(28,500,o),
(28,358,cs),
(28,334,ls),
(28,301,o),
(28,310,o),
(28,297,cs),
(28,296,ls),
(28,283,o),
(28,293,o),
(28,260,cs),
(28,209,ls),
(28,176,o),
(28,185,o),
(28,172,cs),
(28,171,ls),
(28,158,o),
(28,168,o),
(28,135,cs),
(28,0,l)
);
}
);
width = 603;
},
{
associatedMasterId = m01;
attr = {
coordinates = (
50
);
};
layerId = "8DC44A12-79D1-4BA3-A14C-194B9770B93C";
name = "Feb 2, 24 at 16:10";
shapes = (
{
closed = 1;
nodes = (
(583,0,l),
(583,135,l),
(551,135,o),
(519,139,o),
(519,171,cs),
(519,173,ls),
(519,205,o),
(551,209,o),
(583,209,c),
(583,260,l),
(551,260,o),
(519,264,o),
(519,296,cs),
(519,298,ls),
(519,330,o),
(551,334,o),
(583,334,c),
(583,439,l),
(229,439,l),
(229,460,o),
(249,473,o),
(292,479,cs),
(460,501,ls),
(542,512,o),
(571,562,o),
(571,613,cs),
(571,684,o),
(518,721,o),
(378,721,cs),
(213,721,ls),
(109,721,o),
(46,669,o),
(46,581,c),
(230,581,l),
(230,625,o),
(254,641,o),
(297,641,cs),
(330,641,ls),
(374,641,o),
(392,631,o),
(392,607,cs),
(392,583,o),
(371,570,o),
(335,565,cs),
(206,547,ls),
(92,531,o),
(22,501,o),
(28,358,cs),
(29,334,l),
(61,334,o),
(93,330,o),
(93,298,cs),
(93,296,ls),
(93,264,o),
(61,260,o),
(29,260,c),
(29,209,l),
(61,209,o),
(93,205,o),
(93,173,cs),
(93,171,ls),
(93,139,o),
(61,135,o),
(29,135,c),
(29,0,l)
);
}
);
width = 603;
},
{
associatedMasterId = m01;
attr = {
coordinates = (
100
);
};
layerId = "7003D814-E579-4AD7-B7D4-0BB5A38D8F23";
name = "Feb 2, 24 at 16:10";
shapes = (
{
closed = 1;
nodes = (
(583,0,l),
(583,135,l),
(552,135,o),
(480,160,o),
(468,250,c),
(471,251,l),
(512,209,o),
(572,209,o),
(583,209,c),
(583,260,l),
(552,260,o),
(480,285,o),
(468,375,c),
(471,376,l),
(512,334,o),
(572,334,o),
(583,334,c),
(583,439,l),
(229,439,l),
(229,460,o),
(249,473,o),
(292,479,cs),
(460,501,ls),
(542,512,o),
(571,562,o),
(571,613,cs),
(571,684,o),
(518,721,o),
(378,721,cs),
(213,721,ls),
(109,721,o),
(46,669,o),
(46,581,c),
(230,581,l),
(230,625,o),
(254,641,o),
(297,641,cs),
(330,641,ls),
(374,641,o),
(392,631,o),
(392,607,cs),
(392,583,o),
(371,570,o),
(335,565,cs),
(206,547,ls),
(92,531,o),
(28,500,o),
(28,358,cs),
(28,334,l),
(39,334,o),
(99,334,o),
(140,376,c),
(143,375,l),
(131,285,o),
(59,260,o),
(28,260,c),
(28,209,l),
(39,209,o),
(99,209,o),
(140,251,c),
(143,250,l),
(131,160,o),
(59,135,o),
(28,135,c),
(28,0,l)
);
}
);
width = 603;
}
);
unicode = 50;
}
{
glyphname = three;
kernLeft = three;
kernRight = three;
layers = (
{
layerId = m01;
shapes = (
{
closed = 1;
nodes = (
(416,-6,ls),
(509,-6,o),
(582,52,o),
(601,135,cs),
(603,144,o),
(605,158,o),
(605,171,cs),
(605,172,ls),
(605,185,o),
(605,176,o),
(605,209,cs),
(605,260,ls),
(605,293,o),
(605,283,o),
(605,296,cs),
(605,297,ls),
(605,310,o),
(605,301,o),
(605,334,cs),
(605,370,ls),
(605,482,o),
(550,533,o),
(427,533,c),
(427,543,l),
(475,543,ls),
(529,543,o),
(564,577,o),
(564,629,cs),
(564,687,o),
(520,722,o),
(426,722,cs),
(224,722,ls),
(120,722,o),
(56,664,o),
(56,591,cs),
(56,565,l),
(237,565,l),
(237,591,ls),
(237,615,o),
(248,636,o),
(284,636,cs),
(340,636,ls),
(368,636,o),
(381,622,o),
(381,604,cs),
(381,582,o),
(365,571,o),
(340,571,cs),
(289,571,l),
(289,507,l),
(365,507,ls),
(393,507,o),
(406,493,o),
(406,473,cs),
(406,450,o),
(390,439,o),
(365,439,cs),
(257,439,ls),
(232,439,o),
(216,450,o),
(216,473,cs),
(216,490,l),
(32,490,l),
(32,334,ls),
(32,301,o),
(32,310,o),
(32,297,cs),
(32,296,ls),
(32,283,o),
(32,293,o),
(32,260,cs),
(32,209,ls),
(32,175,o),
(32,184,o),
(32,171,cs),
(32,170,ls),
(32,161,o),
(34,144,o),
(36,135,cs),
(55,52,o),
(128,-6,o),
(221,-6,cs)
);
}
);
width = 631;
},
{
associatedMasterId = m01;
attr = {
coordinates = (
50
);
};
layerId = "1AE1A745-FF63-4D3C-9407-4D5E563E8964";
name = "Feb 2, 24 at 16:16";
shapes = (
{
closed = 1;
nodes = (
(416,-6,ls),
(509,-6,o),
(582,52,o),
(601,135,c),
(570,135,o),
(541,140,o),
(541,171,cs),
(541,173,ls),
(541,205,o),
(573,209,o),
(605,209,c),
(605,260,l),
(573,260,o),
(541,264,o),
(541,296,cs),
(541,298,ls),
(541,330,o),
(573,334,o),
(605,334,c),
(605,370,ls),
(605,482,o),
(550,533,o),
(427,533,c),
(427,543,l),
(475,543,ls),
(529,543,o),
(564,577,o),
(564,629,cs),
(564,687,o),
(520,722,o),
(426,722,cs),
(224,722,ls),
(120,722,o),
(56,664,o),
(56,591,cs),
(56,565,l),
(237,565,l),
(237,591,ls),
(237,615,o),
(248,636,o),
(284,636,cs),
(340,636,ls),
(368,636,o),
(381,622,o),
(381,604,cs),
(381,582,o),
(365,571,o),
(340,571,cs),
(289,571,l),
(289,507,l),
(365,507,ls),
(393,507,o),
(406,493,o),
(406,473,cs),
(406,450,o),
(390,439,o),
(365,439,cs),
(257,439,ls),
(232,439,o),
(216,450,o),
(216,473,cs),
(216,490,l),
(32,490,l),
(32,334,l),
(64,334,o),
(96,330,o),
(96,298,cs),
(96,296,ls),
(96,264,o),
(64,260,o),
(32,260,c),
(32,209,l),
(64,209,o),
(96,205,o),
(96,173,cs),
(96,171,ls),
(96,140,o),
(67,135,o),
(36,135,c),
(55,52,o),
(128,-6,o),
(221,-6,cs)
);
}
);
width = 631;
},
{
associatedMasterId = m01;
attr = {
coordinates = (
100
);
};
layerId = "3717EBB2-2121-4C34-906F-DE6CC02741C6";
name = "Feb 2, 24 at 16:16";
shapes = (
{
closed = 1;
nodes = (
(416,-6,ls),
(509,-6,o),
(582,52,o),
(601,135,c),
(568,137,o),
(502,164,o),
(490,250,c),
(493,251,l),
(534,209,o),
(594,209,o),
(605,209,c),
(605,260,l),
(574,260,o),
(502,285,o),
(490,375,c),
(493,376,l),
(534,334,o),
(594,334,o),
(605,334,c),
(605,370,ls),
(605,482,o),
(550,533,o),
(427,533,c),
(427,543,l),
(475,543,ls),
(529,543,o),
(564,577,o),
(564,629,cs),
(564,687,o),
(520,722,o),
(426,722,cs),
(224,722,ls),
(120,722,o),
(56,664,o),
(56,591,cs),
(56,565,l),
(237,565,l),
(237,591,ls),
(237,615,o),
(248,636,o),
(284,636,cs),
(340,636,ls),
(368,636,o),
(381,622,o),
(381,604,cs),
(381,582,o),
(365,571,o),
(340,571,cs),
(289,571,l),
(289,507,l),
(365,507,ls),
(393,507,o),
(406,493,o),
(406,473,cs),
(406,450,o),
(390,439,o),
(365,439,cs),
(257,439,ls),
(232,439,o),
(216,450,o),
(216,473,cs),
(216,490,l),
(32,490,l),
(32,334,l),
(43,334,o),
(103,334,o),
(144,376,c),
(147,375,l),
(135,285,o),
(63,260,o),
(32,260,c),
(32,209,l),
(43,209,o),
(103,209,o),
(144,251,c),
(147,250,l),
(135,164,o),
(69,137,o),
(36,135,c),
(55,52,o),
(128,-6,o),
(221,-6,cs)
);
}
);
width = 631;
}
);
unicode = 51;
}
{
glyphname = four;
kernLeft = four;
kernRight = four;
layers = (
{
layerId = m01;
name = Regular;
shapes = (
{
closed = 1;
nodes = (
(551,0,l),
(551,135,ls),
(551,168,o),
(551,158,o),
(551,171,cs),
(551,172,ls),
(551,185,o),
(551,176,o),
(551,209,cs),
(551,260,ls),
(551,293,o),
(551,283,o),
(551,296,cs),
(551,297,ls),
(551,310,o),
(551,301,o),
(551,334,cs),
(551,433,l),
(504,433,o),
(484,456,o),
(484,492,c),
(566,492,l),
(566,562,l),
(484,562,l),
(484,715,l),
(252,715,l),
(0,552,l),
(0,492,l),
(295,492,l),
(295,456,o),
(275,433,o),
(198,433,cs),
(44,433,l),
(44,334,ls),
(44,301,o),
(44,310,o),
(44,297,cs),
(44,296,ls),
(44,283,o),
(44,293,o),
(44,260,cs),
(44,209,ls),
(44,176,o),
(44,185,o),
(44,172,cs),
(44,171,ls),
(44,158,o),
(44,168,o),
(44,135,cs),
(44,0,l)
);
},
{
closed = 1;
nodes = (
(295,643,l),
(295,562,l),
(165,562,l)
);
}
);
width = 578;
},
{
associatedMasterId = m01;
attr = {
coordinates = (
50
);
};
layerId = "C8E04411-3D17-4AC3-9B8F-9B758D4D3485";
name = "Feb 2, 24 at 16:29";
shapes = (
{
closed = 1;
nodes = (
(551,0,l),
(551,135,l),
(519,135,o),
(487,139,o),
(487,171,cs),
(487,173,ls),
(487,205,o),
(519,209,o),
(551,209,c),
(551,260,l),
(519,260,o),
(487,264,o),
(487,296,cs),
(487,298,ls),
(487,330,o),
(519,334,o),
(551,334,c),
(551,434,l),
(504,434,o),
(484,457,o),
(484,493,c),
(566,493,l),
(566,563,l),
(484,563,l),
(484,716,l),
(252,716,l),
(0,553,l),
(0,493,l),
(295,493,l),
(295,457,o),
(275,434,o),
(198,434,cs),
(44,434,l),
(44,334,l),
(76,334,o),
(108,330,o),
(108,298,cs),
(108,296,ls),
(108,264,o),
(76,260,o),
(44,260,c),
(44,209,l),
(76,209,o),
(108,205,o),
(108,173,cs),
(108,171,ls),
(108,139,o),
(76,135,o),
(44,135,c),
(44,0,l)
);
},
{
closed = 1;
nodes = (
(295,644,l),
(295,563,l),
(165,563,l)
);
}
);
width = 578;
},
{
associatedMasterId = m01;
attr = {
coordinates = (
100
);
};
layerId = "F2317271-749F-4B52-95A7-7D2B109BEA62";
name = "Feb 2, 24 at 16:29";
shapes = (
{
closed = 1;
nodes = (
(551,0,l),
(551,135,l),
(520,135,o),
(448,160,o),
(436,250,c),
(439,251,l),
(480,209,o),
(540,209,o),
(551,209,c),
(551,260,l),
(520,260,o),
(448,285,o),
(436,375,c),
(439,376,l),
(480,334,o),
(540,334,o),
(551,334,c),
(551,434,l),
(504,434,o),
(484,457,o),
(484,493,c),
(566,493,l),
(566,563,l),
(484,563,l),
(484,716,l),
(252,716,l),
(0,553,l),
(0,493,l),
(295,493,l),
(295,457,o),
(275,434,o),
(198,434,cs),
(44,434,l),
(44,334,l),
(55,334,o),
(107,334,o),
(148,376,c),
(151,375,l),
(139,285,o),
(67,260,o),
(36,260,c),
(36,209,l),
(47,209,o),
(107,209,o),
(148,251,c),
(151,250,l),
(139,160,o),
(67,135,o),
(36,135,c),
(36,0,l)
);
},
{
closed = 1;
nodes = (
(295,644,l),
(295,563,l),
(165,563,l)
);
}
);
width = 578;
}
);
unicode = 52;
}
{
glyphname = five;
kernLeft = five;
kernRight = five;
layers = (
{
layerId = m01;
name = Regular;
shapes = (
{
closed = 1;
nodes = (
(401,-6,ls),
(494,-6,o),
(567,52,o),
(586,135,cs),
(588,144,o),
(590,158,o),
(590,171,cs),
(590,172,ls),
(590,185,o),
(590,176,o),
(590,209,cs),
(590,260,ls),
(590,293,o),
(590,283,o),
(590,296,cs),
(590,297,ls),
(590,310,o),
(590,301,o),
(590,334,cs),
(590,411,ls),
(590,523,o),
(541,589,o),
(385,589,cs),
(286,589,ls),
(258,589,o),
(223,582,o),
(212,568,c),
(208,569,l),
(217,632,l),
(525,632,l),
(525,716,l),
(68,716,l),
(40,521,l),
(223,501,l),
(230,510,o),
(242,515,o),
(259,515,c),
(346,515,l),
(373,515,o),
(389,503,o),
(389,477,c),
(389,456,o),
(376,439,o),
(347,439,c),
(258,439,l),
(233,439,o),
(220,451,o),
(217,468,c),
(32,468,l),
(32,334,ls),
(32,301,o),
(32,310,o),
(32,297,cs),
(32,296,ls),
(32,283,o),
(32,293,o),
(32,260,cs),
(32,209,ls),
(32,175,o),
(32,184,o),
(32,171,cs),
(32,170,ls),
(32,161,o),
(34,144,o),
(36,135,cs),
(55,52,o),
(128,-6,o),
(221,-6,cs)
);
}
);
width = 616;
},
{
associatedMasterId = m01;
attr = {
coordinates = (
50
);
};
layerId = "D7D0BCBE-FC48-4BC7-BB28-53187C3A38E7";
name = "Feb 2, 24 at 16:42";
shapes = (
{
closed = 1;
nodes = (
(399,-6,ls),
(492,-6,o),
(565,52,o),
(584,135,c),
(553,135,o),
(524,140,o),
(524,171,cs),
(524,173,ls),
(524,205,o),
(556,209,o),
(588,209,c),
(588,260,l),
(556,260,o),
(524,264,o),
(524,296,cs),
(524,298,ls),
(524,330,o),
(556,334,o),
(588,334,c),
(588,411,ls),
(588,523,o),
(539,589,o),
(383,589,cs),
(286,589,ls),
(258,589,o),
(223,582,o),
(212,568,c),
(208,569,l),
(217,632,l),
(523,632,l),
(523,716,l),
(68,716,l),
(40,521,l),
(223,501,l),
(230,510,o),
(242,515,o),
(259,515,c),
(344,515,l),
(371,515,o),
(387,503,o),
(387,477,c),
(387,456,o),
(374,439,o),
(345,439,c),
(258,439,l),
(233,439,o),
(220,451,o),
(217,468,c),
(32,468,l),
(32,334,l),
(64,334,o),
(96,330,o),
(96,298,cs),
(96,296,ls),
(96,264,o),
(64,260,o),
(32,260,c),
(32,209,l),
(64,209,o),
(96,205,o),
(96,173,cs),
(96,171,ls),
(96,140,o),
(67,135,o),
(36,135,c),
(55,52,o),
(128,-6,o),
(221,-6,cs)
);
}
);
width = 614;
},
{
associatedMasterId = m01;
attr = {
coordinates = (
100
);
};
layerId = "2A900334-50AE-4F94-829C-D944F59F8884";
name = "Feb 2, 24 at 16:42";
shapes = (
{
closed = 1;
nodes = (
(399,-6,ls),
(492,-6,o),
(565,52,o),
(584,135,c),
(551,137,o),
(485,164,o),
(473,250,c),
(476,251,l),
(517,209,o),
(577,209,o),
(588,209,c),
(588,260,l),
(557,260,o),
(485,285,o),
(473,375,c),
(476,376,l),
(517,334,o),
(577,334,o),
(588,334,c),
(588,411,ls),
(588,523,o),
(539,589,o),
(383,589,cs),
(286,589,ls),
(258,589,o),
(223,582,o),
(212,568,c),
(208,569,l),
(217,632,l),
(523,632,l),
(523,716,l),
(68,716,l),
(40,521,l),
(223,501,l),
(230,510,o),
(242,515,o),
(259,515,c),
(344,515,l),
(371,515,o),
(387,503,o),
(387,477,c),
(387,456,o),
(374,439,o),
(345,439,c),
(258,439,l),
(233,439,o),
(220,451,o),
(217,468,c),
(32,468,l),
(32,334,l),
(43,334,o),
(103,334,o),
(144,376,c),
(147,375,l),
(135,285,o),
(63,260,o),
(32,260,c),
(32,209,l),
(43,209,o),
(103,209,o),
(144,251,c),
(147,250,l),
(135,164,o),
(69,137,o),
(36,135,c),
(55,52,o),
(128,-6,o),
(221,-6,cs)
);
}
);
width = 614;
}
);
unicode = 53;
}
{
glyphname = six;
kernLeft = six;
kernRight = six;
layers = (
{
layerId = m01;
name = Regular;
shapes = (
{
closed = 1;
nodes = (
(398,-6,ls),
(491,-6,o),
(564,52,o),
(583,135,cs),
(585,144,o),
(587,158,o),
(587,171,cs),
(587,172,ls),
(587,185,o),
(587,176,o),
(587,209,cs),
(587,260,ls),
(587,293,o),
(587,283,o),
(587,296,cs),
(587,297,ls),
(587,310,o),
(587,301,o),
(587,334,cs),
(587,393,ls),
(587,517,o),
(524,571,o),
(392,571,cs),
(276,571,ls),
(243,571,o),
(228,561,o),
(220,551,c),
(216,552,l),
(216,582,ls),
(216,628,o),
(249,641,o),
(291,641,cs),
(322,641,ls),
(365,641,o),
(384,625,o),
(384,595,c),
(557,595,l),
(557,671,o),
(480,722,o),
(379,722,cs),
(279,722,ls),
(94,722,o),
(29,644,o),
(29,492,c),
(29,334,ls),
(29,301,o),
(29,310,o),
(29,297,cs),
(29,296,ls),
(29,283,o),
(29,293,o),
(29,260,cs),
(29,209,ls),
(29,175,o),
(29,184,o),
(29,171,cs),
(29,170,ls),
(29,161,o),
(31,144,o),
(33,135,cs),
(52,52,o),
(125,-6,o),
(218,-6,cs)
);
},
{
closed = 1;
nodes = (
(230,439,o),
(217,454,o),
(217,473,cs),
(217,496,o),
(233,507,o),
(259,507,cs),
(343,507,ls),
(369,507,o),
(385,496,o),
(385,473,cs),
(385,454,o),
(372,439,o),
(344,439,cs),
(258,439,ls)
);
}
);
width = 616;
},
{
associatedMasterId = m01;
attr = {
coordinates = (
50
);
};
layerId = "8E62DD6A-A7F3-4161-8A17-03ED6A83D00D";
name = "{50} Feb 2, 24 at 17:11";
shapes = (
{
closed = 1;
nodes = (
(398,-6,ls),
(491,-6,o),
(564,52,o),
(583,135,c),
(552,135,o),
(523,140,o),
(523,171,cs),
(523,173,ls),
(523,205,o),
(555,209,o),
(587,209,c),
(587,260,l),
(555,260,o),
(523,264,o),
(523,296,cs),
(523,298,ls),
(523,330,o),
(555,334,o),
(587,334,c),
(587,393,ls),
(587,517,o),
(524,571,o),
(392,571,cs),
(276,571,ls),
(243,571,o),
(228,561,o),
(220,551,c),
(216,552,l),
(216,582,ls),
(216,628,o),
(249,641,o),
(291,641,cs),
(322,641,ls),
(365,641,o),
(384,625,o),
(384,595,c),
(557,595,l),
(557,671,o),
(480,722,o),
(379,722,cs),
(279,722,ls),
(94,722,o),
(29,644,o),
(29,492,cs),
(29,334,l),
(61,334,o),
(93,330,o),
(93,298,cs),
(93,296,ls),
(93,264,o),
(61,260,o),
(29,260,c),
(29,209,l),
(61,209,o),
(93,205,o),
(93,173,cs),
(93,171,ls),
(93,140,o),
(64,135,o),
(33,135,c),
(52,52,o),
(125,-6,o),
(218,-6,cs)
);
},
{
closed = 1;
nodes = (
(230,439,o),
(217,454,o),
(217,473,cs),
(217,496,o),
(233,507,o),
(259,507,cs),
(343,507,ls),
(369,507,o),
(385,496,o),
(385,473,cs),
(385,454,o),
(372,439,o),
(344,439,cs),
(258,439,ls)
);
}
);
width = 616;
},
{
associatedMasterId = m01;
attr = {
coordinates = (
100
);
};
layerId = "25A1B200-CC0D-43B3-AE5D-316AC76233B3";
name = "Feb 2, 24 at 17:10";
shapes = (
{
closed = 1;
nodes = (
(398,-6,ls),
(491,-6,o),
(564,52,o),
(583,135,c),
(550,137,o),
(484,164,o),
(472,250,c),
(475,251,l),
(516,209,o),
(576,209,o),
(587,209,c),
(587,260,l),
(556,260,o),
(484,285,o),
(472,375,c),
(475,376,l),
(516,334,o),
(576,334,o),
(587,334,c),
(587,393,ls),
(587,517,o),
(524,571,o),
(392,571,cs),
(276,571,ls),
(243,571,o),
(228,561,o),
(220,551,c),
(216,552,l),
(216,582,ls),
(216,628,o),
(249,641,o),
(291,641,cs),
(322,641,ls),
(365,641,o),
(384,625,o),
(384,595,c),
(557,595,l),
(557,671,o),
(480,722,o),
(379,722,cs),
(279,722,ls),
(94,722,o),
(29,644,o),
(29,492,cs),
(29,334,l),
(40,334,o),
(100,334,o),
(141,376,c),
(144,375,l),
(132,285,o),
(60,260,o),
(29,260,c),
(29,209,l),
(40,209,o),
(100,209,o),
(141,251,c),
(144,250,l),
(132,164,o),
(66,137,o),
(33,135,c),
(52,52,o),
(125,-6,o),
(218,-6,cs)
);
},
{
closed = 1;
nodes = (
(230,439,o),
(217,454,o),
(217,473,cs),
(217,496,o),
(233,507,o),
(259,507,cs),
(343,507,ls),
(369,507,o),
(385,496,o),
(385,473,cs),
(385,454,o),
(372,439,o),
(344,439,cs),
(258,439,ls)
);
}
);
width = 616;
}
);
metricLeft = zero;
unicode = 54;
}
{
glyphname = seven;
kernLeft = seven;
kernRight = seven;
layers = (
{
layerId = m01;
name = Regular;
shapes = (
{
closed = 1;
nodes = (
(489,0,l),
(489,135,ls),
(489,168,o),
(489,158,o),
(489,171,cs),
(489,172,ls),
(489,185,o),
(489,176,o),
(489,209,cs),
(489,260,ls),
(489,293,o),
(489,283,o),
(489,296,cs),
(489,297,ls),
(489,310,o),
(489,301,o),
(489,334,cs),
(489,434,l),
(410,434,ls),
(393,434,o),
(385,440,o),
(385,449,cs),
(385,456,o),
(389,465,o),
(396,474,cs),
(517,636,l),
(517,716,l),
(10,716,l),
(10,569,l),
(104,569,l),
(104,609,o),
(121,636,o),
(173,636,cs),
(310,636,l),
(233,532,ls),
(175,453,o),
(144,434,o),
(89,434,cs),
(33,434,l),
(33,334,ls),
(33,301,o),
(33,310,o),
(33,297,cs),
(33,296,ls),
(33,283,o),
(33,293,o),
(33,260,cs),
(33,209,ls),
(33,176,o),
(33,185,o),
(33,172,cs),
(33,171,ls),
(33,158,o),
(33,168,o),
(33,135,cs),
(33,0,l)
);
}
);
width = 527;
},
{
associatedMasterId = m01;
attr = {
coordinates = (
50
);
};
layerId = "A6C3D6B4-A6E5-47AE-A581-16AC38282B46";
name = "Feb 2, 24 at 19:52";
shapes = (
{
closed = 1;
nodes = (
(489,0,l),
(489,135,l),
(457,135,o),
(425,139,o),
(425,171,cs),
(425,173,ls),
(425,205,o),
(457,209,o),
(489,209,c),
(489,260,l),
(457,260,o),
(425,264,o),
(425,296,cs),
(425,298,ls),
(425,330,o),
(457,334,o),
(489,334,c),
(489,434,l),
(410,434,ls),
(393,434,o),
(385,440,o),
(385,449,cs),
(385,456,o),
(389,465,o),
(396,474,cs),
(517,636,l),
(517,716,l),
(10,716,l),
(10,569,l),
(104,569,l),
(104,609,o),
(121,636,o),
(173,636,cs),
(310,636,l),
(233,532,ls),
(175,453,o),
(144,434,o),
(89,434,cs),
(33,434,l),
(33,334,l),
(65,334,o),
(97,330,o),
(97,298,cs),
(97,296,ls),
(97,264,o),
(65,260,o),
(33,260,c),
(33,209,l),
(65,209,o),
(97,205,o),
(97,173,cs),
(97,171,ls),
(97,139,o),
(65,135,o),
(33,135,c),
(33,0,l)
);
}
);
width = 527;
},
{
associatedMasterId = m01;
attr = {
coordinates = (
100
);
};
layerId = "011EA564-1F46-4B7D-98F4-759F86C8895B";
name = "Feb 2, 24 at 19:52";
shapes = (
{
closed = 1;
nodes = (
(489,0,l),
(489,135,l),
(458,135,o),
(386,160,o),
(374,250,c),
(377,251,l),
(418,209,o),
(478,209,o),
(489,209,c),
(489,260,l),
(458,260,o),
(386,285,o),
(374,375,c),
(377,376,l),
(418,334,o),
(478,334,o),
(489,334,c),
(489,434,l),
(410,434,ls),
(393,434,o),
(385,440,o),
(385,449,cs),
(385,456,o),
(389,465,o),
(396,474,cs),
(517,636,l),
(517,716,l),
(10,716,l),
(10,569,l),
(104,569,l),
(104,609,o),
(121,636,o),
(173,636,cs),
(310,636,l),
(233,532,ls),
(175,453,o),
(144,434,o),
(89,434,cs),
(33,434,l),
(33,334,l),
(44,334,o),
(104,334,o),
(145,376,c),
(148,375,l),
(136,285,o),
(64,260,o),
(33,260,c),
(33,209,l),
(44,209,o),
(104,209,o),
(145,251,c),
(148,250,l),
(136,160,o),
(64,135,o),
(33,135,c),
(33,0,l)
);
}
);
width = 527;
}
);
unicode = 55;
}
{
glyphname = eight;
kernLeft = eight;
kernRight = eight;
layers = (
{
layerId = m01;
name = Regular;
shapes = (
{
closed = 1;
nodes = (
(425,-6,ls),
(516,-6,o),
(589,52,o),
(608,135,cs),
(610,144,o),
(612,158,o),
(612,171,cs),
(612,172,ls),
(612,185,o),
(612,176,o),
(612,209,cs),
(612,260,ls),
(612,293,o),
(612,283,o),
(612,296,cs),
(612,297,ls),
(612,310,o),
(612,301,o),
(612,334,cs),
(612,370,ls),
(612,482,o),
(557,533,o),
(454,533,c),
(454,543,l),
(492,543,ls),
(546,543,o),
(581,577,o),
(581,629,cs),
(581,687,o),
(537,722,o),
(443,722,cs),
(195,722,ls),
(101,722,o),
(57,689,o),
(57,631,cs),
(57,578,o),
(92,543,o),
(146,543,cs),
(184,543,l),
(184,533,l),
(81,533,o),
(26,473,o),
(26,370,cs),
(26,334,ls),
(26,301,o),
(26,310,o),
(26,297,cs),
(26,296,ls),
(26,283,o),
(26,293,o),
(26,260,cs),
(26,209,ls),
(26,175,o),
(26,184,o),
(26,171,cs),
(26,170,ls),
(26,161,o),
(28,144,o),
(30,135,cs),
(49,52,o),
(122,-6,o),
(215,-6,cs)
);
},
{
closed = 1;
nodes = (
(239,439,o),
(223,450,o),
(223,473,cs),
(223,493,o),
(236,507,o),
(264,507,cs),
(374,507,ls),
(402,507,o),
(415,493,o),
(415,473,cs),
(415,450,o),
(399,439,o),
(374,439,cs),
(264,439,ls)
);
},
{
closed = 1;
nodes = (
(265,571,o),
(249,582,o),
(249,604,cs),
(249,622,o),
(262,636,o),
(291,636,cs),
(349,636,ls),
(377,636,o),
(390,622,o),
(390,604,cs),
(390,582,o),
(374,571,o),
(349,571,cs),
(291,571,ls)
);
}
);
width = 638;
},
{
associatedMasterId = m01;
attr = {
coordinates = (
50
);
};
layerId = "ACEE4A9F-4E0E-4C2F-90DB-344B2F662027";
name = "Feb 2, 24 at 20:01";
shapes = (
{
closed = 1;
nodes = (
(425,-6,ls),
(518,-6,o),
(591,52,o),
(610,135,c),
(579,135,o),
(550,140,o),
(550,171,cs),
(550,173,ls),
(550,205,o),
(582,209,o),
(614,209,c),
(614,260,l),
(582,260,o),
(550,264,o),
(550,296,cs),
(550,298,ls),
(550,330,o),
(582,334,o),
(614,334,c),
(614,370,ls),
(614,482,o),
(559,533,o),
(456,533,c),
(456,543,l),
(494,543,ls),
(548,543,o),
(583,577,o),
(583,629,cs),
(583,687,o),
(539,722,o),
(445,722,cs),
(195,722,ls),
(101,722,o),
(57,689,o),
(57,631,cs),
(57,578,o),
(92,543,o),
(146,543,cs),
(184,543,l),
(184,533,l),
(81,533,o),
(26,473,o),
(26,370,cs),
(26,334,l),
(58,334,o),
(90,330,o),
(90,298,cs),
(90,296,ls),
(90,264,o),
(58,260,o),
(26,260,c),
(26,209,l),
(58,209,o),
(90,205,o),
(90,173,cs),
(90,171,ls),
(90,140,o),
(61,135,o),
(30,135,c),
(49,52,o),
(122,-6,o),
(215,-6,cs)
);
},
{
closed = 1;
nodes = (
(241,439,o),
(225,450,o),
(225,473,cs),
(225,493,o),
(238,507,o),
(266,507,cs),
(374,507,ls),
(402,507,o),
(415,493,o),
(415,473,cs),
(415,450,o),
(399,439,o),
(374,439,cs),
(266,439,ls)
);
},
{
closed = 1;
nodes = (
(267,571,o),
(251,582,o),
(251,604,cs),
(251,622,o),
(264,636,o),
(293,636,cs),
(349,636,ls),
(377,636,o),
(390,622,o),
(390,604,cs),
(390,582,o),
(374,571,o),
(349,571,cs),
(293,571,ls)
);
}
);
width = 640;
},
{
associatedMasterId = m01;
attr = {
coordinates = (
100
);
};
layerId = "24C24583-5120-4AA0-893E-6F7B52C92A8D";
name = "Feb 2, 24 at 20:00";
shapes = (
{
closed = 1;
nodes = (
(425,-6,ls),
(518,-6,o),
(591,52,o),
(610,135,c),
(577,137,o),
(511,164,o),
(499,250,c),
(502,251,l),
(543,209,o),
(603,209,o),
(614,209,c),
(614,260,l),
(583,260,o),
(511,285,o),
(499,375,c),
(502,376,l),
(543,334,o),
(603,334,o),
(614,334,c),
(614,370,ls),
(614,482,o),
(559,533,o),
(456,533,c),
(456,543,l),
(494,543,ls),
(548,543,o),
(583,577,o),
(583,629,cs),
(583,687,o),
(539,722,o),
(445,722,cs),
(195,722,ls),
(101,722,o),
(57,689,o),
(57,631,cs),
(57,578,o),
(92,543,o),
(146,543,cs),
(184,543,l),
(184,533,l),
(81,533,o),
(26,473,o),
(26,370,cs),
(26,334,l),
(37,334,o),
(97,334,o),
(138,376,c),
(141,375,l),
(129,285,o),
(57,260,o),
(26,260,c),
(26,209,l),
(37,209,o),
(97,209,o),
(138,251,c),
(141,250,l),
(129,164,o),
(63,137,o),
(30,135,c),
(49,52,o),
(122,-6,o),
(215,-6,cs)
);
},
{
closed = 1;
nodes = (
(241,439,o),
(225,450,o),
(225,473,cs),
(225,493,o),
(238,507,o),
(266,507,cs),
(374,507,ls),
(402,507,o),
(415,493,o),
(415,473,cs),
(415,450,o),
(399,439,o),
(374,439,cs),
(266,439,ls)
);
},
{
closed = 1;
nodes = (
(267,571,o),
(251,582,o),
(251,604,cs),
(251,622,o),
(264,636,o),
(293,636,cs),
(349,636,ls),
(377,636,o),
(390,622,o),
(390,604,cs),
(390,582,o),
(374,571,o),
(349,571,cs),
(293,571,ls)
);
}
);
width = 640;
}
);
unicode = 56;
}
{
glyphname = nine;
kernLeft = nine;
kernRight = nine;
layers = (
{
layerId = m01;
name = Regular;
shapes = (
{
closed = 1;
nodes = (
(398,-6,ls),
(491,-6,o),
(564,52,o),
(583,135,cs),
(585,144,o),
(587,158,o),
(587,171,cs),
(587,172,ls),
(587,185,o),
(587,176,o),
(587,209,cs),
(587,260,ls),
(587,293,o),
(587,283,o),
(587,296,cs),
(587,297,ls),
(587,310,o),
(587,301,o),
(587,334,cs),
(587,492,ls),
(587,644,o),
(522,722,o),
(394,722,cs),
(241,722,ls),
(146,722,o),
(47,706,o),
(47,600,cs),
(47,519,o),
(127,497,o),
(166,497,cs),
(353,497,ls),
(386,497,o),
(401,507,o),
(409,517,c),
(413,516,l),
(413,477,ls),
(413,454,o),
(392,439,o),
(361,439,cs),
(275,439,ls),
(230,439,o),
(222,443,o),
(213,468,c),
(29,468,l),
(29,334,ls),
(29,301,o),
(29,310,o),
(29,297,cs),
(29,296,ls),
(29,283,o),
(29,293,o),
(29,260,cs),
(29,209,ls),
(29,175,o),
(29,184,o),
(29,171,cs),
(29,170,ls),
(29,161,o),
(31,144,o),
(33,135,cs),
(52,52,o),
(125,-6,o),
(218,-6,cs)
);
},
{
closed = 1;
nodes = (
(249,563,o),
(233,575,o),
(233,600,cs),
(233,620,o),
(246,636,o),
(274,636,cs),
(359,636,ls),
(387,636,o),
(400,620,o),
(400,600,cs),
(400,575,o),
(384,563,o),
(358,563,cs),
(275,563,ls)
);
}
);
width = 616;
},
{
associatedMasterId = m01;
attr = {
coordinates = (
50
);
};
layerId = "E4B14F1C-DD4B-4BB8-B62B-9E055810A5A3";
name = "Feb 2, 24 at 20:08";
shapes = (
{
closed = 1;
nodes = (
(398,-6,ls),
(491,-6,o),
(564,52,o),
(583,135,c),
(552,135,o),
(523,140,o),
(523,171,cs),
(523,173,ls),
(523,205,o),
(555,209,o),
(587,209,c),
(587,260,l),
(555,260,o),
(523,264,o),
(523,296,cs),
(523,298,ls),
(523,330,o),
(555,334,o),
(587,334,c),
(587,492,ls),
(587,644,o),
(522,722,o),
(394,722,cs),
(241,722,ls),
(146,722,o),
(47,706,o),
(47,600,cs),
(47,519,o),
(127,497,o),
(166,497,cs),
(353,497,ls),
(386,497,o),
(401,507,o),
(409,517,c),
(413,516,l),
(413,477,ls),
(413,454,o),
(392,439,o),
(361,439,cs),
(275,439,ls),
(230,439,o),
(222,443,o),
(213,468,c),
(29,468,l),
(29,334,l),
(61,334,o),
(93,330,o),
(93,298,cs),
(93,296,ls),
(93,264,o),
(61,260,o),
(29,260,c),
(29,209,l),
(61,209,o),
(93,205,o),
(93,173,cs),
(93,171,ls),
(93,140,o),
(64,135,o),
(33,135,c),
(52,52,o),
(125,-6,o),
(218,-6,cs)
);
},
{
closed = 1;
nodes = (
(249,563,o),
(233,575,o),
(233,600,cs),
(233,620,o),
(246,636,o),
(274,636,cs),
(359,636,ls),
(387,636,o),
(400,620,o),
(400,600,cs),
(400,575,o),
(384,563,o),
(358,563,cs),
(275,563,ls)
);
}
);
width = 616;
},
{
associatedMasterId = m01;
attr = {
coordinates = (
100
);
};
layerId = "472077F7-781D-424E-AA98-2E64E74D4021";
name = "Feb 2, 24 at 20:08";
shapes = (
{
closed = 1;
nodes = (
(398,-6,ls),
(491,-6,o),
(564,52,o),
(583,135,c),
(550,137,o),
(484,164,o),
(472,250,c),
(475,251,l),
(516,209,o),
(576,209,o),
(587,209,c),
(587,260,l),
(556,260,o),
(484,285,o),
(472,375,c),
(475,376,l),
(516,334,o),
(576,334,o),
(587,334,c),
(587,492,ls),
(587,644,o),
(522,722,o),
(394,722,cs),
(241,722,ls),
(146,722,o),
(47,706,o),
(47,600,cs),
(47,519,o),
(127,497,o),
(166,497,cs),
(353,497,ls),
(386,497,o),
(401,507,o),
(409,517,c),
(413,516,l),
(413,477,ls),
(413,454,o),
(392,439,o),
(361,439,cs),
(275,439,ls),
(230,439,o),
(222,443,o),
(213,468,c),
(29,468,l),
(29,334,l),
(40,334,o),
(100,334,o),
(141,376,c),
(144,375,l),
(132,285,o),
(60,260,o),
(29,260,c),
(29,209,l),
(40,209,o),
(100,209,o),
(141,251,c),
(144,250,l),
(132,164,o),
(66,137,o),
(33,135,c),
(52,52,o),
(125,-6,o),
(218,-6,cs)
);
},
{
closed = 1;
nodes = (
(249,563,o),
(233,575,o),
(233,600,cs),
(233,620,o),
(246,636,o),
(274,636,cs),
(359,636,ls),
(387,636,o),
(400,620,o),
(400,600,cs),
(400,575,o),
(384,563,o),
(358,563,cs),
(275,563,ls)
);
}
);
width = 616;
}
);
metricRight = zero;
unicode = 57;
}
{
glyphname = colon;
layers = (
{
layerId = m01;
shapes = (
{
closed = 1;
nodes = (
(216,393,o),
(268,442,o),
(268,522,cs),
(268,589,o),
(212,643,o),
(142,643,cs),
(78,643,o),
(20,593,o),
(20,522,cs),
(20,463,o),
(71,393,o),
(144,393,c)
);
},
{
pos = (5,80);
ref = period;
}
);
width = 293;
},
{
associatedMasterId = m01;
layerId = "9F907063-990B-4D54-9D31-3F1501EEAE18";
name = "Jan 27, 24 at 08:44";
shapes = (
{
closed = 1;
nodes = (
(24,477,l),
(169,335,l),
(306,477,l),
(169,613,l)
);
},
{
closed = 1;
nodes = (
(24,147,l),
(169,5,l),
(306,147,l),
(169,283,l)
);
}
);
width = 330;
}
);
unicode = 58;
}
{
glyphname = semicolon;
layers = (
{
layerId = m01;
shapes = (
{
closed = 1;
nodes = (
(216,312,o),
(268,361,o),
(268,441,cs),
(268,508,o),
(212,562,o),
(142,562,cs),
(78,562,o),
(20,512,o),
(20,441,cs),
(20,382,o),
(71,312,o),
(144,312,c)
);
},
{
pos = (5,0);
ref = comma;
}
);
width = 293;
}
);
unicode = 59;
}
{
glyphname = equal;
layers = (
{
layerId = m01;
shapes = (
{
closed = 1;
nodes = (
(8,596,l),
(318,596,l),
(318,678,l),
(8,678,l)
);
},
{
closed = 1;
nodes = (
(8,464,l),
(318,464,l),
(318,546,l),
(8,546,l)
);
}
);
width = 326;
}
);
unicode = 61;
}
{
glyphname = greater;
layers = (
{
layerId = m01;
shapes = (
{
closed = 1;
nodes = (
(24,446,l),
(146,446,l),
(279,569,l),
(146,695,l),
(24,695,l),
(157,569,l)
);
}
);
width = 279;
}
);
unicode = 62;
}
{
glyphname = question;
layers = (
{
background = {
shapes = (
{
pos = (-5,0);
ref = two;
}
);
};
layerId = m01;
shapes = (
{
closed = 1;
nodes = (
(451,274,l),
(451,439,l),
(382,439,ls),
(347,439,o),
(334,445,o),
(334,460,cs),
(334,474,o),
(350,486,o),
(379,492,cs),
(470,512,ls),
(522,523,o),
(562,563,o),
(562,604,cs),
(562,679,o),
(464,722,o),
(292,722,cs),
(111,722,o),
(30,673,o),
(30,564,c),
(194,564,l),
(194,611,o),
(223,636,o),
(278,636,cs),
(300,636,ls),
(340,636,o),
(368,620,o),
(368,597,cs),
(368,583,o),
(357,575,o),
(328,567,cs),
(252,547,ls),
(163,523,o),
(105,461,o),
(105,389,cs),
(105,318,o),
(163,274,o),
(256,274,cs)
);
},
{
closed = 1;
nodes = (
(362,-13,o),
(421,49,o),
(421,116,cs),
(421,183,o),
(367,237,o),
(299,237,cs),
(229,237,o),
(173,183,o),
(173,116,cs),
(173,39,o),
(223,-13,o),
(297,-13,c)
);
}
);
width = 592;
}
);
unicode = 63;
}
{
glyphname = at;
layers = (
{
layerId = m01;
shapes = (
{
closed = 1;
nodes = (
(565,-104,l),
(563,-14,l),
(327,-14,ls),
(202,-14,o),
(119,68,o),
(119,192,cs),
(119,467,ls),
(119,591,o),
(212,678,o),
(345,678,cs),
(483,678,ls),
(621,678,o),
(711,595,o),
(711,466,cs),
(711,142,ls),
(711,113,o),
(700,94,o),
(683,94,cs),
(663,94,o),
(653,110,o),
(653,142,cs),
(653,260,l),
(653,278,o),
(653,276,o),
(653,296,cs),
(653,298,ls),
(653,315,o),
(653,321,o),
(653,334,c),
(653,466,ls),
(653,556,o),
(584,618,o),
(484,618,cs),
(346,618,ls),
(250,618,o),
(177,553,o),
(177,468,cs),
(177,334,l),
(177,324,o),
(177,315,o),
(177,298,cs),
(177,296,ls),
(177,276,o),
(177,267,o),
(177,260,c),
(177,209,l),
(177,200,o),
(177,210,o),
(177,188,cs),
(177,183,ls),
(177,166,o),
(183,146,o),
(188,135,cs),
(213,80,o),
(270,43,o),
(346,43,cs),
(366,43,ls),
(453,43,o),
(503,86,o),
(503,162,cs),
(503,224,l),
(543,224,o),
(563,203,o),
(563,164,cs),
(563,127,ls),
(563,46,o),
(610,-3,o),
(688,-3,cs),
(770,-3,o),
(803,39,o),
(803,142,cs),
(803,465,ls),
(803,643,o),
(670,767,o),
(481,767,cs),
(344,767,ls),
(162,767,o),
(29,640,o),
(29,467,cs),
(29,192,ls),
(29,18,o),
(153,-104,o),
(329,-104,cs)
);
},
{
closed = 1;
nodes = (
(341,334,o),
(330,354,o),
(330,387,cs),
(330,451,ls),
(330,497,o),
(351,518,o),
(396,518,cs),
(434,518,ls),
(484,518,o),
(501,501,o),
(501,451,cs),
(501,387,ls),
(501,356,o),
(486,334,o),
(464,334,cs),
(443,334,o),
(421,343,o),
(417,396,c),
(410,396,l),
(406,343,o),
(385,334,o),
(365,334,cs)
);
}
);
width = 832;
},
{
associatedMasterId = m01;
attr = {
coordinates = (
50
);
};
background = {
shapes = (
{
alignment = -1;
pos = (73,-100);
ref = cutdetail.part;
},
{
closed = 1;
nodes = (
(341,334,o),
(327,354,o),
(328,387,cs),
(329,451,ls),
(330,497,o),
(351,518,o),
(396,518,cs),
(434,518,ls),
(484,518,o),
(501,501,o),
(501,451,cs),
(501,387,ls),
(501,356,o),
(486,334,o),
(464,334,cs),
(365,334,ls)
);
},
{
closed = 1;
nodes = (
(803,465,ls),
(803,643,o),
(670,767,o),
(481,767,cs),
(344,767,ls),
(162,767,o),
(29,640,o),
(29,467,cs),
(29,192,ls),
(29,18,o),
(153,-104,o),
(329,-104,cs),
(565,-104,l),
(563,-14,l),
(327,-14,ls),
(202,-14,o),
(119,68,o),
(119,192,cs),
(119,467,ls),
(119,591,o),
(212,678,o),
(345,678,cs),
(483,678,ls),
(621,678,o),
(711,595,o),
(711,466,cs),
(711,142,ls),
(711,113,o),
(700,94,o),
(683,94,cs),
(663,94,o),
(653,110,o),
(653,142,cs),
(653,466,ls),
(653,556,o),
(584,618,o),
(484,618,cs),
(346,618,ls),
(250,618,o),
(177,553,o),
(177,468,cs),
(177,193,ls),
(177,104,o),
(246,43,o),
(346,43,cs),
(366,43,ls),
(453,43,o),
(503,86,o),
(503,162,cs),
(503,224,l),
(543,223,o),
(563,203,o),
(563,164,cs),
(563,127,ls),
(563,46,o),
(610,-3,o),
(688,-3,cs),
(770,-3,o),
(803,39,o),
(803,142,cs)
);
}
);
};
layerId = "E517D07A-2266-414C-A56F-A1C907EDB4E9";
name = "{50} 7 Feb 24 at 11:01";
shapes = (
{
closed = 1;
nodes = (
(565,-104,l),
(563,-14,l),
(327,-14,ls),
(202,-14,o),
(119,68,o),
(119,192,cs),
(119,467,ls),
(119,591,o),
(212,678,o),
(345,678,cs),
(483,678,ls),
(621,678,o),
(711,595,o),
(711,466,cs),
(711,142,ls),
(711,113,o),
(700,94,o),
(683,94,cs),
(663,94,o),
(653,110,o),
(653,142,cs),
(653,260,l),
(621,260,o),
(589,264,o),
(589,296,cs),
(589,298,ls),
(589,330,o),
(621,334,o),
(653,334,c),
(653,466,ls),
(653,556,o),
(584,618,o),
(484,618,cs),
(346,618,ls),
(250,618,o),
(177,553,o),
(177,468,cs),
(177,334,l),
(209,334,o),
(241,330,o),
(241,298,cs),
(241,296,ls),
(241,264,o),
(209,260,o),
(177,260,c),
(177,209,l),
(209,209,o),
(241,205,o),
(241,173,cs),
(241,171,ls),
(241,143,o),
(216,136,o),
(188,135,c),
(211,79,o),
(270,43,o),
(346,43,cs),
(366,43,ls),
(453,43,o),
(503,86,o),
(503,162,cs),
(503,224,l),
(543,224,o),
(563,203,o),
(563,164,cs),
(563,127,ls),
(563,46,o),
(610,-3,o),
(688,-3,cs),
(770,-3,o),
(803,39,o),
(803,142,cs),
(803,465,ls),
(803,643,o),
(670,767,o),
(481,767,cs),
(344,767,ls),
(162,767,o),
(29,640,o),
(29,467,cs),
(29,192,ls),
(29,18,o),
(153,-104,o),
(329,-104,cs)
);
},
{
closed = 1;
nodes = (
(341,334,o),
(330,354,o),
(330,387,cs),
(330,451,ls),
(330,497,o),
(351,518,o),
(396,518,cs),
(434,518,ls),
(484,518,o),
(501,501,o),
(501,451,cs),
(501,387,ls),
(501,356,o),
(486,334,o),
(464,334,cs),
(443,334,o),
(421,343,o),
(417,396,c),
(410,396,l),
(406,343,o),
(385,334,o),
(365,334,cs)
);
}
);
width = 832;
},
{
associatedMasterId = m01;
attr = {
coordinates = (
100
);
};
background = {
shapes = (
{
alignment = -1;
pos = (73,-100);
ref = cutdetail.part;
},
{
closed = 1;
nodes = (
(341,334,o),
(327,354,o),
(328,387,cs),
(329,451,ls),
(330,497,o),
(351,518,o),
(396,518,cs),
(434,518,ls),
(484,518,o),
(501,501,o),
(501,451,cs),
(501,387,ls),
(501,356,o),
(486,334,o),
(464,334,cs),
(365,334,ls)
);
},
{
closed = 1;
nodes = (
(803,465,ls),
(803,643,o),
(670,767,o),
(481,767,cs),
(344,767,ls),
(162,767,o),
(29,640,o),
(29,467,cs),
(29,192,ls),
(29,18,o),
(153,-104,o),
(329,-104,cs),
(565,-104,l),
(563,-14,l),
(327,-14,ls),
(202,-14,o),
(119,68,o),
(119,192,cs),
(119,467,ls),
(119,591,o),
(212,678,o),
(345,678,cs),
(483,678,ls),
(621,678,o),
(711,595,o),
(711,466,cs),
(711,142,ls),
(711,113,o),
(700,94,o),
(683,94,cs),
(663,94,o),
(653,110,o),
(653,142,cs),
(653,466,ls),
(653,556,o),
(584,618,o),
(484,618,cs),
(346,618,ls),
(250,618,o),
(177,553,o),
(177,468,cs),
(177,193,ls),
(177,104,o),
(246,43,o),
(346,43,cs),
(366,43,ls),
(453,43,o),
(503,86,o),
(503,162,cs),
(503,224,l),
(543,223,o),
(563,203,o),
(563,164,cs),
(563,127,ls),
(563,46,o),
(610,-3,o),
(688,-3,cs),
(770,-3,o),
(803,39,o),
(803,142,cs)
);
}
);
};
layerId = "8874AED0-2B59-4C8F-BE36-37BD9734FBB4";
name = "{50} 7 Feb 24 at 11:01";
shapes = (
{
closed = 1;
nodes = (
(565,-104,l),
(563,-14,l),
(327,-14,ls),
(202,-14,o),
(119,68,o),
(119,192,cs),
(119,467,ls),
(119,591,o),
(212,678,o),
(345,678,cs),
(483,678,ls),
(621,678,o),
(711,595,o),
(711,466,cs),
(711,142,ls),
(711,113,o),
(700,94,o),
(683,94,cs),
(663,94,o),
(653,110,o),
(653,142,cs),
(653,260,l),
(622,260,o),
(550,285,o),
(538,375,c),
(541,376,l),
(582,334,o),
(642,334,o),
(653,334,c),
(653,466,ls),
(653,556,o),
(584,618,o),
(484,618,cs),
(346,618,ls),
(250,618,o),
(177,553,o),
(177,468,cs),
(177,334,l),
(188,334,o),
(248,334,o),
(289,376,c),
(292,375,l),
(280,285,o),
(208,260,o),
(177,260,c),
(177,209,l),
(188,209,o),
(248,209,o),
(289,251,c),
(292,250,l),
(281,169,o),
(222,141,o),
(188,136,c),
(211,79,o),
(269,43,o),
(346,43,cs),
(366,43,ls),
(453,43,o),
(503,86,o),
(503,162,cs),
(503,224,l),
(543,224,o),
(563,203,o),
(563,164,cs),
(563,127,ls),
(563,46,o),
(610,-3,o),
(688,-3,cs),
(770,-3,o),
(803,39,o),
(803,142,cs),
(803,465,ls),
(803,643,o),
(670,767,o),
(481,767,cs),
(344,767,ls),
(162,767,o),
(29,640,o),
(29,467,cs),
(29,192,ls),
(29,18,o),
(153,-104,o),
(329,-104,cs)
);
},
{
closed = 1;
nodes = (
(341,334,o),
(330,354,o),
(330,387,cs),
(330,451,ls),
(330,497,o),
(351,518,o),
(396,518,cs),
(434,518,ls),
(484,518,o),
(501,501,o),
(501,451,cs),
(501,387,ls),
(501,356,o),
(486,334,o),
(464,334,cs),
(443,334,o),
(421,343,o),
(417,396,c),
(410,396,l),
(406,343,o),
(385,334,o),
(365,334,cs)
);
}
);
width = 832;
}
);
metricLeft = O;
metricRight = O;
unicode = 64;
}
{
color = 5;
glyphname = A;
kernLeft = A;
kernRight = A;
layers = (
{
anchors = (
{
name = bottom;
pos = (315,0);
},
{
name = ogonek;
pos = (671,0);
},
{
name = top;
pos = (345,716);
}
);
layerId = m01;
shapes = (
{
closed = 1;
nodes = (
(286,0,l),
(286,439,l),
(260,439,ls),
(243,439,o),
(226,450,o),
(226,472,cs),
(226,488,o),
(236,505,o),
(260,505,cs),
(360,505,ls),
(381,505,o),
(394,492,o),
(394,473,cs),
(394,453,o),
(381,439,o),
(360,439,cs),
(344,439,l),
(344,334,ls),
(344,301,o),
(344,310,o),
(344,297,cs),
(344,296,ls),
(344,283,o),
(344,293,o),
(344,260,cs),
(344,209,ls),
(344,176,o),
(344,185,o),
(344,172,cs),
(344,171,ls),
(344,158,o),
(344,168,o),
(344,135,cs),
(344,0,l),
(671,0,l),
(671,434,l),
(611,434,o),
(601,451,o),
(564,517,cs),
(452,716,l),
(258,716,l),
(137,514,ls),
(95,445,o),
(77,434,o),
(29,434,c),
(29,334,ls),
(29,301,o),
(29,310,o),
(29,297,cs),
(29,296,ls),
(29,283,o),
(29,293,o),
(29,260,cs),
(29,209,ls),
(29,176,o),
(29,185,o),
(29,172,cs),
(29,171,ls),
(29,158,o),
(29,168,o),
(29,135,cs),
(29,0,l)
);
},
{
closed = 1;
nodes = (
(309,647,l),
(357,564,l),
(260,564,l)
);
}
);
width = 700;
},
{
anchors = (
{
name = bottom;
pos = (315,0);
},
{
name = ogonek;
pos = (671,0);
},
{
name = top;
pos = (345,716);
}
);
associatedMasterId = m01;
attr = {
coordinates = (
50
);
};
layerId = "7A247881-CF67-422E-8BB0-1BBFEF16A632";
name = "{50} Jan 2, 24 at 16:03";
shapes = (
{
closed = 1;
nodes = (
(286,0,l),
(286,439,l),
(260,439,ls),
(243,439,o),
(226,450,o),
(226,472,cs),
(226,488,o),
(236,505,o),
(260,505,cs),
(360,505,ls),
(381,505,o),
(394,492,o),
(394,473,cs),
(394,453,o),
(381,439,o),
(360,439,cs),
(344,439,l),
(344,334,l),
(376,334,o),
(408,330,o),
(408,298,cs),
(408,296,ls),
(408,264,o),
(376,260,o),
(344,260,c),
(344,209,l),
(376,209,o),
(408,205,o),
(408,173,cs),
(408,171,ls),
(408,139,o),
(376,135,o),
(344,135,c),
(344,0,l),
(671,0,l),
(671,434,l),
(611,434,o),
(601,451,o),
(564,517,cs),
(452,716,l),
(258,716,l),
(137,514,ls),
(95,445,o),
(77,434,o),
(29,434,c),
(29,334,l),
(61,334,o),
(93,330,o),
(93,298,cs),
(93,296,ls),
(93,264,o),
(61,260,o),
(29,260,c),
(29,209,l),
(61,209,o),
(93,205,o),
(93,173,cs),
(93,171,ls),
(93,139,o),
(61,135,o),
(29,135,c),
(29,0,l)
);
},
{
closed = 1;
nodes = (
(309,647,l),
(357,564,l),
(260,564,l)
);
}
);
width = 700;
},
{
anchors = (
{
name = bottom;
pos = (315,0);
},
{
name = ogonek;
pos = (671,0);
},
{
name = top;
pos = (345,716);
}
);
associatedMasterId = m01;
attr = {
coordinates = (
100
);
};
layerId = "417315A3-0F47-440D-BC4D-A6DD37B15B33";
name = "Jan 2, 24 at 16:03";
shapes = (
{
closed = 1;
nodes = (
(286,0,l),
(286,439,l),
(260,439,ls),
(243,439,o),
(226,450,o),
(226,472,cs),
(226,488,o),
(236,505,o),
(260,505,cs),
(360,505,ls),
(381,505,o),
(394,492,o),
(394,473,cs),
(394,453,o),
(381,439,o),
(360,439,cs),
(344,439,l),
(344,334,l),
(355,334,o),
(415,334,o),
(456,376,c),
(459,375,l),
(447,285,o),
(375,260,o),
(344,260,c),
(344,209,l),
(355,209,o),
(415,209,o),
(456,251,c),
(459,250,l),
(447,160,o),
(375,135,o),
(344,135,c),
(344,0,l),
(671,0,l),
(671,434,l),
(611,434,o),
(601,451,o),
(564,517,cs),
(452,716,l),
(258,716,l),
(137,514,ls),
(95,445,o),
(77,434,o),
(29,434,c),
(29,334,l),
(40,334,o),
(100,334,o),
(141,376,c),
(144,375,l),
(132,285,o),
(60,260,o),
(29,260,c),
(29,209,l),
(40,209,o),
(100,209,o),
(141,251,c),
(144,250,l),
(132,160,o),
(60,135,o),
(29,135,c),
(29,0,l)
);
},
{
closed = 1;
nodes = (
(309,647,l),
(357,564,l),
(260,564,l)
);
}
);
width = 700;
}
);
unicode = 65;
}
{
color = 5;
glyphname = B;
kernLeft = B;
kernRight = B;
layers = (
{
anchors = (
{
name = bottom;
pos = (317,0);
},
{
name = center;
pos = (333,358);
},
{
name = hook;
pos = (29,636);
},
{
name = top;
pos = (322,716);
}
);
layerId = m01;
shapes = (
{
closed = 1;
nodes = (
(425,0,ls),
(518,0,o),
(591,52,o),
(610,135,cs),
(612,144,o),
(614,158,o),
(614,171,cs),
(614,172,ls),
(614,185,o),
(614,176,o),
(614,209,cs),
(614,260,ls),
(614,293,o),
(614,283,o),
(614,296,cs),
(614,297,ls),
(614,310,o),
(614,301,o),
(614,334,c),
(614,375,ls),
(614,518,o),
(525,537,o),
(456,537,c),
(456,546,l),
(474,546,ls),
(511,546,o),
(589,560,o),
(589,628,c),
(589,712,o),
(500,716,o),
(460,716,c),
(29,716,l),
(29,636,l),
(79,636,o),
(96,609,o),
(96,569,cs),
(96,495,ls),
(96,455,o),
(79,434,o),
(29,434,c),
(29,334,ls),
(29,301,o),
(29,310,o),
(29,297,cs),
(29,296,ls),
(29,283,o),
(29,293,o),
(29,260,cs),
(29,209,ls),
(29,176,o),
(29,185,o),
(29,172,cs),
(29,171,ls),
(29,158,o),
(29,168,o),
(29,135,cs),
(29,0,l)
);
},
{
closed = 1;
nodes = (
(264,505,l),
(379,505,ls),
(407,505,o),
(420,493,o),
(420,472,cs),
(420,450,o),
(404,439,o),
(378,439,cs),
(264,439,l)
);
},
{
closed = 1;
nodes = (
(264,636,l),
(359,636,ls),
(387,636,o),
(400,622,o),
(400,604,cs),
(400,586,o),
(384,575,o),
(358,575,cs),
(264,575,l)
);
}
);
width = 639;
},
{
anchors = (
{
name = bottom;
pos = (317,0);
},
{
name = center;
pos = (333,358);
},
{
name = hook;
pos = (29,636);
},
{
name = top;
pos = (322,716);
}
);
associatedMasterId = m01;
attr = {
coordinates = (
50
);
};
layerId = "43ADFC7C-FCAA-41DD-9D7E-AE56CAFE55D0";
name = "{50} Jan 24, 24 at 13:55";
shapes = (
{
closed = 1;
nodes = (
(425,0,ls),
(518,0,o),
(591,52,o),
(610,135,c),
(579,135,o),
(550,140,o),
(550,171,cs),
(550,173,ls),
(550,205,o),
(582,209,o),
(614,209,c),
(614,260,l),
(582,260,o),
(550,264,o),
(550,296,cs),
(550,298,ls),
(550,330,o),
(582,334,o),
(614,334,c),
(614,375,ls),
(614,518,o),
(525,537,o),
(456,537,c),
(456,546,l),
(474,546,ls),
(511,546,o),
(589,560,o),
(589,628,c),
(589,712,o),
(500,716,o),
(460,716,c),
(29,716,l),
(29,636,l),
(79,636,o),
(96,609,o),
(96,569,cs),
(96,495,ls),
(96,455,o),
(79,434,o),
(29,434,c),
(29,334,l),
(61,334,o),
(93,330,o),
(93,298,cs),
(93,296,ls),
(93,264,o),
(61,260,o),
(29,260,c),
(29,209,l),
(61,209,o),
(93,205,o),
(93,173,cs),
(93,171,ls),
(93,139,o),
(61,135,o),
(29,135,c),
(29,0,l)
);
},
{
closed = 1;
nodes = (
(264,505,l),
(379,505,ls),
(407,505,o),
(420,493,o),
(420,472,cs),
(420,450,o),
(404,439,o),
(378,439,cs),
(264,439,l)
);
},
{
closed = 1;
nodes = (
(264,636,l),
(359,636,ls),
(387,636,o),
(400,622,o),
(400,604,cs),
(400,586,o),
(384,575,o),
(358,575,cs),
(264,575,l)
);
}
);
width = 639;
},
{
anchors = (
{
name = bottom;
pos = (317,0);
},
{
name = center;
pos = (333,358);
},
{
name = hook;
pos = (29,636);
},
{
name = top;
pos = (322,716);
}
);
associatedMasterId = m01;
attr = {
coordinates = (
100
);
};
layerId = "6F18B9E4-B4E4-42B2-B7DC-DA82262E003B";
name = "Jan 24, 24 at 13:55";
shapes = (
{
closed = 1;
nodes = (
(425,0,ls),
(518,0,o),
(591,52,o),
(610,135,c),
(577,137,o),
(511,164,o),
(499,250,c),
(502,251,l),
(543,209,o),
(603,209,o),
(614,209,c),
(614,260,l),
(583,260,o),
(511,285,o),
(499,375,c),
(502,376,l),
(543,334,o),
(603,334,o),
(614,334,c),
(614,375,ls),
(614,518,o),
(525,537,o),
(456,537,c),
(456,546,l),
(474,546,ls),
(511,546,o),
(589,560,o),
(589,628,c),
(589,712,o),
(500,716,o),
(460,716,c),
(29,716,l),
(29,636,l),
(79,636,o),
(96,609,o),
(96,569,cs),
(96,495,ls),
(96,455,o),
(79,434,o),
(29,434,c),
(29,334,l),
(40,334,o),
(100,334,o),
(141,376,c),
(144,375,l),
(132,285,o),
(60,260,o),
(29,260,c),
(29,209,l),
(40,209,o),
(100,209,o),
(141,251,c),
(144,250,l),
(132,160,o),
(60,135,o),
(29,135,c),
(29,0,l)
);
},
{
closed = 1;
nodes = (
(264,505,l),
(379,505,ls),
(407,505,o),
(420,493,o),
(420,472,cs),
(420,450,o),
(404,439,o),
(378,439,cs),
(264,439,l)
);
},
{
closed = 1;
nodes = (
(264,636,l),
(359,636,ls),
(387,636,o),
(400,622,o),
(400,604,cs),
(400,586,o),
(384,575,o),
(358,575,cs),
(264,575,l)
);
}
);
width = 639;
}
);
metricLeft = H;
unicode = 66;
}
{
color = 5;
glyphname = C;
kernLeft = O;
kernRight = O;
layers = (
{
anchors = (
{
name = bottom;
pos = (328,0);
},
{
name = hooktop;
pos = (587,564);
},
{
name = top;
pos = (318,716);
}
);
background = {
shapes = (
{
closed = 1;
nodes = (
(392,-6,l),
(504,-6,o),
(587,75,o),
(587,186,cs),
(587,500,l),
(423,500,l),
(423,460,o),
(407,439,o),
(377,439,cs),
(277,439,ls),
(248,439,o),
(231,458,o),
(231,492,cs),
(231,569,ls),
(231,614,o),
(254,636,o),
(299,636,cs),
(355,636,ls),
(401,636,o),
(423,613,o),
(423,564,c),
(587,564,l),
(587,652,o),
(517,722,o),
(426,722,cs),
(218,722,ls),
(110,722,o),
(29,644,o),
(29,536,cs),
(29,186,ls),
(29,75,o),
(112,-6,o),
(224,-6,cs)
);
},
{
pos = (-14,5);
ref = cutdetail.part;
}
);
};
layerId = m01;
shapes = (
{
closed = 1;
nodes = (
(398,-6,ls),
(491,-6,o),
(564,52,o),
(583,135,cs),
(585,144,o),
(587,158,o),
(587,171,cs),
(587,172,ls),
(587,185,o),
(587,176,o),
(587,209,cs),
(587,260,ls),
(587,293,o),
(587,283,o),
(587,296,cs),
(587,297,ls),
(587,310,o),
(587,301,o),
(587,334,c),
(587,500,l),
(423,500,l),
(423,460,o),
(407,439,o),
(377,439,cs),
(356,439,o),
(334,448,o),
(330,501,c),
(323,501,l),
(319,448,o),
(298,439,o),
(277,439,cs),
(248,439,o),
(231,458,o),
(231,492,cs),
(231,569,ls),
(231,614,o),
(254,636,o),
(299,636,cs),
(355,636,ls),
(401,636,o),
(423,613,o),
(423,564,c),
(587,564,l),
(587,652,o),
(517,722,o),
(426,722,cs),
(218,722,ls),
(110,722,o),
(29,644,o),
(29,536,c),
(29,334,l),
(29,301,o),
(29,310,o),
(29,297,cs),
(29,296,ls),
(29,283,o),
(29,293,o),
(29,260,cs),
(29,209,ls),
(29,175,o),
(29,184,o),
(29,171,cs),
(29,170,ls),
(29,157,o),
(31,144,o),
(33,135,cs),
(52,52,o),
(125,-6,o),
(218,-6,cs)
);
}
);
width = 616;
},
{
anchors = (
{
name = bottom;
pos = (328,0);
},
{
name = hooktop;
pos = (587,564);
},
{
name = top;
pos = (318,716);
}
);
associatedMasterId = m01;
attr = {
coordinates = (
50
);
};
background = {
shapes = (
{
closed = 1;
nodes = (
(392,-6,l),
(504,-6,o),
(587,75,o),
(587,186,cs),
(587,500,l),
(423,500,l),
(423,460,o),
(407,439,o),
(377,439,cs),
(277,439,ls),
(248,439,o),
(231,458,o),
(231,492,cs),
(231,569,ls),
(231,614,o),
(254,636,o),
(299,636,cs),
(355,636,ls),
(401,636,o),
(423,613,o),
(423,564,c),
(587,564,l),
(587,652,o),
(517,722,o),
(426,722,cs),
(218,722,ls),
(110,722,o),
(29,644,o),
(29,536,cs),
(29,186,ls),
(29,75,o),
(112,-6,o),
(224,-6,cs)
);
},
{
pos = (-14,5);
ref = cutdetail.part;
}
);
};
layerId = "1C43B6C0-F28D-4CD9-BDEC-6F9B953F1AF5";
name = "Jan 26, 24 at 07:42";
shapes = (
{
closed = 1;
nodes = (
(398,-6,ls),
(491,-6,o),
(564,52,o),
(583,135,c),
(552,135,o),
(523,140,o),
(523,171,cs),
(523,173,ls),
(523,205,o),
(555,209,o),
(587,209,c),
(587,260,l),
(555,260,o),
(523,264,o),
(523,296,cs),
(523,298,ls),
(523,330,o),
(555,334,o),
(587,334,c),
(587,500,l),
(423,500,l),
(423,460,o),
(407,439,o),
(377,439,cs),
(356,439,o),
(334,448,o),
(330,501,c),
(323,501,l),
(319,448,o),
(298,439,o),
(277,439,cs),
(248,439,o),
(231,458,o),
(231,492,cs),
(231,569,ls),
(231,614,o),
(254,636,o),
(299,636,cs),
(355,636,ls),
(401,636,o),
(423,613,o),
(423,564,c),
(587,564,l),
(587,652,o),
(517,722,o),
(426,722,cs),
(218,722,ls),
(110,722,o),
(29,644,o),
(29,536,c),
(29,334,l),
(61,334,o),
(93,330,o),
(93,298,cs),
(93,296,ls),
(93,264,o),
(61,260,o),
(29,260,c),
(29,209,l),
(61,209,o),
(93,205,o),
(93,173,cs),
(93,171,ls),
(93,140,o),
(64,135,o),
(33,135,c),
(52,52,o),
(125,-6,o),
(218,-6,cs)
);
}
);
width = 616;
},
{
anchors = (
{
name = bottom;
pos = (328,0);
},
{
name = hooktop;
pos = (587,564);
},
{
name = top;
pos = (318,716);
}
);
associatedMasterId = m01;
attr = {
coordinates = (
100
);
};
background = {
shapes = (
{
closed = 1;
nodes = (
(392,-6,l),
(504,-6,o),
(587,75,o),
(587,186,cs),
(587,500,l),
(423,500,l),
(423,460,o),
(407,439,o),
(377,439,cs),
(277,439,ls),
(248,439,o),
(231,458,o),
(231,492,cs),
(231,569,ls),
(231,614,o),
(254,636,o),
(299,636,cs),
(355,636,ls),
(401,636,o),
(423,613,o),
(423,564,c),
(587,564,l),
(587,652,o),
(517,722,o),
(426,722,cs),
(218,722,ls),
(110,722,o),
(29,644,o),
(29,536,cs),
(29,186,ls),
(29,75,o),
(112,-6,o),
(224,-6,cs)
);
},
{
pos = (-14,5);
ref = cutdetail.part;
}
);
};
layerId = "43FA71A1-C41F-4741-AB48-ACD878AB64B8";
name = "Jan 26, 24 at 07:42";
shapes = (
{
closed = 1;
nodes = (
(398,-6,ls),
(491,-6,o),
(564,52,o),
(583,135,c),
(550,137,o),
(484,164,o),
(472,250,c),
(475,251,l),
(516,209,o),
(576,209,o),
(587,209,c),
(587,260,l),
(556,260,o),
(484,285,o),
(472,375,c),
(475,376,l),
(516,334,o),
(576,334,o),
(587,334,c),
(587,500,l),
(423,500,l),
(423,460,o),
(407,439,o),
(377,439,cs),
(356,439,o),
(334,448,o),
(330,501,c),
(323,501,l),
(319,448,o),
(298,439,o),
(277,439,cs),
(248,439,o),
(231,458,o),
(231,492,cs),
(231,569,ls),
(231,614,o),
(254,636,o),
(299,636,cs),
(355,636,ls),
(401,636,o),
(423,613,o),
(423,564,c),
(587,564,l),
(587,652,o),
(517,722,o),
(426,722,cs),
(218,722,ls),
(110,722,o),
(29,644,o),
(29,536,c),
(29,334,l),
(40,334,o),
(100,334,o),
(141,376,c),
(144,375,l),
(132,285,o),
(60,260,o),
(29,260,c),
(29,209,l),
(40,209,o),
(100,209,o),
(141,251,c),
(144,250,l),
(132,164,o),
(66,137,o),
(33,135,c),
(52,52,o),
(125,-6,o),
(218,-6,cs)
);
}
);
width = 616;
}
);
unicode = 67;
}
{
color = 5;
glyphname = E;
kernLeft = H;
kernRight = E;
layers = (
{
anchors = (
{
name = bottom;
pos = (306,0);
},
{
name = ogonek;
pos = (547,0);
},
{
name = top;
pos = (298,716);
}
);
layerId = m01;
shapes = (
{
closed = 1;
nodes = (
(547,0,l),
(547,135,ls),
(547,168,o),
(547,158,o),
(547,171,cs),
(547,172,ls),
(547,185,o),
(547,176,o),
(547,209,cs),
(547,260,ls),
(547,293,o),
(547,283,o),
(547,296,cs),
(547,297,ls),
(547,310,o),
(547,301,o),
(547,334,c),
(547,500,l),
(457,500,l),
(457,460,o),
(440,439,o),
(390,439,cs),
(263,439,l),
(263,505,l),
(380,505,l),
(380,575,l),
(263,575,l),
(263,636,l),
(384,636,ls),
(434,636,o),
(451,609,o),
(451,569,c),
(541,569,l),
(541,716,l),
(29,716,l),
(29,636,l),
(79,636,o),
(97,604,o),
(97,564,cs),
(97,500,ls),
(97,460,o),
(80,434,o),
(30,434,c),
(30,334,ls),
(30,302,o),
(30,310,o),
(30,297,cs),
(30,296,ls),
(30,283,o),
(30,293,o),
(30,260,cs),
(30,209,ls),
(30,176,o),
(30,185,o),
(30,172,cs),
(30,171,ls),
(30,158,o),
(30,168,o),
(30,135,cs),
(30,0,l)
);
}
);
width = 576;
},
{
anchors = (
{
name = bottom;
pos = (306,0);
},
{
name = ogonek;
pos = (547,0);
},
{
name = top;
pos = (298,716);
}
);
associatedMasterId = m01;
attr = {
coordinates = (
50
);
};
layerId = "B65E3FE2-8280-425A-8FC6-7230ECED0DBA";
name = "Jan 26, 24 at 06:58";
shapes = (
{
closed = 1;
nodes = (
(547,0,l),
(547,135,l),
(515,135,o),
(483,139,o),
(483,171,cs),
(483,173,ls),
(483,205,o),
(515,209,o),
(547,209,c),
(547,260,l),
(515,260,o),
(483,264,o),
(483,296,cs),
(483,298,ls),
(483,330,o),
(515,334,o),
(547,334,c),
(547,500,l),
(457,500,l),
(457,460,o),
(440,439,o),
(390,439,cs),
(263,439,l),
(263,505,l),
(380,505,l),
(380,575,l),
(263,575,l),
(263,636,l),
(384,636,ls),
(434,636,o),
(451,609,o),
(451,569,c),
(541,569,l),
(541,716,l),
(29,716,l),
(29,636,l),
(79,636,o),
(97,604,o),
(97,564,cs),
(97,500,ls),
(97,460,o),
(80,434,o),
(30,434,c),
(30,334,l),
(62,334,o),
(94,330,o),
(94,298,cs),
(94,296,ls),
(94,264,o),
(62,260,o),
(30,260,c),
(30,209,l),
(62,209,o),
(94,205,o),
(94,173,cs),
(94,171,ls),
(94,139,o),
(62,135,o),
(30,135,c),
(30,0,l)
);
}
);
width = 576;
},
{
anchors = (
{
name = bottom;
pos = (306,0);
},
{
name = ogonek;
pos = (547,0);
},
{
name = top;
pos = (298,716);
}
);
associatedMasterId = m01;
attr = {
coordinates = (
100
);
};
layerId = "6AA9FAAD-E20D-4729-B736-CBCBB0571F7A";
name = "Jan 26, 24 at 06:58";
shapes = (
{
closed = 1;
nodes = (
(547,0,l),
(547,135,l),
(516,135,o),
(444,160,o),
(432,250,c),
(435,251,l),
(476,209,o),
(536,209,o),
(547,209,c),
(547,260,l),
(516,260,o),
(444,285,o),
(432,375,c),
(435,376,l),
(476,334,o),
(536,334,o),
(547,334,c),
(547,500,l),
(457,500,l),
(457,460,o),
(440,439,o),
(390,439,cs),
(263,439,l),
(263,505,l),
(380,505,l),
(380,575,l),
(263,575,l),
(263,636,l),
(384,636,ls),
(434,636,o),
(451,609,o),
(451,569,c),
(541,569,l),
(541,716,l),
(29,716,l),
(29,636,l),
(79,636,o),
(97,604,o),
(97,564,cs),
(97,500,ls),
(97,460,o),
(80,434,o),
(30,434,c),
(30,334,l),
(41,334,o),
(101,334,o),
(142,376,c),
(145,375,l),
(133,285,o),
(61,260,o),
(30,260,c),
(30,209,l),
(41,209,o),
(101,209,o),
(142,251,c),
(145,250,l),
(133,160,o),
(61,135,o),
(30,135,c),
(30,0,l)
);
}
);
width = 576;
}
);
metricLeft = H;
unicode = 69;
}
{
color = 5;
glyphname = F;
kernLeft = H;
kernRight = F;
layers = (
{
anchors = (
{
name = bottom;
pos = (324,0);
},
{
name = top;
pos = (286,716);
}
);
layerId = m01;
shapes = (
{
closed = 1;
nodes = (
(443,0,l),
(443,439,l),
(329,439,ls),
(279,439,o),
(262,462,o),
(262,502,c),
(380,502,l),
(380,572,l),
(262,572,l),
(262,636,l),
(380,636,ls),
(430,636,o),
(447,609,o),
(447,569,c),
(537,569,l),
(537,716,l),
(29,716,l),
(29,636,l),
(78,636,o),
(96,604,o),
(96,564,cs),
(96,500,ls),
(96,460,o),
(79,434,o),
(29,434,c),
(29,334,ls),
(29,302,o),
(29,310,o),
(29,297,cs),
(29,296,ls),
(29,283,o),
(29,293,o),
(29,260,cs),
(29,209,ls),
(29,176,o),
(29,185,o),
(29,172,cs),
(29,171,ls),
(29,158,o),
(29,168,o),
(29,135,cs),
(29,0,l)
);
}
);
width = 557;
},
{
anchors = (
{
name = bottom;
pos = (324,0);
},
{
name = top;
pos = (286,716);
}
);
associatedMasterId = m01;
attr = {
coordinates = (
50
);
};
layerId = "683FD384-2BCF-46FA-A505-24ED5AD199B7";
name = "Jan 26, 24 at 08:17";
shapes = (
{
closed = 1;
nodes = (
(443,0,l),
(443,439,l),
(329,439,ls),
(279,439,o),
(262,462,o),
(262,502,c),
(380,502,l),
(380,572,l),
(262,572,l),
(262,636,l),
(380,636,ls),
(430,636,o),
(447,609,o),
(447,569,c),
(537,569,l),
(537,716,l),
(29,716,l),
(29,636,l),
(78,636,o),
(96,604,o),
(96,564,cs),
(96,500,ls),
(96,460,o),
(79,434,o),
(29,434,c),
(29,334,l),
(61,334,o),
(93,330,o),
(93,298,cs),
(93,296,ls),
(93,264,o),
(61,260,o),
(29,260,c),
(29,209,l),
(61,209,o),
(93,205,o),
(93,173,cs),
(93,171,ls),
(93,139,o),
(61,135,o),
(29,135,c),
(29,0,l)
);
}
);
width = 557;
},
{
anchors = (
{
name = bottom;
pos = (324,0);
},
{
name = top;
pos = (286,716);
}
);
associatedMasterId = m01;
attr = {
coordinates = (
100
);
};
layerId = "CA0B858F-CA75-4273-AB18-F8319A89FCB3";
name = "{100} Jan 30, 24 at 15:13";
shapes = (
{
closed = 1;
nodes = (
(443,0,l),
(443,439,l),
(329,439,ls),
(279,439,o),
(262,462,o),
(262,502,c),
(380,502,l),
(380,572,l),
(262,572,l),
(262,636,l),
(380,636,ls),
(430,636,o),
(447,609,o),
(447,569,c),
(537,569,l),
(537,716,l),
(29,716,l),
(29,636,l),
(78,636,o),
(96,604,o),
(96,564,cs),
(96,500,ls),
(96,460,o),
(79,434,o),
(29,434,c),
(29,334,l),
(40,334,o),
(100,334,o),
(141,376,c),
(144,375,l),
(132,285,o),
(60,260,o),
(29,260,c),
(29,209,l),
(40,209,o),
(100,209,o),
(141,251,c),
(144,250,l),
(132,160,o),
(60,135,o),
(29,135,c),
(29,0,l)
);
}
);
width = 557;
}
);
metricLeft = H;
unicode = 70;
}
{
color = 5;
glyphname = H;
kernLeft = H;
kernRight = H;
layers = (
{
anchors = (
{
name = bottom;
pos = (350,0);
},
{
name = center;
pos = (349,358);
},
{
name = hook;
pos = (29,636);
},
{
name = top;
pos = (349,716);
},
{
name = topleft;
pos = (0,716);
}
);
layerId = m01;
shapes = (
{
closed = 1;
nodes = (
(321,0,l),
(321,439,l),
(271,439,o),
(254,465,o),
(254,505,c),
(446,505,l),
(446,465,o),
(429,439,o),
(379,439,c),
(379,334,ls),
(379,301,o),
(379,310,o),
(379,297,cs),
(379,296,ls),
(379,283,o),
(379,293,o),
(379,260,cs),
(379,209,ls),
(379,176,o),
(379,185,o),
(379,172,cs),
(379,171,ls),
(379,158,o),
(379,168,o),
(379,135,cs),
(379,0,l),
(671,0,l),
(671,434,l),
(621,434,o),
(604,460,o),
(604,500,cs),
(604,564,ls),
(604,604,o),
(621,636,o),
(671,636,c),
(671,716,l),
(379,716,l),
(379,631,l),
(424,631,o),
(446,609,o),
(446,575,c),
(254,575,l),
(254,609,o),
(276,631,o),
(321,631,c),
(321,716,l),
(29,716,l),
(29,636,l),
(79,636,o),
(96,604,o),
(96,564,cs),
(96,500,ls),
(96,460,o),
(79,434,o),
(29,434,c),
(29,334,ls),
(29,301,o),
(29,310,o),
(29,297,cs),
(29,296,ls),
(29,283,o),
(29,293,o),
(29,260,cs),
(29,209,ls),
(29,176,o),
(29,185,o),
(29,172,cs),
(29,171,ls),
(29,158,o),
(29,168,o),
(29,135,cs),
(29,0,l)
);
}
);
width = 700;
},
{
anchors = (
{
name = bottom;
pos = (350,0);
},
{
name = center;
pos = (349,358);
},
{
name = hook;
pos = (29,636);
},
{
name = top;
pos = (349,716);
},
{
name = topleft;
pos = (0,716);
}
);
associatedMasterId = m01;
attr = {
coordinates = (
50
);
};
layerId = "CC7896CB-C423-4707-B093-8F933399B656";
name = "{50} Jan 26, 24 at 08:43";
shapes = (
{
closed = 1;
nodes = (
(321,0,l),
(321,439,l),
(271,439,o),
(254,465,o),
(254,505,c),
(446,505,l),
(446,465,o),
(429,439,o),
(379,439,c),
(379,334,l),
(411,334,o),
(443,330,o),
(443,298,cs),
(443,296,ls),
(443,264,o),
(411,260,o),
(379,260,c),
(379,209,l),
(411,209,o),
(443,205,o),
(443,173,cs),
(443,171,ls),
(443,139,o),
(411,135,o),
(379,135,c),
(379,0,l),
(671,0,l),
(671,434,l),
(621,434,o),
(604,460,o),
(604,500,cs),
(604,564,ls),
(604,604,o),
(621,636,o),
(671,636,c),
(671,716,l),
(379,716,l),
(379,631,l),
(424,631,o),
(446,609,o),
(446,575,c),
(254,575,l),
(254,609,o),
(276,631,o),
(321,631,c),
(321,716,l),
(29,716,l),
(29,636,l),
(79,636,o),
(96,604,o),
(96,564,cs),
(96,500,ls),
(96,460,o),
(79,434,o),
(29,434,c),
(29,334,l),
(61,334,o),
(93,330,o),
(93,298,cs),
(93,296,ls),
(93,264,o),
(61,260,o),
(29,260,c),
(29,209,l),
(61,209,o),
(93,205,o),
(93,173,cs),
(93,171,ls),
(93,139,o),
(61,135,o),
(29,135,c),
(29,0,l)
);
}
);
width = 700;
},
{
anchors = (
{
name = bottom;
pos = (350,0);
},
{
name = center;
pos = (349,358);
},
{
name = hook;
pos = (29,636);
},
{
name = top;
pos = (349,716);
},
{
name = topleft;
pos = (0,716);
}
);
associatedMasterId = m01;
attr = {
coordinates = (
100
);
};
layerId = "322B490C-9803-49F9-8597-1AA87ABC6C59";
name = "Jan 26, 24 at 08:42";
shapes = (
{
closed = 1;
nodes = (
(321,0,l),
(321,439,l),
(271,439,o),
(254,465,o),
(254,505,c),
(446,505,l),
(446,465,o),
(429,439,o),
(379,439,c),
(379,334,l),
(390,334,o),
(450,334,o),
(491,376,c),
(494,375,l),
(482,285,o),
(410,260,o),
(379,260,c),
(379,209,l),
(390,209,o),
(450,209,o),
(491,251,c),
(494,250,l),
(482,160,o),
(410,135,o),
(379,135,c),
(379,0,l),
(671,0,l),
(671,434,l),
(621,434,o),
(604,460,o),
(604,500,cs),
(604,564,ls),
(604,604,o),
(621,636,o),
(671,636,c),
(671,716,l),
(379,716,l),
(379,631,l),
(424,631,o),
(446,609,o),
(446,575,c),
(254,575,l),
(254,609,o),
(276,631,o),
(321,631,c),
(321,716,l),
(29,716,l),
(29,636,l),
(79,636,o),
(96,604,o),
(96,564,cs),
(96,500,ls),
(96,460,o),
(79,434,o),
(29,434,c),
(29,334,l),
(40,334,o),
(100,334,o),
(141,376,c),
(144,375,l),
(132,285,o),
(60,260,o),
(29,260,c),
(29,209,l),
(40,209,o),
(100,209,o),
(141,251,c),
(144,250,l),
(132,160,o),
(60,135,o),
(29,135,c),
(29,0,l)
);
}
);
width = 700;
}
);
unicode = 72;
}
{
color = 5;
glyphname = I;
kernLeft = H;
kernRight = H;
layers = (
{
anchors = (
{
name = bottom;
pos = (175,0);
},
{
name = center;
pos = (174,535);
},
{
name = ogonek;
pos = (321,0);
},
{
name = top;
pos = (175,716);
},
{
name = topleft;
pos = (1,716);
}
);
layerId = m01;
shapes = (
{
closed = 1;
nodes = (
(321,0,l),
(321,434,l),
(271,434,o),
(254,460,o),
(254,498,cs),
(254,567,ls),
(254,604,o),
(271,636,o),
(321,636,c),
(321,716,l),
(29,716,l),
(29,636,l),
(79,636,o),
(96,609,o),
(96,567,cs),
(96,498,ls),
(96,455,o),
(79,434,o),
(29,434,c),
(29,334,ls),
(29,301,o),
(29,310,o),
(29,297,cs),
(29,296,ls),
(29,283,o),
(29,293,o),
(29,260,cs),
(29,209,ls),
(29,176,o),
(29,185,o),
(29,172,cs),
(29,171,ls),
(29,158,o),
(29,168,o),
(29,135,cs),
(29,0,l)
);
}
);
width = 350;
},
{
anchors = (
{
name = bottom;
pos = (175,0);
},
{
name = center;
pos = (174,535);
},
{
name = ogonek;
pos = (321,0);
},
{
name = top;
pos = (175,716);
},
{
name = topleft;
pos = (1,716);
}
);
associatedMasterId = m01;
attr = {
coordinates = (
50
);
};
layerId = "5420DE78-C95A-44A0-B8ED-B776BBC2B43F";
name = "Jan 3, 24 at 08:22";
shapes = (
{
closed = 1;
nodes = (
(321,0,l),
(321,434,l),
(271,434,o),
(254,460,o),
(254,498,cs),
(254,567,ls),
(254,604,o),
(271,636,o),
(321,636,c),
(321,716,l),
(29,716,l),
(29,636,l),
(79,636,o),
(96,609,o),
(96,567,cs),
(96,498,ls),
(96,455,o),
(79,434,o),
(29,434,c),
(29,334,l),
(61,334,o),
(93,330,o),
(93,298,cs),
(93,296,ls),
(93,264,o),
(61,260,o),
(29,260,c),
(29,209,l),
(61,209,o),
(93,205,o),
(93,173,cs),
(93,171,ls),
(93,139,o),
(61,135,o),
(29,135,c),
(29,0,l)
);
}
);
width = 350;
},
{
anchors = (
{
name = bottom;
pos = (175,0);
},
{
name = center;
pos = (174,535);
},
{
name = ogonek;
pos = (321,0);
},
{
name = top;
pos = (175,716);
},
{
name = topleft;
pos = (1,716);
}
);
associatedMasterId = m01;
attr = {
coordinates = (
100
);
};
layerId = "F8320619-8BC2-4DEC-8FA1-B9F731792DE3";
name = "Jan 3, 24 at 08:22";
shapes = (
{
closed = 1;
nodes = (
(321,0,l),
(321,434,l),
(271,434,o),
(254,460,o),
(254,498,cs),
(254,567,ls),
(254,604,o),
(271,636,o),
(321,636,c),
(321,716,l),
(29,716,l),
(29,636,l),
(79,636,o),
(96,609,o),
(96,567,cs),
(96,498,ls),
(96,455,o),
(79,434,o),
(29,434,c),
(29,334,l),
(40,334,o),
(100,334,o),
(141,376,c),
(144,375,l),
(132,285,o),
(60,260,o),
(29,260,c),
(29,209,l),
(40,209,o),
(100,209,o),
(141,251,c),
(144,250,l),
(132,160,o),
(60,135,o),
(29,135,c),
(29,0,l)
);
}
);
width = 350;
}
);
metricLeft = H;
metricRight = H;
unicode = 73;
}
{
color = 5;
glyphname = J;
kernLeft = J;
kernRight = J;
layers = (
{
anchors = (
{
name = bottom;
pos = (327,0);
},
{
name = center;
pos = (438,533);
},
{
name = top;
pos = (438,716);
}
);
layerId = m01;
shapes = (
{
closed = 1;
nodes = (
(395,-6,ls),
(488,-6,o),
(561,52,o),
(580,135,cs),
(582,144,o),
(584,158,o),
(584,171,cs),
(584,172,ls),
(584,185,o),
(584,176,o),
(584,209,cs),
(584,260,ls),
(584,293,o),
(584,283,o),
(584,296,cs),
(584,297,ls),
(584,310,o),
(584,301,o),
(584,334,cs),
(584,434,l),
(534,434,o),
(517,460,o),
(517,500,cs),
(517,564,ls),
(517,604,o),
(534,636,o),
(584,636,c),
(584,716,l),
(292,716,l),
(292,636,l),
(342,636,o),
(359,609,o),
(359,569,cs),
(359,500,ls),
(359,460,o),
(342,439,o),
(292,439,cs),
(193,439,ls),
(143,439,o),
(126,460,o),
(126,500,cs),
(126,544,l),
(31,544,l),
(31,334,ls),
(31,301,o),
(31,310,o),
(31,297,cs),
(31,296,ls),
(31,283,o),
(31,293,o),
(31,260,cs),
(31,209,ls),
(31,175,o),
(31,184,o),
(31,171,cs),
(31,170,ls),
(31,157,o),
(33,144,o),
(35,135,cs),
(54,52,o),
(127,-6,o),
(220,-6,cs)
);
}
);
width = 620;
},
{
anchors = (
{
name = bottom;
pos = (327,0);
},
{
name = center;
pos = (438,533);
},
{
name = top;
pos = (438,716);
}
);
associatedMasterId = m01;
attr = {
coordinates = (
50
);
};
layerId = "6E1B4629-B9D1-4BA9-975C-1B1C1A7AE474";
name = "Jan 25, 24 at 17:33";
shapes = (
{
closed = 1;
nodes = (
(395,-6,ls),
(488,-6,o),
(561,52,o),
(580,135,c),
(549,135,o),
(520,140,o),
(520,171,cs),
(520,173,ls),
(520,205,o),
(552,209,o),
(584,209,c),
(584,260,l),
(552,260,o),
(520,264,o),
(520,296,cs),
(520,298,ls),
(520,330,o),
(552,334,o),
(584,334,c),
(584,434,l),
(534,434,o),
(517,460,o),
(517,500,cs),
(517,564,ls),
(517,604,o),
(534,636,o),
(584,636,c),
(584,716,l),
(292,716,l),
(292,636,l),
(342,636,o),
(359,609,o),
(359,569,cs),
(359,500,ls),
(359,460,o),
(342,439,o),
(292,439,cs),
(193,439,ls),
(143,439,o),
(126,460,o),
(126,500,cs),
(126,544,l),
(31,544,l),
(31,334,l),
(63,334,o),
(95,330,o),
(95,298,cs),
(95,296,ls),
(95,264,o),
(63,260,o),
(31,260,c),
(31,209,l),
(63,209,o),
(95,205,o),
(95,173,cs),
(95,171,ls),
(95,140,o),
(66,135,o),
(35,135,c),
(54,52,o),
(127,-6,o),
(220,-6,cs)
);
}
);
width = 620;
},
{
anchors = (
{
name = bottom;
pos = (327,0);
},
{
name = center;
pos = (438,533);
},
{
name = top;
pos = (438,716);
}
);
associatedMasterId = m01;
attr = {
coordinates = (
100
);
};
layerId = "AD0B7104-17DF-4D8D-A700-A5291EB56703";
name = "Jan 25, 24 at 17:33";
shapes = (
{
closed = 1;
nodes = (
(395,-6,ls),
(488,-6,o),
(561,52,o),
(580,135,c),
(547,137,o),
(481,164,o),
(469,250,c),
(472,251,l),
(513,209,o),
(573,209,o),
(584,209,c),
(584,260,l),
(553,260,o),
(481,285,o),
(469,375,c),
(472,376,l),
(513,334,o),
(573,334,o),
(584,334,c),
(584,434,l),
(534,434,o),
(517,460,o),
(517,500,cs),
(517,564,ls),
(517,604,o),
(534,636,o),
(584,636,c),
(584,716,l),
(292,716,l),
(292,636,l),
(342,636,o),
(359,609,o),
(359,569,cs),
(359,500,ls),
(359,460,o),
(342,439,o),
(292,439,cs),
(193,439,ls),
(143,439,o),
(126,460,o),
(126,500,cs),
(126,544,l),
(31,544,l),
(31,334,l),
(42,334,o),
(102,334,o),
(143,376,c),
(146,375,l),
(134,285,o),
(62,260,o),
(31,260,c),
(31,209,l),
(42,209,o),
(102,209,o),
(143,251,c),
(146,250,l),
(134,164,o),
(68,137,o),
(35,135,c),
(54,52,o),
(127,-6,o),
(220,-6,cs)
);
}
);
width = 620;
}
);
unicode = 74;
}
{
color = 5;
glyphname = K;
kernLeft = H;
kernRight = K;
layers = (
{
anchors = (
{
name = bottom;
pos = (331,0);
},
{
name = hook;
pos = (591,636);
},
{
name = top;
pos = (345,716);
}
);
background = {
shapes = (
{
closed = 1;
nodes = (
(312,0,l),
(312,439,l),
(266,439,o),
(249,460,o),
(249,500,cs),
(249,564,ls),
(249,604,o),
(266,631,o),
(312,631,c),
(312,716,l),
(29,716,l),
(29,636,l),
(79,636,o),
(96,604,o),
(96,564,cs),
(96,500,ls),
(96,460,o),
(79,434,o),
(29,434,c),
(29,0,l)
);
},
{
closed = 1;
nodes = (
(668,0,l),
(668,435,l),
(649,435,ls),
(622,435,o),
(608,449,o),
(551,512,cs),
(462,610,l),
(341,536,l),
(399,467,l),
(410,454,o),
(400,439,o),
(382,439,cs),
(370,439,l),
(370,0,l)
);
},
{
closed = 1;
nodes = (
(568,613,ls),
(584,620,o),
(611,636,o),
(638,636,cs),
(648,636,l),
(648,716,l),
(361,716,l),
(361,631,l),
(382,631,ls),
(403,631,o),
(406,614,o),
(391,607,cs),
(198,522,l),
(198,446,l)
);
}
);
};
guides = (
{
angle = 90;
pos = (286,525);
}
);
layerId = m01;
shapes = (
{
closed = 1;
nodes = (
(312,0,l),
(312,439,l),
(280,439,o),
(253,449,o),
(253,471,c),
(355,520,l),
(384,485,ls),
(402,463,o),
(404,460,o),
(404,452,cs),
(404,442,o),
(395,439,o),
(382,439,cs),
(370,439,l),
(370,334,l),
(370,301,o),
(370,310,o),
(370,297,cs),
(370,296,ls),
(370,283,o),
(370,293,o),
(370,260,c),
(370,209,l),
(370,176,o),
(370,185,o),
(370,172,cs),
(370,171,ls),
(370,158,o),
(370,168,o),
(370,135,c),
(370,0,l),
(668,0,l),
(668,435,l),
(649,435,ls),
(624,435,o),
(613,444,o),
(551,512,cs),
(489,580,l),
(563,613,ls),
(611,635,o),
(617,636,o),
(633,636,cs),
(643,636,l),
(643,716,l),
(361,716,l),
(361,631,l),
(380,631,ls),
(388,631,o),
(395,627,o),
(395,620,cs),
(395,613,o),
(392,610,o),
(386,607,cs),
(249,544,l),
(249,564,ls),
(249,608,o),
(270,631,o),
(312,631,c),
(312,716,l),
(29,716,l),
(29,636,l),
(73,636,o),
(96,611,o),
(96,564,cs),
(96,500,ls),
(96,455,o),
(74,434,o),
(29,434,c),
(29,334,l),
(29,301,o),
(29,310,o),
(29,297,cs),
(29,296,ls),
(29,283,o),
(29,293,o),
(29,260,c),
(29,209,l),
(29,176,o),
(29,185,o),
(29,172,cs),
(29,171,ls),
(29,158,o),
(29,168,o),
(29,135,c),
(29,0,l)
);
}
);
width = 697;
},
{
anchors = (
{
name = bottom;
pos = (331,0);
},
{
name = hook;
pos = (591,636);
},
{
name = top;
pos = (345,716);
}
);
associatedMasterId = m01;
attr = {
coordinates = (
50
);
};
background = {
shapes = (
{
closed = 1;
nodes = (
(312,0,l),
(312,439,l),
(266,439,o),
(249,460,o),
(249,500,cs),
(249,564,ls),
(249,604,o),
(266,631,o),
(312,631,c),
(312,716,l),
(29,716,l),
(29,636,l),
(79,636,o),
(96,604,o),
(96,564,cs),
(96,500,ls),
(96,460,o),
(79,434,o),
(29,434,c),
(29,0,l)
);
},
{
closed = 1;
nodes = (
(668,0,l),
(668,435,l),
(649,435,ls),
(622,435,o),
(608,449,o),
(551,512,cs),
(462,610,l),
(341,536,l),
(399,467,l),
(410,454,o),
(400,439,o),
(382,439,cs),
(370,439,l),
(370,0,l)
);
},
{
closed = 1;
nodes = (
(568,613,ls),
(584,620,o),
(611,636,o),
(638,636,cs),
(648,636,l),
(648,716,l),
(361,716,l),
(361,631,l),
(382,631,ls),
(403,631,o),
(406,614,o),
(391,607,cs),
(198,522,l),
(198,446,l)
);
}
);
};
guides = (
{
angle = 90;
pos = (286,525);
}
);
layerId = "378A8C85-4F18-4359-92B1-4F5368CB6A47";
name = "Jan 18, 24 at 10:38";
shapes = (
{
closed = 1;
nodes = (
(312,0,l),
(312,439,l),
(280,439,o),
(253,449,o),
(253,471,c),
(355,520,l),
(384,485,ls),
(402,463,o),
(404,460,o),
(404,452,cs),
(404,442,o),
(395,439,o),
(382,439,cs),
(370,439,l),
(370,334,l),
(402,334,o),
(434,330,o),
(434,298,cs),
(434,296,ls),
(434,264,o),
(402,260,o),
(370,260,c),
(370,209,l),
(402,209,o),
(434,205,o),
(434,173,cs),
(434,171,ls),
(434,139,o),
(402,135,o),
(370,135,c),
(370,0,l),
(668,0,l),
(668,435,l),
(649,435,ls),
(624,435,o),
(613,444,o),
(551,512,cs),
(489,580,l),
(563,613,ls),
(611,635,o),
(617,636,o),
(633,636,cs),
(643,636,l),
(643,716,l),
(361,716,l),
(361,631,l),
(380,631,ls),
(388,631,o),
(395,627,o),
(395,620,cs),
(395,613,o),
(392,610,o),
(386,607,cs),
(249,544,l),
(249,564,ls),
(249,608,o),
(270,631,o),
(312,631,c),
(312,716,l),
(29,716,l),
(29,636,l),
(73,636,o),
(96,611,o),
(96,564,cs),
(96,500,ls),
(96,455,o),
(74,434,o),
(29,434,c),
(29,334,l),
(61,334,o),
(93,330,o),
(93,298,cs),
(93,296,ls),
(93,264,o),
(61,260,o),
(29,260,c),
(29,209,l),
(61,209,o),
(93,205,o),
(93,173,cs),
(93,171,ls),
(93,139,o),
(61,135,o),
(29,135,c),
(29,0,l)
);
}
);
width = 697;
},
{
anchors = (
{
name = bottom;
pos = (331,0);
},
{
name = hook;
pos = (591,636);
},
{
name = top;
pos = (345,716);
}
);
associatedMasterId = m01;
attr = {
coordinates = (
100
);
};
background = {
shapes = (
{
closed = 1;
nodes = (
(312,0,l),
(312,439,l),
(266,439,o),
(249,460,o),
(249,500,cs),
(249,564,ls),
(249,604,o),
(266,631,o),
(312,631,c),
(312,716,l),
(29,716,l),
(29,636,l),
(79,636,o),
(96,604,o),
(96,564,cs),
(96,500,ls),
(96,460,o),
(79,434,o),
(29,434,c),
(29,0,l)
);
},
{
closed = 1;
nodes = (
(668,0,l),
(668,435,l),
(649,435,ls),
(622,435,o),
(608,449,o),
(551,512,cs),
(462,610,l),
(341,536,l),
(399,467,l),
(410,454,o),
(400,439,o),
(382,439,cs),
(370,439,l),
(370,0,l)
);
},
{
closed = 1;
nodes = (
(568,613,ls),
(584,620,o),
(611,636,o),
(638,636,cs),
(648,636,l),
(648,716,l),
(361,716,l),
(361,631,l),
(382,631,ls),
(403,631,o),
(406,614,o),
(391,607,cs),
(198,522,l),
(198,446,l)
);
}
);
};
guides = (
{
angle = 90;
pos = (286,525);
}
);
layerId = "FC98C917-EBFD-4F5C-A2DA-049290F5343C";
name = "Jan 18, 24 at 10:38";
shapes = (
{
closed = 1;
nodes = (
(312,0,l),
(312,439,l),
(280,439,o),
(253,449,o),
(253,471,c),
(355,520,l),
(384,485,ls),
(402,463,o),
(404,460,o),
(404,452,cs),
(404,442,o),
(395,439,o),
(382,439,cs),
(370,439,l),
(370,334,l),
(381,334,o),
(441,334,o),
(482,376,c),
(485,375,l),
(473,285,o),
(401,260,o),
(370,260,c),
(370,209,l),
(381,209,o),
(441,209,o),
(482,251,c),
(485,250,l),
(473,160,o),
(401,135,o),
(370,135,c),
(370,0,l),
(668,0,l),
(668,435,l),
(649,435,ls),
(624,435,o),
(613,444,o),
(551,512,cs),
(489,580,l),
(563,613,ls),
(611,635,o),
(617,636,o),
(633,636,cs),
(643,636,l),
(643,716,l),
(361,716,l),
(361,631,l),
(380,631,ls),
(388,631,o),
(395,627,o),
(395,620,cs),
(395,613,o),
(392,610,o),
(386,607,cs),
(249,544,l),
(249,564,ls),
(249,608,o),
(270,631,o),
(312,631,c),
(312,716,l),
(29,716,l),
(29,636,l),
(73,636,o),
(96,611,o),
(96,564,cs),
(96,500,ls),
(96,455,o),
(74,434,o),
(29,434,c),
(29,334,l),
(40,334,o),
(100,334,o),
(141,376,c),
(144,375,l),
(132,285,o),
(60,260,o),
(29,260,c),
(29,209,l),
(40,209,o),
(100,209,o),
(141,251,c),
(144,250,l),
(132,160,o),
(60,135,o),
(29,135,c),
(29,0,l)
);
}
);
width = 697;
}
);
metricLeft = H;
unicode = 75;
}
{
color = 5;
glyphname = M;
kernLeft = H;
kernRight = H;
layers = (
{
anchors = (
{
name = bottom;
pos = (384,0);
},
{
name = top;
pos = (378,716);
}
);
layerId = m01;
shapes = (
{
closed = 1;
nodes = (
(354,0,l),
(354,439,l),
(321,439,ls),
(271,439,o),
(254,461,o),
(254,501,cs),
(254,603,l),
(384,472,l),
(514,603,l),
(514,501,ls),
(514,461,o),
(497,439,o),
(447,439,cs),
(414,439,l),
(414,334,l),
(414,301,o),
(414,310,o),
(414,297,cs),
(414,296,ls),
(414,283,o),
(414,293,o),
(414,260,c),
(414,209,l),
(414,176,o),
(414,185,o),
(414,172,cs),
(414,171,ls),
(414,158,o),
(414,168,o),
(414,135,c),
(414,0,l),
(739,0,l),
(739,434,l),
(689,434,o),
(672,455,o),
(672,495,cs),
(672,566,ls),
(672,606,o),
(689,633,o),
(739,633,c),
(739,716,l),
(511,716,l),
(384,584,l),
(257,716,l),
(29,716,l),
(29,633,l),
(79,633,o),
(96,606,o),
(96,566,cs),
(96,495,ls),
(96,455,o),
(79,434,o),
(29,434,c),
(29,334,l),
(29,301,o),
(29,310,o),
(29,297,cs),
(29,296,ls),
(29,283,o),
(29,293,o),
(29,260,c),
(29,209,l),
(29,176,o),
(29,185,o),
(29,172,cs),
(29,171,ls),
(29,158,o),
(29,168,o),
(29,135,c),
(29,0,l)
);
}
);
width = 768;
},
{
anchors = (
{
name = bottom;
pos = (384,0);
},
{
name = top;
pos = (378,716);
}
);
associatedMasterId = m01;
attr = {
coordinates = (
50
);
};
layerId = "F5201F7D-2EC9-4FA4-8FEA-D64DFCEFCE47";
name = "Jan 3, 24 at 09:18";
shapes = (
{
closed = 1;
nodes = (
(354,0,l),
(354,439,l),
(321,439,ls),
(271,439,o),
(254,461,o),
(254,501,cs),
(254,603,l),
(384,472,l),
(514,603,l),
(514,501,ls),
(514,461,o),
(497,439,o),
(447,439,cs),
(414,439,l),
(414,334,l),
(446,334,o),
(478,330,o),
(478,298,cs),
(478,296,ls),
(478,264,o),
(446,260,o),
(414,260,c),
(414,209,l),
(446,209,o),
(478,205,o),
(478,173,cs),
(478,171,ls),
(478,139,o),
(446,135,o),
(414,135,c),
(414,0,l),
(739,0,l),
(739,434,l),
(689,434,o),
(672,455,o),
(672,495,cs),
(672,566,ls),
(672,606,o),
(689,633,o),
(739,633,c),
(739,716,l),
(511,716,l),
(384,584,l),
(257,716,l),
(29,716,l),
(29,633,l),
(79,633,o),
(96,606,o),
(96,566,cs),
(96,495,ls),
(96,455,o),
(79,434,o),
(29,434,c),
(29,334,l),
(61,334,o),
(93,330,o),
(93,298,cs),
(93,296,ls),
(93,264,o),
(61,260,o),
(29,260,c),
(29,209,l),
(61,209,o),
(93,205,o),
(93,173,cs),
(93,171,ls),
(93,139,o),
(61,135,o),
(29,135,c),
(29,0,l)
);
}
);
width = 768;
},
{
anchors = (
{
name = bottom;
pos = (384,0);
},
{
name = top;
pos = (378,716);
}
);
associatedMasterId = m01;
attr = {
coordinates = (
100
);
};
layerId = "A2E76716-DACB-4D7E-BE25-71BBECA0766D";
name = "Jan 3, 24 at 09:18";
shapes = (
{
closed = 1;
nodes = (
(354,0,l),
(354,439,l),
(321,439,ls),
(271,439,o),
(254,461,o),
(254,501,cs),
(254,603,l),
(384,472,l),
(514,603,l),
(514,501,ls),
(514,461,o),
(497,439,o),
(447,439,cs),
(414,439,l),
(414,334,l),
(425,334,o),
(485,334,o),
(526,376,c),
(529,375,l),
(517,285,o),
(445,260,o),
(414,260,c),
(414,209,l),
(425,209,o),
(485,209,o),
(526,251,c),
(529,250,l),
(517,160,o),
(445,135,o),
(414,135,c),
(414,0,l),
(739,0,l),
(739,434,l),
(689,434,o),
(672,455,o),
(672,495,cs),
(672,566,ls),
(672,606,o),
(689,633,o),
(739,633,c),
(739,716,l),
(511,716,l),
(384,584,l),
(257,716,l),
(29,716,l),
(29,633,l),
(79,633,o),
(96,606,o),
(96,566,cs),
(96,495,ls),
(96,455,o),
(79,434,o),
(29,434,c),
(29,334,l),
(40,334,o),
(100,334,o),
(141,376,c),
(144,375,l),
(132,285,o),
(60,260,o),
(29,260,c),
(29,209,l),
(40,209,o),
(100,209,o),
(141,251,c),
(144,250,l),
(132,160,o),
(60,135,o),
(29,135,c),
(29,0,l)
);
}
);
width = 768;
}
);
metricLeft = H;
metricRight = H;
unicode = 77;
}
{
color = 5;
glyphname = N;
kernLeft = H;
kernRight = H;
layers = (
{
anchors = (
{
name = bottom;
pos = (347,0);
},
{
name = ogonek;
pos = (690,0);
},
{
name = top;
pos = (344,716);
},
{
name = topleft;
pos = (347,716);
}
);
guides = (
{
pos = (431,445);
}
);
layerId = m01;
shapes = (
{
closed = 1;
nodes = (
(322,0,l),
(322,439,l),
(274,439,o),
(252,461,o),
(252,501,cs),
(252,601,l),
(377,439,l),
(377,334,l),
(377,301,o),
(377,310,o),
(377,297,cs),
(377,296,ls),
(377,283,o),
(377,293,o),
(377,260,c),
(377,209,l),
(377,176,o),
(377,185,o),
(377,172,cs),
(377,171,ls),
(377,158,o),
(377,168,o),
(377,135,c),
(377,0,l),
(667,0,l),
(667,434,l),
(617,434,o),
(600,460,o),
(600,500,cs),
(600,564,ls),
(600,604,o),
(617,636,o),
(667,636,c),
(667,716,l),
(375,716,l),
(375,636,l),
(425,636,o),
(442,609,o),
(442,569,cs),
(442,480,l),
(261,716,l),
(29,716,l),
(29,636,l),
(82,636,o),
(99,607,o),
(99,567,cs),
(99,500,ls),
(99,457,o),
(90,434,o),
(29,434,c),
(29,334,l),
(29,301,o),
(29,310,o),
(29,297,cs),
(29,296,ls),
(29,283,o),
(29,293,o),
(29,260,c),
(29,209,l),
(29,176,o),
(29,185,o),
(29,172,cs),
(29,171,ls),
(29,158,o),
(29,168,o),
(29,135,c),
(29,0,l)
);
}
);
width = 696;
},
{
anchors = (
{
name = bottom;
pos = (347,0);
},
{
name = ogonek;
pos = (690,0);
},
{
name = top;
pos = (344,716);
},
{
name = topleft;
pos = (347,716);
}
);
associatedMasterId = m01;
attr = {
coordinates = (
50
);
};
guides = (
{
pos = (431,445);
}
);
layerId = "649DE68D-706A-4AC2-9576-BC8F6FA6FD14";
name = "Jan 3, 24 at 09:20";
shapes = (
{
closed = 1;
nodes = (
(322,0,l),
(322,439,l),
(274,439,o),
(252,461,o),
(252,501,cs),
(252,601,l),
(377,439,l),
(377,334,l),
(409,334,o),
(441,330,o),
(441,298,cs),
(441,296,ls),
(441,264,o),
(409,260,o),
(377,260,c),
(377,209,l),
(409,209,o),
(441,205,o),
(441,173,cs),
(441,171,ls),
(441,139,o),
(409,135,o),
(377,135,c),
(377,0,l),
(667,0,l),
(667,434,l),
(617,434,o),
(600,460,o),
(600,500,cs),
(600,564,ls),
(600,604,o),
(617,636,o),
(667,636,c),
(667,716,l),
(375,716,l),
(375,636,l),
(425,636,o),
(442,609,o),
(442,569,cs),
(442,480,l),
(261,716,l),
(29,716,l),
(29,636,l),
(82,636,o),
(99,607,o),
(99,567,cs),
(99,500,ls),
(99,457,o),
(90,434,o),
(29,434,c),
(29,334,l),
(61,334,o),
(93,330,o),
(93,298,cs),
(93,296,ls),
(93,264,o),
(61,260,o),
(29,260,c),
(29,209,l),
(61,209,o),
(93,205,o),
(93,173,cs),
(93,171,ls),
(93,139,o),
(61,135,o),
(29,135,c),
(29,0,l)
);
}
);
width = 696;
},
{
anchors = (
{
name = bottom;
pos = (347,0);
},
{
name = ogonek;
pos = (690,0);
},
{
name = top;
pos = (344,716);
},
{
name = topleft;
pos = (347,716);
}
);
associatedMasterId = m01;
attr = {
coordinates = (
100
);
};
guides = (
{
pos = (431,445);
}
);
layerId = "6F550414-8F4C-42E3-B452-DEF04292FB6C";
name = "Jan 3, 24 at 09:20";
shapes = (
{
closed = 1;
nodes = (
(322,0,l),
(322,439,l),
(274,439,o),
(252,461,o),
(252,501,cs),
(252,601,l),
(377,439,l),
(377,334,l),
(388,334,o),
(448,334,o),
(489,376,c),
(492,375,l),
(480,285,o),
(408,260,o),
(377,260,c),
(377,209,l),
(388,209,o),
(448,209,o),
(489,251,c),
(492,250,l),
(480,160,o),
(408,135,o),
(377,135,c),
(377,0,l),
(667,0,l),
(667,434,l),
(617,434,o),
(600,460,o),
(600,500,cs),
(600,564,ls),
(600,604,o),
(617,636,o),
(667,636,c),
(667,716,l),
(375,716,l),
(375,636,l),
(425,636,o),
(442,609,o),
(442,569,cs),
(442,480,l),
(261,716,l),
(29,716,l),
(29,636,l),
(82,636,o),
(99,607,o),
(99,567,cs),
(99,500,ls),
(99,457,o),
(90,434,o),
(29,434,c),
(29,334,l),
(40,334,o),
(100,334,o),
(141,376,c),
(144,375,l),
(132,285,o),
(60,260,o),
(29,260,c),
(29,209,l),
(40,209,o),
(100,209,o),
(141,251,c),
(144,250,l),
(132,160,o),
(60,135,o),
(29,135,c),
(29,0,l)
);
}
);
width = 696;
}
);
metricLeft = H;
metricRight = H;
unicode = 78;
}
{
color = 5;
glyphname = O;
kernLeft = O;
kernRight = O;
layers = (
{
anchors = (
{
name = bottom;
pos = (317,0);
},
{
name = center;
pos = (317,358);
},
{
name = horn;
pos = (548,642);
},
{
name = ogonek;
pos = (416,-6);
},
{
name = top;
pos = (317,716);
},
{
name = topleft;
pos = (20,716);
},
{
name = topright;
pos = (614,716);
}
);
layerId = m01;
shapes = (
{
closed = 1;
nodes = (
(416,-6,ls),
(509,-6,o),
(582,52,o),
(601,135,cs),
(603,144,o),
(605,158,o),
(605,171,cs),
(605,172,ls),
(605,185,o),
(605,176,o),
(605,209,cs),
(605,260,ls),
(605,293,o),
(605,283,o),
(605,296,cs),
(605,297,ls),
(605,310,o),
(605,301,o),
(605,334,cs),
(605,536,ls),
(605,643,o),
(525,722,o),
(416,722,cs),
(218,722,ls),
(109,722,o),
(29,642,o),
(29,536,cs),
(29,334,ls),
(29,301,o),
(29,310,o),
(29,297,cs),
(29,296,ls),
(29,283,o),
(29,293,o),
(29,260,cs),
(29,209,ls),
(29,175,o),
(29,184,o),
(29,171,cs),
(29,170,ls),
(29,161,o),
(31,144,o),
(33,135,cs),
(52,52,o),
(125,-6,o),
(218,-6,cs)
);
},
{
closed = 1;
nodes = (
(243,439,o),
(231,459,o),
(231,492,cs),
(231,569,ls),
(231,609,o),
(247,636,o),
(297,636,cs),
(337,636,ls),
(387,636,o),
(403,609,o),
(403,569,cs),
(403,492,ls),
(403,459,o),
(391,439,o),
(364,439,cs),
(347,439,o),
(325,449,o),
(321,501,c),
(313,501,l),
(309,449,o),
(287,439,o),
(270,439,cs)
);
}
);
width = 634;
},
{
anchors = (
{
name = bottom;
pos = (317,0);
},
{
name = center;
pos = (317,358);
},
{
name = horn;
pos = (548,642);
},
{
name = ogonek;
pos = (416,-6);
},
{
name = top;
pos = (317,716);
},
{
name = topleft;
pos = (20,716);
},
{
name = topright;
pos = (614,716);
}
);
associatedMasterId = m01;
attr = {
coordinates = (
50
);
};
layerId = "9716C9B4-6089-4943-A39F-67D9F2CCBF15";
name = "Jan 11, 24 at 10:22";
shapes = (
{
closed = 1;
nodes = (
(416,-6,ls),
(509,-6,o),
(582,52,o),
(601,135,c),
(570,135,o),
(541,140,o),
(541,171,cs),
(541,173,ls),
(541,205,o),
(573,209,o),
(605,209,c),
(605,260,l),
(573,260,o),
(541,264,o),
(541,296,cs),
(541,298,ls),
(541,330,o),
(573,334,o),
(605,334,c),
(605,536,ls),
(605,643,o),
(525,722,o),
(416,722,cs),
(218,722,ls),
(109,722,o),
(29,643,o),
(29,536,cs),
(29,334,l),
(61,334,o),
(93,330,o),
(93,298,cs),
(93,296,ls),
(93,264,o),
(61,260,o),
(29,260,c),
(29,209,l),
(61,209,o),
(93,205,o),
(93,173,cs),
(93,171,ls),
(93,140,o),
(64,135,o),
(33,135,c),
(52,52,o),
(125,-6,o),
(218,-6,cs)
);
},
{
closed = 1;
nodes = (
(243,439,o),
(231,459,o),
(231,492,cs),
(231,569,ls),
(231,609,o),
(247,636,o),
(297,636,cs),
(337,636,ls),
(387,636,o),
(403,609,o),
(403,569,cs),
(403,492,ls),
(403,459,o),
(391,439,o),
(364,439,cs),
(347,439,o),
(325,449,o),
(321,501,c),
(313,501,l),
(309,449,o),
(287,439,o),
(270,439,cs)
);
}
);
width = 634;
},
{
anchors = (
{
name = bottom;
pos = (317,0);
},
{
name = center;
pos = (317,358);
},
{
name = horn;
pos = (548,642);
},
{
name = ogonek;
pos = (416,-6);
},
{
name = top;
pos = (317,716);
},
{
name = topleft;
pos = (20,716);
},
{
name = topright;
pos = (614,716);
}
);
associatedMasterId = m01;
attr = {
coordinates = (
100
);
};
background = {
shapes = (
{
closed = 0;
nodes = (
(29,180,ls),
(29,73,o),
(109,-6,o),
(218,-6,cs),
(416,-6,ls),
(525,-6,o),
(605,73,o),
(605,180,cs)
);
}
);
};
layerId = "5697E2DC-1AEC-4DDF-AA18-0DC7816D9412";
name = "Jan 11, 24 at 10:22";
shapes = (
{
closed = 1;
nodes = (
(416,-6,ls),
(509,-6,o),
(582,52,o),
(601,135,c),
(568,137,o),
(502,164,o),
(490,250,c),
(493,251,l),
(534,209,o),
(594,209,o),
(605,209,c),
(605,260,l),
(574,260,o),
(502,285,o),
(490,375,c),
(493,376,l),
(534,334,o),
(594,334,o),
(605,334,c),
(605,536,ls),
(605,643,o),
(525,722,o),
(416,722,cs),
(218,722,ls),
(109,722,o),
(29,643,o),
(29,536,cs),
(29,334,l),
(40,334,o),
(100,334,o),
(141,376,c),
(144,375,l),
(132,285,o),
(60,260,o),
(29,260,c),
(29,209,l),
(40,209,o),
(100,209,o),
(141,251,c),
(144,250,l),
(132,164,o),
(66,137,o),
(33,135,c),
(52,52,o),
(125,-6,o),
(218,-6,cs)
);
},
{
closed = 1;
nodes = (
(243,439,o),
(231,459,o),
(231,492,cs),
(231,569,ls),
(231,609,o),
(247,636,o),
(297,636,cs),
(337,636,ls),
(387,636,o),
(403,609,o),
(403,569,cs),
(403,492,ls),
(403,459,o),
(391,439,o),
(364,439,cs),
(347,439,o),
(325,449,o),
(321,501,c),
(313,501,l),
(309,449,o),
(287,439,o),
(270,439,cs)
);
}
);
width = 634;
}
);
unicode = 79;
}
{
color = 5;
glyphname = Q;
kernLeft = O;
kernRight = Q;
layers = (
{
background = {
shapes = (
{
closed = 1;
nodes = (
(243,439,o),
(231,459,o),
(231,492,cs),
(231,569,ls),
(231,609,o),
(247,636,o),
(297,636,cs),
(337,636,ls),
(387,636,o),
(403,609,o),
(403,569,cs),
(403,492,ls),
(403,459,o),
(391,439,o),
(364,439,cs),
(347,439,o),
(325,449,o),
(321,501,c),
(313,501,l),
(309,449,o),
(287,439,o),
(270,439,cs)
);
},
{
closed = 1;
nodes = (
(35,168,o),
(9,159,o),
(9,172,cs),
(9,185,o),
(31,176,o),
(31,209,cs),
(31,260,ls),
(31,293,o),
(31,284,o),
(31,297,cs),
(31,310,o),
(31,301,o),
(31,334,cs),
(31,536,ls),
(31,643,o),
(111,722,o),
(220,722,cs),
(447,722,ls),
(556,722,o),
(607,677,o),
(607,581,cs),
(607,568,ls),
(607,508,o),
(584,475,o),
(535,467,cs),
(506,462,ls),
(487,459,o),
(474,448,o),
(474,434,c),
(645,434,l),
(645,334,ls),
(645,301,o),
(645,310,o),
(645,297,cs),
(645,284,o),
(645,293,o),
(645,260,cs),
(645,209,ls),
(645,176,o),
(645,185,o),
(645,172,cs),
(645,159,o),
(645,168,o),
(645,135,cs),
(645,0,l),
(571,0,ls),
(516,0,o),
(486,39,o),
(469,132,cs),
(458,195,o),
(441,217,o),
(402,217,c),
(402,155,ls),
(402,56,o),
(329,-6,o),
(213,-6,cs),
(113,-6,o),
(51,44,o),
(35,135,c)
);
}
);
};
layerId = m01;
shapes = (
{
closed = 1;
nodes = (
(329,-6,o),
(402,56,o),
(402,155,cs),
(402,217,l),
(441,217,o),
(458,195,o),
(469,132,cs),
(486,39,o),
(516,0,o),
(571,0,cs),
(645,0,l),
(645,135,ls),
(645,168,o),
(645,158,o),
(645,171,cs),
(645,172,ls),
(645,185,o),
(645,176,o),
(645,209,cs),
(645,260,ls),
(645,293,o),
(645,283,o),
(645,296,cs),
(645,297,ls),
(645,310,o),
(645,301,o),
(645,334,cs),
(645,434,l),
(474,434,l),
(474,448,o),
(487,459,o),
(506,462,cs),
(535,467,ls),
(584,475,o),
(607,508,o),
(607,568,cs),
(607,581,ls),
(607,677,o),
(556,722,o),
(447,722,cs),
(220,722,ls),
(111,722,o),
(31,643,o),
(31,536,cs),
(31,334,ls),
(31,301,o),
(31,310,o),
(31,297,cs),
(31,296,ls),
(31,283,o),
(31,293,o),
(31,260,cs),
(31,209,ls),
(31,189,o),
(31,186,o),
(31,180,cs),
(31,178,ls),
(31,167,o),
(33,148,o),
(35,135,cs),
(50,52,o),
(103,-6,o),
(213,-6,cs)
);
},
{
closed = 1;
nodes = (
(243,439,o),
(231,459,o),
(231,492,cs),
(231,569,ls),
(231,609,o),
(247,636,o),
(297,636,cs),
(337,636,ls),
(387,636,o),
(403,609,o),
(403,569,cs),
(403,492,ls),
(403,459,o),
(391,439,o),
(364,439,cs),
(347,439,o),
(325,449,o),
(321,501,c),
(313,501,l),
(309,449,o),
(287,439,o),
(270,439,cs)
);
}
);
width = 665;
},
{
associatedMasterId = m01;
attr = {
coordinates = (
50
);
};
background = {
shapes = (
{
pos = (-24,5);
ref = cutdetail.part;
},
{
closed = 1;
nodes = (
(329,-6,o),
(402,56,o),
(402,155,cs),
(402,217,l),
(441,217,o),
(458,195,o),
(469,132,cs),
(486,39,o),
(516,0,o),
(571,0,c),
(645,0,l),
(645,434,l),
(474,434,l),
(474,448,o),
(487,459,o),
(506,462,cs),
(535,467,ls),
(584,475,o),
(607,508,o),
(607,568,cs),
(607,581,ls),
(607,677,o),
(556,722,o),
(447,722,cs),
(220,722,ls),
(111,722,o),
(31,643,o),
(31,536,cs),
(31,186,ls),
(31,62,o),
(96,-6,o),
(213,-6,cs)
);
},
{
pos = (-24,5);
ref = cutdetail.part;
},
{
closed = 1;
nodes = (
(247,439,o),
(231,461,o),
(231,492,cs),
(231,569,ls),
(231,614,o),
(254,636,o),
(299,636,cs),
(339,636,ls),
(384,636,o),
(407,614,o),
(407,569,cs),
(407,492,ls),
(407,461,o),
(391,439,o),
(369,439,cs),
(269,439,ls)
);
}
);
};
layerId = "166BA00B-8D46-43B4-B862-B94E4194FF7F";
name = "Jan 22, 24 at 03:48";
shapes = (
{
closed = 1;
nodes = (
(329,-6,o),
(402,56,o),
(402,155,cs),
(402,217,l),
(441,217,o),
(458,195,o),
(469,132,cs),
(486,39,o),
(516,0,o),
(571,0,cs),
(645,0,l),
(645,135,l),
(613,135,o),
(581,139,o),
(581,171,cs),
(581,173,ls),
(581,205,o),
(613,209,o),
(645,209,c),
(645,260,l),
(613,260,o),
(581,264,o),
(581,296,cs),
(581,298,ls),
(581,330,o),
(613,334,o),
(645,334,c),
(645,434,l),
(474,434,l),
(474,448,o),
(487,459,o),
(506,462,cs),
(535,467,ls),
(584,475,o),
(607,508,o),
(607,568,cs),
(607,581,ls),
(607,677,o),
(556,722,o),
(447,722,cs),
(220,722,ls),
(111,722,o),
(31,643,o),
(31,536,cs),
(31,334,l),
(63,334,o),
(95,330,o),
(95,298,cs),
(95,296,ls),
(95,264,o),
(63,260,o),
(31,260,c),
(31,209,l),
(63,209,o),
(95,205,o),
(95,173,cs),
(95,171,ls),
(95,140,o),
(66,135,o),
(35,135,c),
(50,52,o),
(103,-6,o),
(213,-6,cs)
);
},
{
closed = 1;
nodes = (
(243,439,o),
(231,459,o),
(231,492,cs),
(231,569,ls),
(231,609,o),
(247,636,o),
(297,636,cs),
(337,636,ls),
(387,636,o),
(403,609,o),
(403,569,cs),
(403,492,ls),
(403,459,o),
(391,439,o),
(364,439,cs),
(347,439,o),
(325,449,o),
(321,501,c),
(313,501,l),
(309,449,o),
(287,439,o),
(270,439,cs)
);
}
);
width = 665;
},
{
associatedMasterId = m01;
attr = {
coordinates = (
100
);
};
background = {
shapes = (
{
pos = (-24,5);
ref = cutdetail.part;
},
{
closed = 1;
nodes = (
(329,-6,o),
(402,56,o),
(402,155,cs),
(402,217,l),
(441,217,o),
(458,195,o),
(469,132,cs),
(486,39,o),
(516,0,o),
(571,0,c),
(645,0,l),
(645,434,l),
(474,434,l),
(474,448,o),
(487,459,o),
(506,462,cs),
(535,467,ls),
(584,475,o),
(607,508,o),
(607,568,cs),
(607,581,ls),
(607,677,o),
(556,722,o),
(447,722,cs),
(220,722,ls),
(111,722,o),
(31,643,o),
(31,536,cs),
(31,186,ls),
(31,62,o),
(96,-6,o),
(213,-6,cs)
);
},
{
pos = (-24,5);
ref = cutdetail.part;
},
{
closed = 1;
nodes = (
(247,439,o),
(231,461,o),
(231,492,cs),
(231,569,ls),
(231,614,o),
(254,636,o),
(299,636,cs),
(339,636,ls),
(384,636,o),
(407,614,o),
(407,569,cs),
(407,492,ls),
(407,461,o),
(391,439,o),
(369,439,cs),
(269,439,ls)
);
}
);
};
layerId = "07E5ED7B-9073-4D63-8AE5-ACAEE08E666A";
name = "Jan 22, 24 at 03:48";
shapes = (
{
closed = 1;
nodes = (
(329,-6,o),
(402,56,o),
(402,155,cs),
(402,217,l),
(441,217,o),
(458,195,o),
(469,132,cs),
(486,39,o),
(516,0,o),
(571,0,cs),
(645,0,l),
(645,135,l),
(614,135,o),
(542,160,o),
(530,250,c),
(533,251,l),
(574,209,o),
(634,209,o),
(645,209,c),
(645,260,l),
(614,260,o),
(542,285,o),
(530,375,c),
(533,376,l),
(574,334,o),
(634,334,o),
(645,334,c),
(645,434,l),
(474,434,l),
(474,448,o),
(487,459,o),
(506,462,cs),
(535,467,ls),
(584,475,o),
(607,508,o),
(607,568,cs),
(607,581,ls),
(607,677,o),
(556,722,o),
(447,722,cs),
(220,722,ls),
(111,722,o),
(31,643,o),
(31,536,cs),
(31,334,l),
(42,334,o),
(102,334,o),
(143,376,c),
(146,375,l),
(134,285,o),
(62,260,o),
(31,260,c),
(31,209,l),
(42,209,o),
(102,209,o),
(143,251,c),
(146,250,l),
(135,165,o),
(69,138,o),
(35,135,c),
(50,52,o),
(103,-6,o),
(213,-6,cs)
);
},
{
closed = 1;
nodes = (
(243,439,o),
(231,459,o),
(231,492,cs),
(231,569,ls),
(231,609,o),
(247,636,o),
(297,636,cs),
(337,636,ls),
(387,636,o),
(403,609,o),
(403,569,cs),
(403,492,ls),
(403,459,o),
(391,439,o),
(364,439,cs),
(347,439,o),
(325,449,o),
(321,501,c),
(313,501,l),
(309,449,o),
(287,439,o),
(270,439,cs)
);
}
);
width = 665;
}
);
unicode = 81;
}
{
color = 5;
glyphname = R;
kernLeft = H;
kernRight = A;
layers = (
{
anchors = (
{
name = bottom;
pos = (351,0);
},
{
name = top;
pos = (311,716);
}
);
background = {
shapes = (
{
closed = 0;
nodes = (
(379,209,l),
(379,176,o),
(379,185,o),
(379,172,cs),
(379,159,o),
(379,168,o),
(379,135,c)
);
},
{
closed = 0;
nodes = (
(379,334,l),
(379,301,o),
(379,310,o),
(379,297,cs),
(379,284,o),
(379,293,o),
(379,260,c)
);
},
{
closed = 1;
nodes = (
(254,636,l),
(359,636,ls),
(387,636,o),
(400,622,o),
(400,604,cs),
(400,582,o),
(384,571,o),
(358,571,cs),
(254,571,l)
);
},
{
closed = 1;
nodes = (
(29,0,l),
(322,0,l),
(322,439,l),
(271,439,o),
(254,460,o),
(254,507,c),
(314,507,ls),
(359,507,o),
(379,478,o),
(379,434,cs),
(379,119,ls),
(379,46,o),
(407,-6,o),
(539,-6,cs),
(595,-6,o),
(651,-3,o),
(671,0,c),
(671,434,l),
(532,434,o),
(615,536,o),
(466,536,c),
(466,546,l),
(474,546,ls),
(511,546,o),
(589,560,o),
(589,628,cs),
(589,712,o),
(500,716,o),
(460,716,cs),
(29,716,l),
(29,636,l),
(79,636,o),
(96,609,o),
(96,569,cs),
(96,495,ls),
(96,455,o),
(79,434,o),
(29,434,c),
(29,334,ls),
(29,301,o),
(29,310,o),
(29,297,cs),
(29,284,o),
(29,293,o),
(29,260,cs),
(29,209,l),
(29,176,o),
(29,185,o),
(29,172,cs),
(29,159,o),
(29,168,o),
(29,135,cs)
);
}
);
};
layerId = m01;
shapes = (
{
closed = 1;
nodes = (
(595,-6,o),
(651,-3,o),
(671,0,c),
(671,434,l),
(532,434,o),
(615,536,o),
(466,536,c),
(466,546,l),
(474,546,ls),
(527,546,o),
(589,560,o),
(589,628,cs),
(589,712,o),
(500,716,o),
(460,716,cs),
(29,716,l),
(29,636,l),
(79,636,o),
(96,609,o),
(96,569,cs),
(96,495,ls),
(96,455,o),
(79,434,o),
(29,434,c),
(29,334,ls),
(29,301,o),
(29,310,o),
(29,297,cs),
(29,296,ls),
(29,283,o),
(29,293,o),
(29,260,cs),
(29,209,ls),
(29,176,o),
(29,185,o),
(29,172,cs),
(29,171,ls),
(29,158,o),
(29,168,o),
(29,135,cs),
(29,0,l),
(322,0,l),
(322,439,l),
(271,439,o),
(254,460,o),
(254,507,c),
(314,507,ls),
(359,507,o),
(379,478,o),
(379,434,cs),
(379,334,ls),
(379,301,o),
(379,310,o),
(379,297,cs),
(379,296,ls),
(379,283,o),
(379,293,o),
(379,260,cs),
(379,209,ls),
(379,176,o),
(379,185,o),
(379,172,cs),
(379,171,ls),
(379,158,o),
(379,168,o),
(379,135,cs),
(379,119,ls),
(379,46,o),
(407,-6,o),
(539,-6,cs)
);
},
{
closed = 1;
nodes = (
(254,636,l),
(359,636,ls),
(387,636,o),
(400,622,o),
(400,604,cs),
(400,582,o),
(384,571,o),
(359,571,cs),
(254,571,l)
);
}
);
width = 699;
},
{
anchors = (
{
name = bottom;
pos = (351,0);
},
{
name = top;
pos = (311,716);
}
);
associatedMasterId = m01;
attr = {
coordinates = (
50
);
};
layerId = "27BBC856-B6A8-4A04-A58D-5F243580B942";
name = "Jan 21, 24 at 08:01";
shapes = (
{
closed = 1;
nodes = (
(595,-6,o),
(651,-3,o),
(671,0,c),
(671,434,l),
(532,434,o),
(615,536,o),
(466,536,c),
(466,546,l),
(474,546,ls),
(511,546,o),
(589,560,o),
(589,628,cs),
(589,712,o),
(500,716,o),
(460,716,cs),
(29,716,l),
(29,636,l),
(79,636,o),
(96,609,o),
(96,569,cs),
(96,495,ls),
(96,455,o),
(79,434,o),
(29,434,c),
(29,334,l),
(61,334,o),
(93,330,o),
(93,298,cs),
(93,296,ls),
(93,264,o),
(61,260,o),
(29,260,c),
(29,209,l),
(61,209,o),
(93,205,o),
(93,173,cs),
(93,171,ls),
(93,139,o),
(61,135,o),
(29,135,c),
(29,0,l),
(322,0,l),
(322,439,l),
(271,439,o),
(254,460,o),
(254,507,c),
(314,507,ls),
(359,507,o),
(379,478,o),
(379,434,cs),
(379,334,l),
(411,334,o),
(443,330,o),
(443,298,cs),
(443,296,ls),
(443,264,o),
(411,260,o),
(379,260,c),
(379,209,l),
(411,209,o),
(443,205,o),
(443,173,cs),
(443,171,ls),
(443,139,o),
(411,135,o),
(379,135,c),
(379,119,ls),
(379,46,o),
(407,-6,o),
(539,-6,cs)
);
},
{
closed = 1;
nodes = (
(254,636,l),
(359,636,ls),
(387,636,o),
(400,622,o),
(400,604,cs),
(400,582,o),
(384,571,o),
(358,571,cs),
(254,571,l)
);
}
);
width = 699;
},
{
anchors = (
{
name = bottom;
pos = (351,0);
},
{
name = top;
pos = (311,716);
}
);
associatedMasterId = m01;
attr = {
coordinates = (
100
);
};
layerId = "86C0B193-9927-43E2-A367-D39AB548CC02";
name = "Jan 21, 24 at 08:01";
shapes = (
{
closed = 1;
nodes = (
(595,-6,o),
(651,-3,o),
(671,0,c),
(671,434,l),
(532,434,o),
(615,536,o),
(466,536,c),
(466,546,l),
(474,546,ls),
(511,546,o),
(589,560,o),
(589,628,cs),
(589,712,o),
(500,716,o),
(460,716,cs),
(29,716,l),
(29,636,l),
(79,636,o),
(96,609,o),
(96,569,cs),
(96,495,ls),
(96,455,o),
(79,434,o),
(29,434,c),
(29,334,l),
(40,334,o),
(100,334,o),
(141,376,c),
(144,375,l),
(132,285,o),
(60,260,o),
(29,260,c),
(29,209,l),
(40,209,o),
(100,209,o),
(141,251,c),
(144,250,l),
(132,160,o),
(60,135,o),
(29,135,c),
(29,0,l),
(322,0,l),
(322,439,l),
(271,439,o),
(254,460,o),
(254,507,c),
(314,507,ls),
(359,507,o),
(379,478,o),
(379,434,cs),
(379,334,l),
(390,334,o),
(450,334,o),
(491,376,c),
(494,375,l),
(482,285,o),
(410,260,o),
(379,260,c),
(379,209,l),
(390,209,o),
(450,209,o),
(491,251,c),
(494,250,l),
(482,160,o),
(410,135,o),
(379,135,c),
(379,119,l),
(379,46,o),
(407,-6,o),
(539,-6,cs)
);
},
{
closed = 1;
nodes = (
(254,636,l),
(359,636,ls),
(387,636,o),
(400,622,o),
(400,604,cs),
(400,582,o),
(384,571,o),
(358,571,cs),
(254,571,l)
);
}
);
width = 699;
}
);
metricLeft = H;
unicode = 82;
}
{
color = 5;
glyphname = S;
kernLeft = S;
kernRight = S;
layers = (
{
anchors = (
{
name = bottom;
pos = (314,0);
},
{
name = top;
pos = (305,716);
}
);
background = {
shapes = (
{
closed = 1;
nodes = (
(406,-6,ls),
(515,-6,o),
(595,71,o),
(595,178,cs),
(595,373,ls),
(595,502,o),
(531,552,o),
(366,567,cs),
(248,578,o),
(223,589,o),
(223,616,cs),
(223,632,o),
(242,646,o),
(279,646,cs),
(325,646,ls),
(368,646,o),
(392,626,o),
(392,597,c),
(566,597,l),
(566,674,o),
(508,722,o),
(415,722,cs),
(204,722,ls),
(96,722,o),
(39,685,o),
(39,616,cs),
(39,545,o),
(90,516,o),
(262,498,cs),
(379,486,o),
(400,476,o),
(400,454,cs),
(400,433,o),
(387,425,o),
(352,425,cs),
(265,425,ls),
(235,425,o),
(225,434,o),
(225,464,c),
(30,464,l),
(30,178,l),
(30,71,o),
(110,-6,o),
(219,-6,cs)
);
}
);
};
layerId = m01;
shapes = (
{
closed = 1;
nodes = (
(406,-6,ls),
(498,-6,o),
(576,55,o),
(591,135,cs),
(593,148,o),
(595,167,o),
(595,178,cs),
(595,180,ls),
(595,186,o),
(595,190,o),
(595,209,cs),
(595,260,ls),
(595,293,o),
(595,283,o),
(595,296,cs),
(595,297,ls),
(595,310,o),
(595,301,o),
(595,334,cs),
(595,373,ls),
(595,502,o),
(531,552,o),
(366,567,cs),
(248,578,o),
(223,589,o),
(223,616,cs),
(223,632,o),
(242,646,o),
(279,646,cs),
(325,646,ls),
(368,646,o),
(392,626,o),
(392,597,c),
(566,597,l),
(566,674,o),
(508,722,o),
(415,722,cs),
(204,722,ls),
(96,722,o),
(39,685,o),
(39,616,cs),
(39,545,o),
(90,516,o),
(262,498,cs),
(379,486,o),
(400,476,o),
(400,454,cs),
(400,433,o),
(387,425,o),
(352,425,cs),
(265,425,ls),
(235,425,o),
(225,434,o),
(225,464,c),
(30,464,l),
(30,334,ls),
(30,301,o),
(30,310,o),
(30,297,cs),
(30,296,ls),
(30,283,o),
(30,293,o),
(30,260,cs),
(30,209,ls),
(30,190,o),
(30,186,o),
(30,180,cs),
(30,178,ls),
(30,167,o),
(32,148,o),
(35,135,cs),
(53,51,o),
(125,-6,o),
(219,-6,cs)
);
}
);
width = 625;
},
{
anchors = (
{
name = bottom;
pos = (314,0);
},
{
name = top;
pos = (305,716);
}
);
associatedMasterId = m01;
attr = {
coordinates = (
50
);
};
layerId = "43F1EC70-1B8F-45E5-A45C-B5A70860EA6D";
name = "Jan 3, 24 at 09:56";
shapes = (
{
closed = 1;
nodes = (
(406,-6,ls),
(500,-6,o),
(572,51,o),
(590,135,c),
(560,135,o),
(531,141,o),
(531,171,cs),
(531,173,ls),
(531,205,o),
(563,209,o),
(595,209,c),
(595,260,l),
(563,260,o),
(531,264,o),
(531,296,cs),
(531,298,ls),
(531,330,o),
(563,334,o),
(595,334,c),
(595,373,ls),
(595,502,o),
(531,552,o),
(366,567,cs),
(248,578,o),
(223,589,o),
(223,616,cs),
(223,632,o),
(242,646,o),
(279,646,cs),
(325,646,ls),
(368,646,o),
(392,626,o),
(392,597,c),
(566,597,l),
(566,674,o),
(508,722,o),
(415,722,cs),
(204,722,ls),
(96,722,o),
(39,685,o),
(39,616,cs),
(39,545,o),
(90,516,o),
(262,498,cs),
(379,486,o),
(400,476,o),
(400,454,cs),
(400,433,o),
(387,425,o),
(352,425,cs),
(265,425,ls),
(235,425,o),
(225,434,o),
(225,464,c),
(30,464,l),
(30,334,l),
(62,334,o),
(94,330,o),
(94,298,cs),
(94,296,ls),
(94,264,o),
(62,260,o),
(30,260,c),
(30,209,l),
(62,209,o),
(94,205,o),
(94,173,cs),
(94,171,ls),
(94,141,o),
(65,135,o),
(35,135,c),
(53,51,o),
(125,-6,o),
(219,-6,cs)
);
}
);
width = 625;
},
{
anchors = (
{
name = bottom;
pos = (314,0);
},
{
name = top;
pos = (305,716);
}
);
associatedMasterId = m01;
attr = {
coordinates = (
100
);
};
layerId = "B0F74949-9ED6-436C-A6F6-F4FA5CCE2F01";
name = "Jan 3, 24 at 09:56";
shapes = (
{
closed = 1;
nodes = (
(406,-6,ls),
(500,-6,o),
(572,51,o),
(590,135,c),
(557,138,o),
(491,165,o),
(480,250,c),
(483,251,l),
(524,209,o),
(584,209,o),
(595,209,c),
(595,260,l),
(564,260,o),
(492,285,o),
(480,375,c),
(483,376,l),
(524,334,o),
(584,334,o),
(595,334,c),
(595,373,ls),
(595,502,o),
(531,552,o),
(366,567,cs),
(248,578,o),
(223,589,o),
(223,616,cs),
(223,632,o),
(242,646,o),
(279,646,cs),
(325,646,ls),
(368,646,o),
(392,626,o),
(392,597,c),
(566,597,l),
(566,674,o),
(508,722,o),
(415,722,cs),
(204,722,ls),
(96,722,o),
(39,685,o),
(39,616,cs),
(39,545,o),
(90,516,o),
(262,498,cs),
(379,486,o),
(400,476,o),
(400,454,cs),
(400,433,o),
(387,425,o),
(352,425,cs),
(265,425,ls),
(235,425,o),
(225,434,o),
(225,464,c),
(30,464,l),
(30,334,l),
(41,334,o),
(101,334,o),
(142,376,c),
(145,375,l),
(133,285,o),
(61,260,o),
(30,260,c),
(30,209,l),
(41,209,o),
(101,209,o),
(142,251,c),
(145,250,l),
(134,165,o),
(68,138,o),
(35,135,c),
(53,51,o),
(125,-6,o),
(219,-6,cs)
);
}
);
width = 625;
}
);
unicode = 83;
}
{
color = 5;
glyphname = U;
kernLeft = U;
kernRight = U;
layers = (
{
anchors = (
{
name = bottom;
pos = (340,0);
},
{
name = horn;
pos = (654,636);
},
{
name = ogonek;
pos = (654,0);
},
{
name = top;
pos = (347,716);
}
);
background = {
shapes = (
{
closed = 1;
nodes = (
(333,-6,ls),
(445,-6,o),
(492,38,o),
(492,141,cs),
(492,174,l),
(528,174,o),
(544,158,o),
(551,115,cs),
(570,0,l),
(654,0,l),
(654,434,l),
(609,434,o),
(587,455,o),
(587,500,cs),
(587,564,ls),
(587,611,o),
(610,636,o),
(654,636,c),
(654,716,l),
(377,716,l),
(377,631,l),
(418,631,o),
(439,608,o),
(439,564,cs),
(439,492,ls),
(439,460,o),
(423,439,o),
(398,439,cs),
(377,439,o),
(355,448,o),
(351,501,c),
(344,501,l),
(340,448,o),
(319,439,o),
(298,439,cs),
(273,439,o),
(257,460,o),
(257,492,cs),
(257,564,ls),
(257,608,o),
(278,631,o),
(319,631,c),
(319,716,l),
(32,716,l),
(32,636,l),
(76,636,o),
(99,611,o),
(99,564,cs),
(99,500,ls),
(99,455,o),
(77,434,o),
(32,434,c),
(32,186,ls),
(32,75,o),
(112,-6,o),
(221,-6,cs)
);
}
);
};
layerId = m01;
shapes = (
{
closed = 1;
nodes = (
(333,-6,ls),
(445,-6,o),
(492,38,o),
(492,141,cs),
(492,174,l),
(528,174,o),
(544,158,o),
(551,115,cs),
(570,0,l),
(654,0,l),
(654,260,ls),
(654,293,o),
(654,283,o),
(654,296,cs),
(654,297,ls),
(654,310,o),
(654,301,o),
(654,334,c),
(654,434,l),
(609,434,o),
(587,455,o),
(587,500,cs),
(587,564,ls),
(587,611,o),
(610,636,o),
(654,636,c),
(654,716,l),
(377,716,l),
(377,631,l),
(418,631,o),
(439,608,o),
(439,564,cs),
(439,492,ls),
(439,460,o),
(423,439,o),
(398,439,cs),
(377,439,o),
(355,448,o),
(351,501,c),
(344,501,l),
(340,448,o),
(319,439,o),
(298,439,cs),
(273,439,o),
(257,460,o),
(257,492,cs),
(257,564,ls),
(257,608,o),
(278,631,o),
(319,631,c),
(319,716,l),
(32,716,l),
(32,636,l),
(76,636,o),
(99,611,o),
(99,564,cs),
(99,500,ls),
(99,455,o),
(77,434,o),
(32,434,c),
(32,334,ls),
(32,301,o),
(32,310,o),
(32,297,cs),
(32,296,ls),
(32,283,o),
(32,293,o),
(32,260,cs),
(32,209,l),
(32,176,o),
(32,185,o),
(32,172,cs),
(32,171,ls),
(32,158,o),
(34,145,o),
(36,135,cs),
(55,52,o),
(128,-6,o),
(221,-6,cs)
);
}
);
width = 683;
},
{
anchors = (
{
name = bottom;
pos = (340,0);
},
{
name = horn;
pos = (654,636);
},
{
name = ogonek;
pos = (654,0);
},
{
name = top;
pos = (347,716);
}
);
associatedMasterId = m01;
attr = {
coordinates = (
50
);
};
background = {
shapes = (
{
closed = 1;
nodes = (
(333,-6,ls),
(445,-6,o),
(492,38,o),
(492,141,cs),
(492,174,l),
(528,174,o),
(544,158,o),
(551,115,cs),
(570,0,l),
(654,0,l),
(654,434,l),
(609,434,o),
(587,455,o),
(587,500,cs),
(587,564,ls),
(587,611,o),
(610,636,o),
(654,636,c),
(654,716,l),
(377,716,l),
(377,631,l),
(418,631,o),
(439,608,o),
(439,564,cs),
(439,492,ls),
(439,460,o),
(423,439,o),
(398,439,cs),
(377,439,o),
(355,448,o),
(351,501,c),
(344,501,l),
(340,448,o),
(319,439,o),
(298,439,cs),
(273,439,o),
(257,460,o),
(257,492,cs),
(257,564,ls),
(257,608,o),
(278,631,o),
(319,631,c),
(319,716,l),
(32,716,l),
(32,636,l),
(76,636,o),
(99,611,o),
(99,564,cs),
(99,500,ls),
(99,455,o),
(77,434,o),
(32,434,c),
(32,186,ls),
(32,75,o),
(112,-6,o),
(221,-6,cs)
);
}
);
};
layerId = "C0F1E33B-7AC7-47A4-A43A-6D39B7782248";
name = "{50} Jan 22, 24 at 06:23";
shapes = (
{
closed = 1;
nodes = (
(333,-6,ls),
(445,-6,o),
(492,38,o),
(492,141,cs),
(492,174,l),
(528,174,o),
(544,158,o),
(551,115,cs),
(570,0,l),
(654,0,l),
(654,260,l),
(622,260,o),
(590,264,o),
(590,296,cs),
(590,298,ls),
(590,330,o),
(622,334,o),
(654,334,c),
(654,434,l),
(609,434,o),
(587,455,o),
(587,500,cs),
(587,564,ls),
(587,611,o),
(610,636,o),
(654,636,c),
(654,716,l),
(377,716,l),
(377,631,l),
(418,631,o),
(439,608,o),
(439,564,cs),
(439,492,ls),
(439,460,o),
(423,439,o),
(398,439,cs),
(377,439,o),
(355,448,o),
(351,501,c),
(344,501,l),
(340,448,o),
(319,439,o),
(298,439,cs),
(273,439,o),
(257,460,o),
(257,492,cs),
(257,564,ls),
(257,608,o),
(278,631,o),
(319,631,c),
(319,716,l),
(32,716,l),
(32,636,l),
(76,636,o),
(99,611,o),
(99,564,cs),
(99,500,ls),
(99,455,o),
(77,434,o),
(32,434,c),
(32,334,l),
(64,334,o),
(96,330,o),
(96,298,cs),
(96,296,ls),
(96,264,o),
(64,260,o),
(32,260,c),
(32,209,l),
(64,209,o),
(96,205,o),
(96,173,cs),
(96,171,ls),
(96,140,o),
(67,135,o),
(36,135,c),
(55,52,o),
(128,-6,o),
(221,-6,cs)
);
}
);
width = 683;
},
{
anchors = (
{
name = bottom;
pos = (340,0);
},
{
name = horn;
pos = (654,636);
},
{
name = ogonek;
pos = (654,0);
},
{
name = top;
pos = (347,716);
}
);
associatedMasterId = m01;
attr = {
coordinates = (
100
);
};
background = {
shapes = (
{
closed = 1;
nodes = (
(333,-6,ls),
(445,-6,o),
(492,38,o),
(492,141,cs),
(492,174,l),
(528,174,o),
(544,158,o),
(551,115,cs),
(570,0,l),
(654,0,l),
(654,434,l),
(609,434,o),
(587,455,o),
(587,500,cs),
(587,564,ls),
(587,611,o),
(610,636,o),
(654,636,c),
(654,716,l),
(377,716,l),
(377,631,l),
(418,631,o),
(439,608,o),
(439,564,cs),
(439,492,ls),
(439,460,o),
(423,439,o),
(398,439,cs),
(377,439,o),
(355,448,o),
(351,501,c),
(344,501,l),
(340,448,o),
(319,439,o),
(298,439,cs),
(273,439,o),
(257,460,o),
(257,492,cs),
(257,564,ls),
(257,608,o),
(278,631,o),
(319,631,c),
(319,716,l),
(32,716,l),
(32,636,l),
(76,636,o),
(99,611,o),
(99,564,cs),
(99,500,ls),
(99,455,o),
(77,434,o),
(32,434,c),
(32,186,ls),
(32,75,o),
(112,-6,o),
(221,-6,cs)
);
}
);
};
layerId = "05827C93-A143-46A6-A090-7D80B7AB3EA1";
name = "Jan 22, 24 at 06:19";
shapes = (
{
closed = 1;
nodes = (
(333,-6,ls),
(445,-6,o),
(492,38,o),
(492,141,cs),
(492,174,l),
(528,174,o),
(544,158,o),
(551,115,cs),
(570,0,l),
(654,0,l),
(654,260,l),
(623,260,o),
(551,285,o),
(539,375,c),
(542,376,l),
(583,334,o),
(643,334,o),
(654,334,c),
(654,434,l),
(609,434,o),
(587,455,o),
(587,500,cs),
(587,564,ls),
(587,611,o),
(610,636,o),
(654,636,c),
(654,716,l),
(377,716,l),
(377,631,l),
(418,631,o),
(439,608,o),
(439,564,cs),
(439,492,ls),
(439,460,o),
(423,439,o),
(398,439,cs),
(377,439,o),
(355,448,o),
(351,501,c),
(344,501,l),
(340,448,o),
(319,439,o),
(298,439,cs),
(273,439,o),
(257,460,o),
(257,492,cs),
(257,564,ls),
(257,608,o),
(278,631,o),
(319,631,c),
(319,716,l),
(32,716,l),
(32,636,l),
(76,636,o),
(99,611,o),
(99,564,cs),
(99,500,ls),
(99,455,o),
(77,434,o),
(32,434,c),
(32,334,l),
(43,334,o),
(103,334,o),
(144,376,c),
(147,375,l),
(135,285,o),
(63,260,o),
(32,260,c),
(32,209,l),
(43,209,o),
(103,209,o),
(144,251,c),
(147,250,l),
(135,164,o),
(69,137,o),
(36,135,c),
(55,52,o),
(128,-6,o),
(221,-6,cs)
);
}
);
width = 683;
}
);
metricRight = H;
unicode = 85;
}
{
color = 5;
glyphname = V;
kernLeft = V;
kernRight = V;
layers = (
{
anchors = (
{
name = bottom;
pos = (300,0);
},
{
name = top;
pos = (330,716);
}
);
background = {
shapes = (
{
closed = 1;
nodes = (
(476,0,l),
(559,434,l),
(500,434,o),
(469,453,o),
(469,490,cs),
(469,505,o),
(475,523,o),
(486,543,cs),
(509,584,ls),
(531,623,o),
(553,636,o),
(599,636,c),
(599,716,l),
(375,716,l),
(375,631,l),
(409,631,o),
(428,617,o),
(428,596,cs),
(428,587,o),
(424,576,o),
(417,565,cs),
(348,452,l),
(346,452,l),
(276,564,ls),
(268,576,o),
(265,587,o),
(265,597,cs),
(265,618,o),
(283,631,o),
(317,631,c),
(317,716,l),
(0,716,l),
(0,636,l),
(10,636,ls),
(48,636,o),
(82,611,o),
(100,571,cs),
(123,519,ls),
(127,510,o),
(129,502,o),
(129,494,cs),
(129,460,o),
(95,434,o),
(44,434,c),
(127,0,l)
);
}
);
};
layerId = m01;
shapes = (
{
closed = 1;
nodes = (
(476,0,l),
(559,434,l),
(500,434,o),
(469,453,o),
(469,490,cs),
(469,505,o),
(475,523,o),
(486,543,cs),
(509,584,ls),
(531,623,o),
(553,636,o),
(599,636,c),
(599,716,l),
(375,716,l),
(375,631,l),
(409,631,o),
(428,617,o),
(428,596,cs),
(428,587,o),
(424,576,o),
(417,565,cs),
(348,452,l),
(346,452,l),
(276,564,ls),
(268,576,o),
(265,587,o),
(265,597,cs),
(265,618,o),
(283,631,o),
(317,631,c),
(317,716,l),
(0,716,l),
(0,636,l),
(10,636,ls),
(48,636,o),
(82,611,o),
(100,571,cs),
(123,519,ls),
(127,510,o),
(129,502,o),
(129,494,cs),
(129,460,o),
(95,434,o),
(44,434,c),
(63,334,ls),
(65,323,o),
(67,313,o),
(69,302,cs),
(71,292,ls),
(73,281,o),
(75,271,o),
(77,260,cs),
(87,209,ls),
(89,200,o),
(90,192,o),
(92,183,cs),
(95,167,ls),
(97,156,o),
(99,146,o),
(101,135,cs),
(127,0,l)
);
}
);
width = 599;
},
{
anchors = (
{
name = bottom;
pos = (300,0);
},
{
name = top;
pos = (330,716);
}
);
associatedMasterId = m01;
attr = {
coordinates = (
50
);
};
background = {
shapes = (
{
closed = 1;
nodes = (
(476,0,l),
(559,434,l),
(476,433,o),
(448,474,o),
(486,543,cs),
(509,584,ls),
(533,624,o),
(553,636,o),
(599,636,c),
(599,716,l),
(375,716,l),
(375,631,l),
(423,631,o),
(441,603,o),
(417,565,cs),
(348,452,l),
(346,452,l),
(276,564,ls),
(251,604,o),
(268,631,o),
(317,631,c),
(317,716,l),
(0,716,l),
(0,636,l),
(10,636,ls),
(48,636,o),
(83,611,o),
(100,571,cs),
(123,519,ls),
(143,473,o),
(107,434,o),
(44,434,c),
(127,0,l)
);
}
);
};
layerId = "1DB88667-149B-444E-AC28-FF461DE9F76B";
name = "Jan 18, 24 at 10:54";
shapes = (
{
closed = 1;
nodes = (
(476,0,l),
(559,434,l),
(500,434,o),
(469,453,o),
(469,490,cs),
(469,505,o),
(475,523,o),
(486,543,cs),
(509,584,ls),
(531,623,o),
(553,636,o),
(599,636,c),
(599,716,l),
(375,716,l),
(375,631,l),
(409,631,o),
(428,617,o),
(428,596,cs),
(428,587,o),
(424,576,o),
(417,565,cs),
(348,452,l),
(346,452,l),
(276,564,ls),
(268,576,o),
(265,587,o),
(265,597,cs),
(265,618,o),
(283,631,o),
(317,631,c),
(317,716,l),
(0,716,l),
(0,636,l),
(10,636,ls),
(48,636,o),
(82,611,o),
(100,571,cs),
(123,519,ls),
(127,510,o),
(129,502,o),
(129,494,cs),
(129,460,o),
(95,434,o),
(44,434,c),
(63,334,l),
(103,334,o),
(135,330,o),
(135,298,cs),
(135,296,ls),
(135,264,o),
(103,260,o),
(77,260,c),
(87,209,l),
(127,209,o),
(159,205,o),
(159,173,cs),
(159,171,ls),
(159,139,o),
(127,135,o),
(101,135,c),
(127,0,l)
);
}
);
width = 599;
},
{
anchors = (
{
name = bottom;
pos = (300,0);
},
{
name = top;
pos = (330,716);
}
);
associatedMasterId = m01;
attr = {
coordinates = (
100
);
};
background = {
shapes = (
{
closed = 1;
nodes = (
(476,0,l),
(559,434,l),
(476,433,o),
(448,474,o),
(486,543,cs),
(509,584,ls),
(533,624,o),
(553,636,o),
(599,636,c),
(599,716,l),
(375,716,l),
(375,631,l),
(423,631,o),
(441,603,o),
(417,565,cs),
(348,452,l),
(346,452,l),
(276,564,ls),
(251,604,o),
(268,631,o),
(317,631,c),
(317,716,l),
(0,716,l),
(0,636,l),
(10,636,ls),
(48,636,o),
(83,611,o),
(100,571,cs),
(123,519,ls),
(143,473,o),
(107,434,o),
(44,434,c),
(127,0,l)
);
}
);
};
layerId = "0986C327-5D29-4231-8068-34A564C6C09A";
name = "Jan 18, 24 at 10:54";
shapes = (
{
closed = 1;
nodes = (
(476,0,l),
(559,434,l),
(500,434,o),
(469,453,o),
(469,490,cs),
(469,505,o),
(475,523,o),
(486,543,cs),
(509,584,ls),
(531,623,o),
(553,636,o),
(599,636,c),
(599,716,l),
(375,716,l),
(375,631,l),
(409,631,o),
(428,617,o),
(428,596,cs),
(428,587,o),
(424,576,o),
(417,565,cs),
(348,452,l),
(346,452,l),
(276,564,ls),
(268,576,o),
(265,587,o),
(265,597,cs),
(265,618,o),
(283,631,o),
(317,631,c),
(317,716,l),
(0,716,l),
(0,636,l),
(10,636,ls),
(48,636,o),
(82,611,o),
(100,571,cs),
(123,519,ls),
(127,510,o),
(129,502,o),
(129,494,cs),
(129,460,o),
(95,434,o),
(44,434,c),
(63,334,l),
(82,334,o),
(142,334,o),
(183,376,c),
(186,375,l),
(174,285,o),
(102,260,o),
(77,260,c),
(87,209,l),
(103,209,o),
(163,209,o),
(204,251,c),
(207,250,l),
(195,160,o),
(133,135,o),
(101,135,c),
(127,0,l)
);
}
);
width = 599;
}
);
unicode = 86;
}
{
color = 5;
glyphname = X;
kernLeft = H;
kernRight = H;
layers = (
{
anchors = (
{
name = bottom;
pos = (347,0);
},
{
name = top;
pos = (363,716);
}
);
background = {
shapes = (
{
closed = 1;
nodes = (
(662,0,l),
(662,434,l),
(643,434,ls),
(629,434,o),
(607,440,o),
(588,451,cs),
(310,614,ls),
(301,619,o),
(301,631,o),
(311,631,cs),
(332,631,l),
(332,716,l),
(31,716,l),
(31,636,l),
(42,636,l),
(64,636,o),
(100,615,o),
(111,608,cs),
(378,452,ls),
(391,444,o),
(385,434,o),
(372,434,cs),
(354,434,l),
(354,0,l)
);
},
{
closed = 1;
nodes = (
(304,0,l),
(304,436,l),
(270,436,ls),
(253,436,o),
(254,450,o),
(267,458,cs),
(380,530,l),
(252,530,l),
(114,447,ls),
(97,437,o),
(69,434,o),
(33,434,c),
(33,0,l)
);
},
{
closed = 1;
nodes = (
(427,540,l),
(565,619,ls),
(583,629,o),
(601,635,o),
(631,636,c),
(645,636,l),
(645,716,l),
(382,716,l),
(382,631,l),
(402,631,ls),
(424,631,o),
(421,615,o),
(407,607,cs),
(286,540,l)
);
}
);
};
layerId = m01;
shapes = (
{
closed = 1;
nodes = (
(294,0,l),
(294,439,l),
(262,439,ls),
(254,439,o),
(250,443,o),
(250,448,cs),
(250,452,o),
(252,455,o),
(257,458,cs),
(309,489,l),
(368,459,ls),
(375,455,o),
(379,450,o),
(379,447,cs),
(379,442,o),
(374,439,o),
(366,439,cs),
(349,439,l),
(349,334,ls),
(349,301,o),
(349,310,o),
(349,297,cs),
(349,296,ls),
(349,283,o),
(349,293,o),
(349,260,cs),
(349,209,ls),
(349,176,o),
(349,185,o),
(349,172,cs),
(349,171,ls),
(349,158,o),
(349,168,o),
(349,135,cs),
(349,0,l),
(666,0,l),
(666,434,l),
(647,434,ls),
(632,434,o),
(610,441,o),
(592,451,cs),
(437,542,l),
(437,544,l),
(569,619,ls),
(591,631,o),
(610,636,o),
(635,636,cs),
(649,636,l),
(649,716,l),
(392,716,l),
(392,631,l),
(406,631,ls),
(417,631,o),
(423,626,o),
(423,620,cs),
(423,616,o),
(420,612,o),
(414,609,cs),
(367,583,l),
(317,612,ls),
(311,616,o),
(308,620,o),
(308,624,cs),
(308,628,o),
(311,631,o),
(317,631,cs),
(337,631,l),
(337,716,l),
(27,716,l),
(27,636,l),
(43,636,ls),
(61,636,o),
(80,629,o),
(114,608,cs),
(241,529,l),
(241,527,l),
(108,447,ls),
(92,438,o),
(69,434,o),
(27,434,c),
(27,334,ls),
(27,301,o),
(27,310,o),
(27,297,cs),
(27,296,ls),
(27,283,o),
(27,293,o),
(27,260,cs),
(27,209,ls),
(27,176,o),
(27,185,o),
(27,172,cs),
(27,171,ls),
(27,158,o),
(27,168,o),
(27,135,cs),
(27,0,l)
);
}
);
width = 693;
},
{
anchors = (
{
name = bottom;
pos = (347,0);
},
{
name = top;
pos = (363,716);
}
);
associatedMasterId = m01;
attr = {
coordinates = (
50
);
};
background = {
shapes = (
{
closed = 1;
nodes = (
(662,0,l),
(662,434,l),
(643,434,ls),
(629,434,o),
(607,440,o),
(588,451,cs),
(310,614,ls),
(301,619,o),
(301,631,o),
(311,631,cs),
(332,631,l),
(332,716,l),
(31,716,l),
(31,636,l),
(42,636,l),
(64,636,o),
(100,615,o),
(111,608,cs),
(378,452,ls),
(391,444,o),
(385,434,o),
(372,434,cs),
(354,434,l),
(354,0,l)
);
},
{
closed = 1;
nodes = (
(304,0,l),
(304,436,l),
(270,436,ls),
(253,436,o),
(254,450,o),
(267,458,cs),
(380,530,l),
(252,530,l),
(114,447,ls),
(97,437,o),
(69,434,o),
(33,434,c),
(33,0,l)
);
},
{
closed = 1;
nodes = (
(427,540,l),
(565,619,ls),
(583,629,o),
(601,635,o),
(631,636,c),
(645,636,l),
(645,716,l),
(382,716,l),
(382,631,l),
(402,631,ls),
(424,631,o),
(421,615,o),
(407,607,cs),
(286,540,l)
);
}
);
};
layerId = "F3378D09-A2D8-4045-BE38-B2A1351F66D1";
name = "Jan 18, 24 at 10:56";
shapes = (
{
closed = 1;
nodes = (
(294,0,l),
(294,439,l),
(262,439,ls),
(254,439,o),
(250,443,o),
(250,448,cs),
(250,452,o),
(252,455,o),
(257,458,cs),
(309,489,l),
(368,459,ls),
(375,455,o),
(379,450,o),
(379,447,cs),
(379,442,o),
(374,439,o),
(366,439,cs),
(349,439,l),
(349,334,l),
(381,334,o),
(413,330,o),
(413,298,cs),
(413,296,ls),
(413,264,o),
(381,260,o),
(349,260,c),
(349,209,l),
(381,209,o),
(413,205,o),
(413,173,cs),
(413,171,ls),
(413,139,o),
(381,135,o),
(349,135,c),
(349,0,l),
(666,0,l),
(666,434,l),
(647,434,ls),
(632,434,o),
(610,441,o),
(592,451,cs),
(437,542,l),
(437,544,l),
(569,619,ls),
(591,631,o),
(610,636,o),
(635,636,cs),
(649,636,l),
(649,716,l),
(392,716,l),
(392,631,l),
(406,631,ls),
(417,631,o),
(423,626,o),
(423,620,cs),
(423,616,o),
(420,612,o),
(414,609,cs),
(367,583,l),
(317,612,ls),
(311,616,o),
(308,620,o),
(308,624,cs),
(308,628,o),
(311,631,o),
(317,631,cs),
(337,631,l),
(337,716,l),
(27,716,l),
(27,636,l),
(43,636,ls),
(61,636,o),
(80,629,o),
(114,608,cs),
(241,529,l),
(241,527,l),
(108,447,ls),
(92,438,o),
(69,434,o),
(27,434,c),
(27,334,l),
(59,334,o),
(91,330,o),
(91,298,cs),
(91,296,ls),
(91,264,o),
(59,260,o),
(27,260,c),
(27,209,l),
(59,209,o),
(91,205,o),
(91,173,cs),
(91,171,ls),
(91,139,o),
(59,135,o),
(27,135,c),
(27,0,l)
);
}
);
width = 693;
},
{
anchors = (
{
name = bottom;
pos = (347,0);
},
{
name = top;
pos = (363,716);
}
);
associatedMasterId = m01;
attr = {
coordinates = (
100
);
};
background = {
shapes = (
{
closed = 1;
nodes = (
(662,0,l),
(662,434,l),
(643,434,ls),
(629,434,o),
(607,440,o),
(588,451,cs),
(310,614,ls),
(301,619,o),
(301,631,o),
(311,631,cs),
(332,631,l),
(332,716,l),
(31,716,l),
(31,636,l),
(42,636,l),
(64,636,o),
(100,615,o),
(111,608,cs),
(378,452,ls),
(391,444,o),
(385,434,o),
(372,434,cs),
(354,434,l),
(354,0,l)
);
},
{
closed = 1;
nodes = (
(304,0,l),
(304,436,l),
(270,436,ls),
(253,436,o),
(254,450,o),
(267,458,cs),
(380,530,l),
(252,530,l),
(114,447,ls),
(97,437,o),
(69,434,o),
(33,434,c),
(33,0,l)
);
},
{
closed = 1;
nodes = (
(427,540,l),
(565,619,ls),
(583,629,o),
(601,635,o),
(631,636,c),
(645,636,l),
(645,716,l),
(382,716,l),
(382,631,l),
(402,631,ls),
(424,631,o),
(421,615,o),
(407,607,cs),
(286,540,l)
);
}
);
};
layerId = "C7F06F8C-13C8-4CFF-BC53-C31A9D5BB776";
name = "Jan 18, 24 at 10:56";
shapes = (
{
closed = 1;
nodes = (
(294,0,l),
(294,439,l),
(262,439,ls),
(254,439,o),
(250,443,o),
(250,448,cs),
(250,452,o),
(252,455,o),
(257,458,cs),
(309,489,l),
(368,459,ls),
(375,455,o),
(379,450,o),
(379,447,cs),
(379,442,o),
(374,439,o),
(366,439,cs),
(349,439,l),
(349,334,l),
(360,334,o),
(420,334,o),
(461,376,c),
(464,375,l),
(452,285,o),
(380,260,o),
(349,260,c),
(349,209,l),
(360,209,o),
(420,209,o),
(461,251,c),
(464,250,l),
(452,160,o),
(380,135,o),
(349,135,c),
(349,0,l),
(666,0,l),
(666,434,l),
(647,434,ls),
(632,434,o),
(610,441,o),
(592,451,cs),
(437,542,l),
(437,544,l),
(569,619,ls),
(591,631,o),
(610,636,o),
(635,636,cs),
(649,636,l),
(649,716,l),
(392,716,l),
(392,631,l),
(406,631,ls),
(417,631,o),
(423,626,o),
(423,620,cs),
(423,616,o),
(420,612,o),
(414,609,cs),
(367,583,l),
(317,612,ls),
(311,616,o),
(308,620,o),
(308,624,cs),
(308,628,o),
(311,631,o),
(317,631,cs),
(337,631,l),
(337,716,l),
(27,716,l),
(27,636,l),
(43,636,ls),
(61,636,o),
(80,629,o),
(114,608,cs),
(241,529,l),
(241,527,l),
(108,447,ls),
(92,438,o),
(69,434,o),
(27,434,c),
(27,334,l),
(38,334,o),
(98,334,o),
(139,376,c),
(142,375,l),
(130,285,o),
(58,260,o),
(27,260,c),
(27,209,l),
(38,209,o),
(98,209,o),
(139,251,c),
(142,250,l),
(130,160,o),
(58,135,o),
(27,135,c),
(27,0,l)
);
}
);
width = 693;
}
);
unicode = 88;
}
{
color = 5;
glyphname = Y;
kernLeft = Y;
kernRight = Y;
layers = (
{
anchors = (
{
name = bottom;
pos = (345,0);
},
{
name = hook;
pos = (609,636);
},
{
name = top;
pos = (335,716);
},
{
name = topleft;
pos = (24,716);
}
);
background = {
shapes = (
{
closed = 1;
nodes = (
(460,0,ls),
(569,0,o),
(649,79,o),
(649,186,cs),
(649,434,l),
(599,434,o),
(582,460,o),
(582,500,cs),
(582,564,ls),
(582,604,o),
(599,636,o),
(649,636,c),
(649,716,l),
(361,716,l),
(361,631,l),
(401,631,o),
(421,610,o),
(421,575,cs),
(421,488,ls),
(421,464,o),
(393,439,o),
(357,439,cs),
(29,439,l),
(29,0,l)
);
},
{
closed = 1;
nodes = (
(474,560,l),
(262,578,l),
(262,613,o),
(278,631,o),
(308,631,c),
(308,716,l),
(29,716,l),
(29,636,l),
(80,636,o),
(98,607,o),
(98,567,cs),
(98,518,l),
(474,486,l)
);
}
);
};
layerId = m01;
shapes = (
{
closed = 1;
nodes = (
(460,0,ls),
(553,0,o),
(626,52,o),
(645,135,cs),
(647,145,o),
(649,158,o),
(649,171,cs),
(649,172,ls),
(649,185,o),
(649,176,o),
(649,209,c),
(649,260,ls),
(649,293,o),
(649,283,o),
(649,296,cs),
(649,297,ls),
(649,310,o),
(649,301,o),
(649,334,cs),
(649,434,l),
(599,434,o),
(582,460,o),
(582,500,cs),
(582,564,ls),
(582,604,o),
(599,636,o),
(649,636,c),
(649,716,l),
(361,716,l),
(361,631,l),
(401,631,o),
(421,613,o),
(421,565,c),
(262,578,l),
(262,613,o),
(278,631,o),
(308,631,c),
(308,716,l),
(29,716,l),
(29,636,l),
(80,636,o),
(98,607,o),
(98,567,cs),
(98,518,l),
(421,491,l),
(421,464,o),
(393,439,o),
(357,439,cs),
(35,439,l),
(35,334,ls),
(35,301,o),
(35,310,o),
(35,297,cs),
(35,296,ls),
(35,283,o),
(35,293,o),
(35,260,cs),
(35,209,ls),
(35,176,o),
(35,185,o),
(35,172,cs),
(35,171,ls),
(35,158,o),
(35,168,o),
(35,135,cs),
(35,0,l)
);
}
);
width = 685;
},
{
anchors = (
{
name = bottom;
pos = (345,0);
},
{
name = hook;
pos = (609,636);
},
{
name = top;
pos = (335,716);
},
{
name = topleft;
pos = (24,716);
}
);
associatedMasterId = m01;
attr = {
coordinates = (
50
);
};
background = {
shapes = (
{
closed = 1;
nodes = (
(460,0,ls),
(569,0,o),
(649,79,o),
(649,186,cs),
(649,434,l),
(599,434,o),
(582,460,o),
(582,500,cs),
(582,564,ls),
(582,604,o),
(599,636,o),
(649,636,c),
(649,716,l),
(361,716,l),
(361,631,l),
(401,631,o),
(421,610,o),
(421,575,cs),
(421,488,ls),
(421,464,o),
(393,439,o),
(357,439,cs),
(29,439,l),
(29,0,l)
);
},
{
closed = 1;
nodes = (
(474,560,l),
(262,578,l),
(262,613,o),
(278,631,o),
(308,631,c),
(308,716,l),
(29,716,l),
(29,636,l),
(80,636,o),
(98,607,o),
(98,567,cs),
(98,518,l),
(474,486,l)
);
}
);
};
layerId = "87706B03-D88A-42F7-85FE-34CDAB6C5937";
name = "Jan 3, 24 at 10:59";
shapes = (
{
closed = 1;
nodes = (
(460,0,ls),
(553,0,o),
(626,52,o),
(645,135,c),
(614,135,o),
(585,140,o),
(585,171,cs),
(585,173,ls),
(585,205,o),
(617,209,o),
(649,209,c),
(649,260,l),
(617,260,o),
(585,264,o),
(585,296,cs),
(585,298,ls),
(585,330,o),
(617,334,o),
(649,334,c),
(649,434,l),
(599,434,o),
(582,460,o),
(582,500,cs),
(582,564,ls),
(582,604,o),
(599,636,o),
(649,636,c),
(649,716,l),
(361,716,l),
(361,631,l),
(401,631,o),
(421,613,o),
(421,565,c),
(262,578,l),
(262,613,o),
(278,631,o),
(308,631,c),
(308,716,l),
(29,716,l),
(29,636,l),
(80,636,o),
(98,607,o),
(98,567,cs),
(98,518,l),
(421,491,l),
(421,464,o),
(393,439,o),
(357,439,cs),
(35,439,l),
(35,334,l),
(67,334,o),
(99,330,o),
(99,298,cs),
(99,296,ls),
(99,264,o),
(67,260,o),
(35,260,c),
(35,209,l),
(67,209,o),
(99,205,o),
(99,173,cs),
(99,171,ls),
(99,139,o),
(67,135,o),
(35,135,c),
(35,0,l)
);
}
);
width = 685;
},
{
anchors = (
{
name = bottom;
pos = (345,0);
},
{
name = hook;
pos = (609,636);
},
{
name = top;
pos = (335,716);
},
{
name = topleft;
pos = (24,716);
}
);
associatedMasterId = m01;
attr = {
coordinates = (
100
);
};
background = {
shapes = (
{
closed = 1;
nodes = (
(460,0,ls),
(569,0,o),
(649,79,o),
(649,186,cs),
(649,434,l),
(599,434,o),
(582,460,o),
(582,500,cs),
(582,564,ls),
(582,604,o),
(599,636,o),
(649,636,c),
(649,716,l),
(361,716,l),
(361,631,l),
(401,631,o),
(421,610,o),
(421,575,cs),
(421,488,ls),
(421,464,o),
(393,439,o),
(357,439,cs),
(29,439,l),
(29,0,l)
);
},
{
closed = 1;
nodes = (
(474,560,l),
(262,578,l),
(262,613,o),
(278,631,o),
(308,631,c),
(308,716,l),
(29,716,l),
(29,636,l),
(80,636,o),
(98,607,o),
(98,567,cs),
(98,518,l),
(474,486,l)
);
}
);
};
layerId = "10A270E8-DD0D-4D0C-A027-1155BC426254";
name = "Jan 3, 24 at 10:59";
shapes = (
{
closed = 1;
nodes = (
(460,0,ls),
(553,0,o),
(626,52,o),
(645,135,c),
(612,137,o),
(546,164,o),
(534,250,c),
(537,251,l),
(578,209,o),
(638,209,o),
(649,209,c),
(649,260,l),
(618,260,o),
(546,285,o),
(534,375,c),
(537,376,l),
(578,334,o),
(638,334,o),
(649,334,c),
(649,434,l),
(599,434,o),
(582,460,o),
(582,500,cs),
(582,564,ls),
(582,604,o),
(599,636,o),
(649,636,c),
(649,716,l),
(361,716,l),
(361,631,l),
(401,631,o),
(421,613,o),
(421,565,c),
(262,578,l),
(262,613,o),
(278,631,o),
(308,631,c),
(308,716,l),
(29,716,l),
(29,636,l),
(80,636,o),
(98,607,o),
(98,567,cs),
(98,518,l),
(421,491,l),
(421,464,o),
(393,439,o),
(357,439,cs),
(35,439,l),
(35,334,l),
(46,334,o),
(106,334,o),
(147,376,c),
(150,375,l),
(138,285,o),
(66,260,o),
(35,260,c),
(35,209,l),
(46,209,o),
(106,209,o),
(147,251,c),
(150,250,l),
(138,160,o),
(66,135,o),
(35,135,c),
(35,0,l)
);
}
);
width = 685;
}
);
metricRight = J;
unicode = 89;
}
{
color = 5;
glyphname = Z;
kernLeft = Z;
kernRight = Z;
layers = (
{
anchors = (
{
name = bottom;
pos = (290,0);
},
{
name = center;
pos = (322,552);
},
{
name = ogonek;
pos = (-43,0);
},
{
name = top;
pos = (301,715);
},
{
name = topright;
pos = (547,716);
}
);
layerId = m01;
shapes = (
{
closed = 1;
nodes = (
(561,0,l),
(561,135,ls),
(561,168,o),
(561,158,o),
(561,171,cs),
(561,172,ls),
(561,185,o),
(561,176,o),
(561,209,cs),
(561,260,ls),
(561,293,o),
(561,283,o),
(561,296,cs),
(561,297,ls),
(561,310,o),
(561,301,o),
(561,334,cs),
(561,499,l),
(468,499,l),
(468,459,o),
(450,439,o),
(408,439,cs),
(281,439,l),
(281,441,l),
(561,628,l),
(561,716,l),
(28,716,l),
(28,569,l),
(122,569,l),
(122,609,o),
(139,636,o),
(191,636,cs),
(327,636,l),
(327,634,l),
(28,434,l),
(28,334,ls),
(28,301,o),
(28,310,o),
(28,297,cs),
(28,296,ls),
(28,283,o),
(28,293,o),
(28,260,cs),
(28,209,ls),
(28,176,o),
(28,185,o),
(28,172,cs),
(28,171,ls),
(28,158,o),
(28,168,o),
(28,135,cs),
(28,0,l)
);
}
);
width = 588;
},
{
anchors = (
{
name = bottom;
pos = (290,0);
},
{
name = center;
pos = (322,552);
},
{
name = ogonek;
pos = (-43,0);
},
{
name = top;
pos = (301,715);
},
{
name = topright;
pos = (547,716);
}
);
associatedMasterId = m01;
attr = {
coordinates = (
50
);
};
layerId = "9C0D4A43-076F-4E4B-820A-06FE1C17909C";
name = "Jan 3, 24 at 11:02";
shapes = (
{
closed = 1;
nodes = (
(561,0,l),
(561,135,l),
(529,135,o),
(497,139,o),
(497,171,cs),
(497,173,ls),
(497,205,o),
(529,209,o),
(561,209,c),
(561,260,l),
(529,260,o),
(497,264,o),
(497,296,cs),
(497,298,ls),
(497,330,o),
(529,334,o),
(561,334,c),
(561,499,l),
(468,499,l),
(468,459,o),
(450,439,o),
(408,439,cs),
(281,439,l),
(281,441,l),
(561,628,l),
(561,716,l),
(28,716,l),
(28,569,l),
(122,569,l),
(122,609,o),
(139,636,o),
(191,636,cs),
(327,636,l),
(327,634,l),
(28,434,l),
(28,334,l),
(60,334,o),
(92,330,o),
(92,298,cs),
(92,296,ls),
(92,264,o),
(60,260,o),
(28,260,c),
(28,209,l),
(60,209,o),
(92,205,o),
(92,173,cs),
(92,171,ls),
(92,139,o),
(60,135,o),
(28,135,c),
(28,0,l)
);
}
);
width = 588;
},
{
anchors = (
{
name = bottom;
pos = (290,0);
},
{
name = center;
pos = (322,552);
},
{
name = ogonek;
pos = (-43,0);
},
{
name = top;
pos = (301,715);
},
{
name = topright;
pos = (547,716);
}
);
associatedMasterId = m01;
attr = {
coordinates = (
100
);
};
layerId = "A8217A5C-D436-4592-93B7-58C202B6FE97";
name = "Jan 3, 24 at 11:02";
shapes = (
{
closed = 1;
nodes = (
(561,0,l),
(561,135,l),
(530,135,o),
(458,160,o),
(446,250,c),
(449,251,l),
(490,209,o),
(550,209,o),
(561,209,c),
(561,260,l),
(530,260,o),
(458,285,o),
(446,375,c),
(449,376,l),
(490,334,o),
(550,334,o),
(561,334,c),
(561,499,l),
(468,499,l),
(468,459,o),
(450,439,o),
(408,439,cs),
(281,439,l),
(281,441,l),
(561,628,l),
(561,716,l),
(28,716,l),
(28,569,l),
(122,569,l),
(122,609,o),
(139,636,o),
(191,636,cs),
(327,636,l),
(327,634,l),
(28,434,l),
(28,334,l),
(39,334,o),
(99,334,o),
(140,376,c),
(143,375,l),
(131,285,o),
(59,260,o),
(28,260,c),
(28,209,l),
(39,209,o),
(99,209,o),
(140,251,c),
(143,250,l),
(131,160,o),
(59,135,o),
(28,135,c),
(28,0,l)
);
}
);
width = 588;
}
);
unicode = 90;
}
{
glyphname = bracketleft;
layers = (
{
layerId = m01;
shapes = (
{
closed = 1;
nodes = (
(333,-125,l),
(333,-40,l),
(191,-40,l),
(191,757,l),
(333,757,l),
(333,837,l),
(33,837,l),
(30,-125,l)
);
}
);
width = 356;
}
);
unicode = 91;
}
{
glyphname = asciicircum;
layers = (
{
layerId = m01;
shapes = (
{
closed = 1;
nodes = (
(20,589,l),
(102,589,l),
(158,652,l),
(222,585,l),
(302,585,l),
(224,716,l),
(94,716,l)
);
}
);
width = 322;
}
);
unicode = 94;
}
{
glyphname = underscore;
layers = (
{
layerId = m01;
shapes = (
{
closed = 1;
nodes = (
(539,-120,l),
(539,-40,l),
(29,-40,l),
(29,-120,l)
);
}
);
width = 568;
}
);
metricLeft = hyphen;
metricRight = hyphen;
unicode = 95;
}
{
glyphname = braceleft;
layers = (
{
layerId = m01;
shapes = (
{
closed = 1;
nodes = (
(288,412,o),
(320,466,o),
(320,569,cs),
(320,699,o),
(350,766,o),
(420,766,cs),
(461,766,l),
(461,843,l),
(420,843,ls),
(206,843,o),
(164,753,o),
(164,588,cs),
(164,467,o),
(143,410,o),
(30,379,c),
(30,377,o),
(30,372,o),
(30,369,c),
(143,338,o),
(164,249,o),
(164,128,cs),
(164,-27,o),
(206,-117,o),
(420,-117,cs),
(461,-117,l),
(461,-40,l),
(420,-40,ls),
(350,-40,o),
(320,27,o),
(320,191,cs),
(320,284,o),
(288,340,o),
(225,376,c)
);
}
);
width = 484;
}
);
unicode = 123;
}
{
glyphname = bar;
layers = (
{
layerId = m01;
shapes = (
{
closed = 1;
nodes = (
(100,810,l),
(100,-100,l),
(198,-100,l),
(198,810,l)
);
}
);
width = 298;
}
);
unicode = 124;
}
{
glyphname = asciitilde;
layers = (
{
layerId = m01;
shapes = (
{
closed = 1;
nodes = (
(141,532,o),
(171,487,o),
(227,487,cs),
(284,487,o),
(322,533,o),
(322,604,c),
(236,604,l),
(236,579,o),
(227,569,o),
(215,569,cs),
(185,569,o),
(155,614,o),
(100,614,cs),
(46,614,o),
(8,575,o),
(8,496,c),
(95,496,l),
(95,519,o),
(103,532,o),
(115,532,cs)
);
}
);
width = 330;
}
);
unicode = 126;
}
{
glyphname = cent;
layers = (
{
background = {
shapes = (
{
closed = 0;
nodes = (
(29,260,l),
(29,209,ls),
(29,175,o),
(29,184,o),
(29,171,cs),
(29,170,ls),
(29,157,o),
(31,144,o),
(33,135,cs),
(52,52,o),
(125,0,o),
(218,0,cs),
(561,0,l),
(561,135,ls),
(561,168,o),
(561,158,o),
(561,171,cs),
(561,172,ls),
(561,185,o),
(561,176,o),
(561,209,cs),
(561,260,ls)
);
}
);
};
layerId = m01;
shapes = (
{
closed = 1;
nodes = (
(561,0,l),
(561,135,ls),
(561,168,o),
(561,158,o),
(561,171,cs),
(561,172,ls),
(561,185,o),
(561,176,o),
(561,209,cs),
(561,358,l),
(323,358,ls),
(238,358,o),
(231,389,o),
(231,444,cs),
(231,506,o),
(248,533,o),
(298,533,cs),
(331,533,ls),
(381,533,o),
(398,496,o),
(398,451,c),
(562,451,l),
(562,543,o),
(498,619,o),
(411,619,cs),
(218,619,ls),
(109,619,o),
(29,540,o),
(29,433,cs),
(29,209,ls),
(29,175,o),
(29,184,o),
(29,171,cs),
(29,170,ls),
(29,157,o),
(31,144,o),
(33,135,cs),
(52,52,o),
(125,0,o),
(218,0,cs)
);
},
{
closed = 1;
nodes = (
(347,-76,l),
(347,71,l),
(275,71,l),
(275,-76,l)
);
},
{
closed = 1;
nodes = (
(347,576,l),
(347,689,l),
(275,689,l),
(275,576,l)
);
}
);
width = 591;
},
{
associatedMasterId = m01;
attr = {
coordinates = (
50
);
};
layerId = "712CDE60-DF67-4C9D-B218-E74F185131F7";
name = "Feb 8, 24 at 16:02";
shapes = (
{
closed = 1;
nodes = (
(561,0,l),
(561,135,l),
(529,135,o),
(497,139,o),
(497,171,cs),
(497,173,ls),
(497,205,o),
(529,209,o),
(561,209,c),
(561,358,l),
(323,358,ls),
(238,358,o),
(231,400,o),
(231,444,cs),
(231,506,o),
(248,533,o),
(298,533,cs),
(331,533,ls),
(381,533,o),
(398,496,o),
(398,451,c),
(562,451,l),
(562,543,o),
(498,619,o),
(411,619,cs),
(218,619,ls),
(109,619,o),
(29,541,o),
(29,434,cs),
(29,209,l),
(61,209,o),
(93,205,o),
(93,173,cs),
(93,171,ls),
(93,140,o),
(64,135,o),
(33,135,c),
(52,52,o),
(125,0,o),
(218,0,c)
);
},
{
closed = 1;
nodes = (
(347,-76,l),
(347,71,l),
(275,71,l),
(275,-76,l)
);
},
{
closed = 1;
nodes = (
(347,576,l),
(347,689,l),
(275,689,l),
(275,576,l)
);
}
);
width = 591;
},
{
associatedMasterId = m01;
attr = {
coordinates = (
100
);
};
background = {
shapes = (
{
closed = 0;
nodes = (
(29,434,l),
(29,209,l),
(40,209,o),
(100,209,o),
(141,251,c),
(144,250,l),
(132,164,o),
(66,137,o),
(33,135,c),
(52,52,o),
(125,0,o),
(218,0,c),
(561,0,l),
(561,135,l),
(530,135,o),
(458,160,o),
(446,250,c),
(449,251,l),
(490,209,o),
(550,209,o),
(561,209,c),
(561,434,l)
);
}
);
};
layerId = "D0A2B62A-D7AF-41E8-A286-DC1BB32C0F92";
name = "Feb 8, 24 at 16:02";
shapes = (
{
closed = 1;
nodes = (
(561,0,l),
(561,135,l),
(530,135,o),
(458,160,o),
(446,250,c),
(449,251,l),
(490,209,o),
(550,209,o),
(561,209,c),
(561,358,l),
(323,358,ls),
(238,358,o),
(231,400,o),
(231,444,cs),
(231,506,o),
(248,533,o),
(298,533,cs),
(331,533,ls),
(381,533,o),
(398,496,o),
(398,451,c),
(562,451,l),
(562,543,o),
(498,619,o),
(411,619,cs),
(218,619,ls),
(109,619,o),
(29,541,o),
(29,434,cs),
(29,209,l),
(40,209,o),
(100,209,o),
(141,251,c),
(144,250,l),
(132,164,o),
(66,137,o),
(33,135,c),
(52,52,o),
(125,0,o),
(218,0,c)
);
},
{
closed = 1;
nodes = (
(347,-76,l),
(347,71,l),
(275,71,l),
(275,-76,l)
);
},
{
closed = 1;
nodes = (
(347,576,l),
(347,689,l),
(275,689,l),
(275,576,l)
);
}
);
width = 591;
}
);
metricLeft = c;
metricRight = c;
unicode = 162;
}
{
glyphname = sterling;
layers = (
{
background = {
shapes = (
{
closed = 0;
nodes = (
(280,636,l),
(336,636,ls),
(372,636,o),
(383,615,o),
(383,591,cs),
(383,565,l),
(564,565,l),
(564,591,ls),
(564,664,o),
(500,722,o),
(396,722,cs),
(194,722,ls)
);
}
);
};
layerId = m01;
shapes = (
{
closed = 1;
nodes = (
(564,0,l),
(564,135,ls),
(564,168,o),
(564,158,o),
(564,171,cs),
(564,172,ls),
(564,185,o),
(564,176,o),
(564,209,cs),
(564,260,ls),
(564,293,o),
(564,283,o),
(564,296,cs),
(564,297,ls),
(564,310,o),
(564,301,o),
(564,334,cs),
(564,434,l),
(271,434,l),
(287,451,o),
(295,469,o),
(295,490,cs),
(295,543,o),
(241,573,o),
(241,607,cs),
(241,630,o),
(256,636,o),
(295,636,cs),
(328,636,ls),
(372,636,o),
(383,615,o),
(383,591,cs),
(383,565,l),
(564,565,l),
(564,591,ls),
(564,664,o),
(500,722,o),
(396,722,cs),
(259,722,ls),
(177,722,o),
(55,709,o),
(55,630,cs),
(55,560,o),
(125,520,o),
(125,480,cs),
(125,438,o),
(63,433,o),
(33,433,c),
(33,333,ls),
(33,300,o),
(33,309,o),
(33,296,cs),
(33,295,ls),
(33,282,o),
(33,292,o),
(33,259,cs),
(33,208,ls),
(33,175,o),
(33,184,o),
(33,171,cs),
(33,170,ls),
(33,157,o),
(33,167,o),
(33,134,cs),
(33,-1,l)
);
},
{
closed = 1;
nodes = (
(149,492,o),
(250,493,o),
(360,493,c),
(360,563,l),
(29,563,l),
(29,493,l)
);
}
);
width = 593;
},
{
associatedMasterId = m01;
attr = {
coordinates = (
50
);
};
background = {
shapes = (
{
closed = 0;
nodes = (
(280,636,l),
(336,636,ls),
(372,636,o),
(383,615,o),
(383,591,cs),
(383,565,l),
(564,565,l),
(564,591,ls),
(564,664,o),
(500,722,o),
(396,722,cs),
(194,722,ls)
);
}
);
};
layerId = "A05D34E2-28BD-41BB-B9BC-7B586313496E";
name = "{50} Feb 8, 24 at 23:55";
shapes = (
{
closed = 1;
nodes = (
(564,0,l),
(564,135,l),
(532,135,o),
(500,139,o),
(500,171,cs),
(500,173,ls),
(500,205,o),
(532,209,o),
(564,209,c),
(564,260,l),
(532,260,o),
(500,264,o),
(500,296,cs),
(500,298,ls),
(500,330,o),
(532,334,o),
(564,334,c),
(564,434,l),
(271,434,l),
(290,454,o),
(295,473,o),
(295,490,cs),
(295,543,o),
(241,573,o),
(241,607,cs),
(241,630,o),
(256,636,o),
(295,636,cs),
(328,636,ls),
(372,636,o),
(383,615,o),
(383,591,cs),
(383,565,l),
(564,565,l),
(564,591,ls),
(564,664,o),
(500,722,o),
(396,722,cs),
(259,722,ls),
(177,722,o),
(55,709,o),
(55,630,cs),
(55,560,o),
(125,520,o),
(125,480,cs),
(125,438,o),
(63,433,o),
(33,433,c),
(33,333,l),
(65,333,o),
(97,329,o),
(97,297,cs),
(97,295,ls),
(97,263,o),
(65,259,o),
(33,259,c),
(33,208,l),
(65,208,o),
(97,204,o),
(97,172,cs),
(97,170,ls),
(97,138,o),
(65,134,o),
(33,134,c),
(33,-1,l)
);
},
{
closed = 1;
nodes = (
(149,492,o),
(250,493,o),
(360,493,c),
(360,563,l),
(29,563,l),
(29,493,l)
);
}
);
width = 593;
},
{
associatedMasterId = m01;
attr = {
coordinates = (
100
);
};
background = {
shapes = (
{
closed = 0;
nodes = (
(280,636,l),
(336,636,ls),
(372,636,o),
(383,615,o),
(383,591,cs),
(383,565,l),
(564,565,l),
(564,591,ls),
(564,664,o),
(500,722,o),
(396,722,cs),
(194,722,ls)
);
}
);
};
layerId = "7621C3EC-73C1-4F36-83E0-F4B404346273";
name = "Feb 8, 24 at 23:55";
shapes = (
{
closed = 1;
nodes = (
(564,0,l),
(564,135,l),
(533,135,o),
(461,160,o),
(449,250,c),
(452,251,l),
(493,209,o),
(553,209,o),
(564,209,c),
(564,260,l),
(533,260,o),
(461,285,o),
(449,375,c),
(452,376,l),
(493,334,o),
(553,334,o),
(564,334,c),
(564,434,l),
(271,434,l),
(290,454,o),
(295,473,o),
(295,490,cs),
(295,543,o),
(241,573,o),
(241,607,cs),
(241,630,o),
(256,636,o),
(295,636,cs),
(328,636,ls),
(372,636,o),
(383,615,o),
(383,591,cs),
(383,565,l),
(564,565,l),
(564,591,ls),
(564,664,o),
(500,722,o),
(396,722,cs),
(259,722,ls),
(177,722,o),
(55,709,o),
(55,630,cs),
(55,560,o),
(125,520,o),
(125,480,cs),
(125,438,o),
(63,433,o),
(33,433,c),
(33,333,l),
(44,333,o),
(104,333,o),
(145,375,c),
(148,374,l),
(136,284,o),
(64,259,o),
(33,259,c),
(33,208,l),
(44,208,o),
(104,208,o),
(145,250,c),
(148,249,l),
(136,159,o),
(64,134,o),
(33,134,c),
(33,-1,l)
);
},
{
closed = 1;
nodes = (
(149,492,o),
(250,493,o),
(360,493,c),
(360,563,l),
(29,563,l),
(29,493,l)
);
}
);
width = 593;
}
);
metricLeft = E;
metricRight = E;
unicode = 163;
}
{
glyphname = currency;
layers = (
{
layerId = m01;
shapes = (
{
closed = 1;
nodes = (
(419,475,l),
(520,576,l),
(469,627,l),
(369,526,l)
);
},
{
closed = 1;
nodes = (
(45,447,o),
(45,316,o),
(128,234,cs),
(209,152,o),
(340,152,o),
(421,234,cs),
(504,316,o),
(504,447,o),
(422,528,cs),
(340,611,o),
(209,611,o),
(127,528,cs)
);
},
{
closed = 1;
nodes = (
(240,500,o),
(309,500,o),
(351,458,cs),
(393,416,o),
(393,347,o),
(351,305,cs),
(310,263,o),
(240,263,o),
(198,305,cs),
(156,347,o),
(157,416,o),
(198,458,cs)
);
},
{
closed = 1;
nodes = (
(183,525,l),
(80,627,l),
(29,576,l),
(132,474,l)
);
},
{
closed = 1;
nodes = (
(135,292,l),
(29,187,l),
(80,136,l),
(186,241,l)
);
},
{
closed = 1;
nodes = (
(361,244,l),
(469,136,l),
(520,187,l),
(412,295,l)
);
}
);
width = 549;
}
);
metricLeft = o;
metricRight = o;
unicode = 164;
}
{
glyphname = yen;
layers = (
{
layerId = m01;
shapes = (
{
closed = 1;
nodes = (
(553,0,l),
(553,135,ls),
(553,168,o),
(553,158,o),
(553,171,cs),
(553,172,ls),
(553,185,o),
(553,176,o),
(553,209,cs),
(553,260,ls),
(553,293,o),
(553,283,o),
(553,296,cs),
(553,297,ls),
(553,310,o),
(553,301,o),
(553,334,cs),
(553,434,l),
(491,434,ls),
(441,434,o),
(424,455,o),
(424,498,cs),
(424,529,l),
(571,619,ls),
(593,632,o),
(612,636,o),
(637,636,cs),
(651,636,l),
(651,716,l),
(394,716,l),
(394,631,l),
(408,631,ls),
(419,631,o),
(425,626,o),
(425,620,cs),
(425,616,o),
(422,612,o),
(416,609,cs),
(369,583,l),
(319,612,ls),
(313,616,o),
(310,620,o),
(310,624,cs),
(310,628,o),
(313,631,o),
(319,631,cs),
(339,631,l),
(339,716,l),
(29,716,l),
(29,636,l),
(52,636,ls),
(70,636,o),
(90,627,o),
(123,608,cs),
(266,523,l),
(266,498,ls),
(266,455,o),
(249,434,o),
(199,434,cs),
(137,434,l),
(137,334,ls),
(137,301,o),
(137,310,o),
(137,297,cs),
(137,296,ls),
(137,283,o),
(137,293,o),
(137,260,cs),
(137,209,ls),
(137,176,o),
(137,185,o),
(137,172,cs),
(137,171,ls),
(137,158,o),
(137,168,o),
(137,135,cs),
(137,0,l)
);
},
{
closed = 1;
nodes = (
(315,542,l),
(273,590,l),
(86,590,l),
(86,542,l)
);
},
{
closed = 1;
nodes = (
(598,464,l),
(598,512,l),
(86,512,l),
(86,464,l)
);
},
{
closed = 1;
nodes = (
(598,542,l),
(598,590,l),
(442,590,l),
(409,542,l)
);
}
);
width = 680;
},
{
associatedMasterId = m01;
attr = {
coordinates = (
50
);
};
layerId = "16F6A1A6-D20C-4B5F-859B-AEE0A3674FB7";
name = "{50} Feb 8, 24 at 23:43";
shapes = (
{
closed = 1;
nodes = (
(553,0,l),
(553,135,l),
(521,135,o),
(489,139,o),
(489,171,cs),
(489,173,ls),
(489,205,o),
(521,209,o),
(553,209,c),
(553,260,l),
(521,260,o),
(489,264,o),
(489,296,cs),
(489,298,ls),
(489,330,o),
(521,334,o),
(553,334,c),
(553,434,l),
(491,434,ls),
(441,434,o),
(424,455,o),
(424,498,cs),
(424,529,l),
(571,619,ls),
(593,632,o),
(612,636,o),
(637,636,cs),
(651,636,l),
(651,716,l),
(394,716,l),
(394,631,l),
(408,631,ls),
(419,631,o),
(425,626,o),
(425,620,cs),
(425,616,o),
(422,612,o),
(416,609,cs),
(369,583,l),
(319,612,ls),
(313,616,o),
(310,620,o),
(310,624,cs),
(310,628,o),
(313,631,o),
(319,631,cs),
(339,631,l),
(339,716,l),
(29,716,l),
(29,636,l),
(52,636,ls),
(70,636,o),
(90,627,o),
(123,608,cs),
(266,523,l),
(266,498,ls),
(266,455,o),
(249,434,o),
(199,434,cs),
(137,434,l),
(137,334,l),
(169,334,o),
(201,330,o),
(201,298,cs),
(201,296,ls),
(201,264,o),
(169,260,o),
(137,260,c),
(137,209,l),
(169,209,o),
(201,205,o),
(201,173,cs),
(201,171,ls),
(201,139,o),
(169,135,o),
(137,135,c),
(137,0,l)
);
},
{
closed = 1;
nodes = (
(315,542,l),
(273,590,l),
(86,590,l),
(86,542,l)
);
},
{
closed = 1;
nodes = (
(598,464,l),
(598,512,l),
(86,512,l),
(86,464,l)
);
},
{
closed = 1;
nodes = (
(598,542,l),
(598,590,l),
(442,590,l),
(409,542,l)
);
}
);
width = 680;
},
{
associatedMasterId = m01;
attr = {
coordinates = (
100
);
};
layerId = "EDC4F0E8-98D6-44B9-A03E-874B44D48A4B";
name = "Feb 8, 24 at 23:43";
shapes = (
{
closed = 1;
nodes = (
(553,0,l),
(553,135,l),
(522,135,o),
(450,160,o),
(438,250,c),
(441,251,l),
(482,209,o),
(542,209,o),
(553,209,c),
(553,260,l),
(522,260,o),
(450,285,o),
(438,375,c),
(441,376,l),
(482,334,o),
(542,334,o),
(553,334,c),
(553,434,l),
(491,434,ls),
(441,434,o),
(424,455,o),
(424,498,cs),
(424,529,l),
(571,619,ls),
(593,632,o),
(612,636,o),
(637,636,cs),
(651,636,l),
(651,716,l),
(394,716,l),
(394,631,l),
(408,631,ls),
(419,631,o),
(425,626,o),
(425,620,cs),
(425,616,o),
(422,612,o),
(416,609,cs),
(369,583,l),
(319,612,ls),
(313,616,o),
(310,620,o),
(310,624,cs),
(310,628,o),
(313,631,o),
(319,631,cs),
(339,631,l),
(339,716,l),
(29,716,l),
(29,636,l),
(52,636,ls),
(70,636,o),
(90,627,o),
(123,608,cs),
(266,523,l),
(266,498,ls),
(266,455,o),
(249,434,o),
(199,434,cs),
(137,434,l),
(137,334,l),
(148,334,o),
(208,334,o),
(249,376,c),
(252,375,l),
(240,285,o),
(168,260,o),
(137,260,c),
(137,209,l),
(148,209,o),
(208,209,o),
(249,251,c),
(252,250,l),
(240,160,o),
(168,135,o),
(137,135,c),
(137,0,l)
);
},
{
closed = 1;
nodes = (
(315,542,l),
(273,590,l),
(86,590,l),
(86,542,l)
);
},
{
closed = 1;
nodes = (
(598,464,l),
(598,512,l),
(86,512,l),
(86,464,l)
);
},
{
closed = 1;
nodes = (
(598,542,l),
(598,590,l),
(442,590,l),
(409,542,l)
);
}
);
width = 680;
}
);
metricLeft = Y;
unicode = 165;
}
{
glyphname = brokenbar;
layers = (
{
layerId = m01;
shapes = (
{
closed = 1;
nodes = (
(198,-100,l),
(198,505,l),
(100,505,l),
(100,-100,l)
);
},
{
closed = 1;
nodes = (
(198,575,l),
(198,810,l),
(100,810,l),
(100,575,l)
);
}
);
width = 298;
}
);
unicode = 166;
}
{
glyphname = section;
layers = (
{
anchors = (
{
name = bottom;
pos = (298,0);
},
{
name = top;
pos = (268,716);
}
);
background = {
shapes = (
{
closed = 1;
nodes = (
(314,-37,ls),
(473,-37,o),
(527,-1,o),
(527,132,cs),
(527,338,ls),
(527,365,o),
(519,387,o),
(501,405,c),
(518,422,o),
(527,445,o),
(527,473,cs),
(527,546,o),
(467,582,o),
(326,594,cs),
(268,599,ls),
(225,603,o),
(204,615,o),
(204,638,cs),
(204,659,o),
(222,671,o),
(249,671,cs),
(290,671,ls),
(331,671,o),
(353,655,o),
(353,626,c),
(517,626,l),
(517,703,o),
(463,751,o),
(314,751,cs),
(229,751,ls),
(84,751,o),
(30,715,o),
(30,645,cs),
(30,618,o),
(38,595,o),
(56,578,c),
(39,561,o),
(30,538,o),
(30,510,cs),
(30,435,o),
(91,400,o),
(240,387,cs),
(328,381,o),
(353,371,o),
(353,345,cs),
(353,324,o),
(336,312,o),
(308,312,cs),
(257,312,ls),
(217,312,o),
(194,328,o),
(194,357,c),
(30,357,l),
(30,132,ls),
(30,11,o),
(85,-37,o),
(229,-37,cs)
);
},
{
closed = 1;
nodes = (
(204,512,o),
(207,519,o),
(213,525,c),
(240,522,ls),
(328,512,o),
(353,506,o),
(353,480,cs),
(353,471,o),
(350,463,o),
(344,457,c),
(326,459,l),
(268,464,ls),
(225,468,o),
(204,480,o),
(204,503,cs)
);
}
);
};
layerId = m01;
shapes = (
{
closed = 1;
nodes = (
(314,-37,ls),
(473,-37,o),
(527,-1,o),
(527,135,cs),
(527,168,o),
(527,158,o),
(527,171,cs),
(527,172,ls),
(527,185,o),
(527,176,o),
(527,209,c),
(527,338,ls),
(527,365,o),
(519,387,o),
(501,405,c),
(518,422,o),
(527,445,o),
(527,473,cs),
(527,546,o),
(467,582,o),
(326,594,cs),
(268,599,ls),
(225,603,o),
(204,615,o),
(204,638,cs),
(204,659,o),
(222,671,o),
(249,671,cs),
(290,671,ls),
(331,671,o),
(353,655,o),
(353,626,c),
(517,626,l),
(517,703,o),
(463,751,o),
(314,751,cs),
(229,751,ls),
(84,751,o),
(30,715,o),
(30,645,cs),
(30,618,o),
(38,595,o),
(56,578,c),
(39,561,o),
(30,538,o),
(30,510,cs),
(30,435,o),
(91,397,o),
(240,387,cs),
(328,381,o),
(353,371,o),
(353,345,cs),
(353,324,o),
(336,312,o),
(308,312,cs),
(257,312,ls),
(217,312,o),
(194,328,o),
(194,357,c),
(30,357,l),
(30,209,l),
(30,176,o),
(30,185,o),
(30,172,cs),
(30,171,ls),
(30,158,o),
(30,168,o),
(30,135,cs),
(30,11,o),
(85,-37,o),
(229,-37,cs)
);
},
{
closed = 1;
nodes = (
(268,464,ls),
(225,468,o),
(204,480,o),
(204,503,cs),
(204,512,o),
(207,519,o),
(213,525,c),
(240,522,ls),
(328,512,o),
(353,506,o),
(353,480,cs),
(353,471,o),
(350,463,o),
(344,457,c)
);
}
);
width = 557;
},
{
anchors = (
{
name = bottom;
pos = (298,0);
},
{
name = top;
pos = (268,716);
}
);
associatedMasterId = m01;
attr = {
coordinates = (
50
);
};
background = {
shapes = (
{
closed = 1;
nodes = (
(314,-37,ls),
(473,-37,o),
(527,-1,o),
(527,132,cs),
(527,338,ls),
(527,365,o),
(519,387,o),
(501,405,c),
(518,422,o),
(527,445,o),
(527,473,cs),
(527,546,o),
(467,582,o),
(326,594,cs),
(268,599,ls),
(225,603,o),
(204,615,o),
(204,638,cs),
(204,659,o),
(222,671,o),
(249,671,cs),
(290,671,ls),
(331,671,o),
(353,655,o),
(353,626,c),
(517,626,l),
(517,703,o),
(463,751,o),
(314,751,cs),
(229,751,ls),
(84,751,o),
(30,715,o),
(30,645,cs),
(30,618,o),
(38,595,o),
(56,578,c),
(39,561,o),
(30,538,o),
(30,510,cs),
(30,435,o),
(91,400,o),
(240,387,cs),
(328,381,o),
(353,371,o),
(353,345,cs),
(353,324,o),
(336,312,o),
(308,312,cs),
(257,312,ls),
(217,312,o),
(194,328,o),
(194,357,c),
(30,357,l),
(30,132,ls),
(30,11,o),
(85,-37,o),
(229,-37,cs)
);
},
{
closed = 1;
nodes = (
(204,512,o),
(207,519,o),
(213,525,c),
(240,522,ls),
(328,512,o),
(353,506,o),
(353,480,cs),
(353,471,o),
(350,463,o),
(344,457,c),
(326,459,l),
(268,464,ls),
(225,468,o),
(204,480,o),
(204,503,cs)
);
}
);
};
layerId = "E20B8927-9B87-43DC-8A2D-A910AAB2D570";
name = "{50} Feb 8, 24 at 14:02";
shapes = (
{
closed = 1;
nodes = (
(314,-37,ls),
(473,-37,o),
(527,-1,o),
(527,135,c),
(495,135,o),
(463,139,o),
(463,171,cs),
(463,173,ls),
(463,205,o),
(495,209,o),
(527,209,c),
(527,338,ls),
(527,365,o),
(519,387,o),
(501,405,c),
(518,422,o),
(527,445,o),
(527,473,cs),
(527,546,o),
(467,582,o),
(326,594,cs),
(268,599,ls),
(225,603,o),
(204,615,o),
(204,638,cs),
(204,659,o),
(222,671,o),
(249,671,cs),
(290,671,ls),
(331,671,o),
(353,655,o),
(353,626,c),
(517,626,l),
(517,703,o),
(463,751,o),
(314,751,cs),
(229,751,ls),
(84,751,o),
(30,715,o),
(30,645,cs),
(30,618,o),
(38,595,o),
(56,578,c),
(39,561,o),
(30,538,o),
(30,510,cs),
(30,435,o),
(91,397,o),
(240,387,cs),
(328,381,o),
(353,371,o),
(353,345,cs),
(353,324,o),
(336,312,o),
(308,312,cs),
(257,312,ls),
(217,312,o),
(194,328,o),
(194,357,c),
(30,357,l),
(30,209,l),
(62,209,o),
(94,205,o),
(94,173,cs),
(94,171,ls),
(94,139,o),
(62,135,o),
(30,135,c),
(30,11,o),
(85,-37,o),
(229,-37,cs)
);
},
{
closed = 1;
nodes = (
(268,464,ls),
(225,468,o),
(204,480,o),
(204,503,cs),
(204,512,o),
(207,519,o),
(213,525,c),
(240,522,ls),
(328,512,o),
(353,506,o),
(353,480,cs),
(353,471,o),
(350,463,o),
(344,457,c)
);
}
);
width = 557;
},
{
anchors = (
{
name = bottom;
pos = (298,0);
},
{
name = top;
pos = (268,716);
}
);
associatedMasterId = m01;
attr = {
coordinates = (
100
);
};
background = {
shapes = (
{
closed = 1;
nodes = (
(314,-37,ls),
(473,-37,o),
(527,-1,o),
(527,132,cs),
(527,338,ls),
(527,365,o),
(519,387,o),
(501,405,c),
(518,422,o),
(527,445,o),
(527,473,cs),
(527,546,o),
(467,582,o),
(326,594,cs),
(268,599,ls),
(225,603,o),
(204,615,o),
(204,638,cs),
(204,659,o),
(222,671,o),
(249,671,cs),
(290,671,ls),
(331,671,o),
(353,655,o),
(353,626,c),
(517,626,l),
(517,703,o),
(463,751,o),
(314,751,cs),
(229,751,ls),
(84,751,o),
(30,715,o),
(30,645,cs),
(30,618,o),
(38,595,o),
(56,578,c),
(39,561,o),
(30,538,o),
(30,510,cs),
(30,435,o),
(91,400,o),
(240,387,cs),
(328,381,o),
(353,371,o),
(353,345,cs),
(353,324,o),
(336,312,o),
(308,312,cs),
(257,312,ls),
(217,312,o),
(194,328,o),
(194,357,c),
(30,357,l),
(30,132,ls),
(30,11,o),
(85,-37,o),
(229,-37,cs)
);
},
{
closed = 1;
nodes = (
(204,512,o),
(207,519,o),
(213,525,c),
(240,522,ls),
(328,512,o),
(353,506,o),
(353,480,cs),
(353,471,o),
(350,463,o),
(344,457,c),
(326,459,l),
(268,464,ls),
(225,468,o),
(204,480,o),
(204,503,cs)
);
}
);
};
layerId = "4AA96B3D-47C7-45D1-A81F-456FC044D04D";
name = "Feb 8, 24 at 14:02";
shapes = (
{
closed = 1;
nodes = (
(314,-37,ls),
(473,-37,o),
(527,-1,o),
(527,135,c),
(496,135,o),
(424,160,o),
(412,250,c),
(415,251,l),
(456,209,o),
(516,209,o),
(527,209,c),
(527,338,ls),
(527,365,o),
(519,387,o),
(501,405,c),
(518,422,o),
(527,445,o),
(527,473,cs),
(527,546,o),
(467,582,o),
(326,594,cs),
(268,599,ls),
(225,603,o),
(204,615,o),
(204,638,cs),
(204,659,o),
(222,671,o),
(249,671,cs),
(290,671,ls),
(331,671,o),
(353,655,o),
(353,626,c),
(517,626,l),
(517,703,o),
(463,751,o),
(314,751,cs),
(229,751,ls),
(84,751,o),
(30,715,o),
(30,645,cs),
(30,618,o),
(38,595,o),
(56,578,c),
(39,561,o),
(30,538,o),
(30,510,cs),
(30,435,o),
(91,397,o),
(240,387,cs),
(328,381,o),
(353,371,o),
(353,345,cs),
(353,324,o),
(336,312,o),
(308,312,cs),
(257,312,ls),
(217,312,o),
(194,328,o),
(194,357,c),
(30,357,l),
(30,209,l),
(41,209,o),
(101,209,o),
(142,251,c),
(145,250,l),
(133,160,o),
(61,135,o),
(30,135,c),
(30,11,o),
(85,-37,o),
(229,-37,cs)
);
},
{
closed = 1;
nodes = (
(268,464,ls),
(225,468,o),
(204,480,o),
(204,503,cs),
(204,512,o),
(207,519,o),
(213,525,c),
(240,522,ls),
(328,512,o),
(353,506,o),
(353,480,cs),
(353,471,o),
(350,463,o),
(344,457,c)
);
}
);
width = 557;
}
);
metricLeft = S;
metricRight = S;
unicode = 167;
}
{
glyphname = copyright;
layers = (
{
layerId = m01;
shapes = (
{
closed = 1;
nodes = (
(536,96,o),
(682,242,o),
(682,423,cs),
(682,603,o),
(536,749,o),
(356,749,cs),
(175,749,o),
(29,603,o),
(29,423,cs),
(29,242,o),
(175,96,o),
(356,96,cs)
);
},
{
closed = 1;
nodes = (
(225,186,o),
(119,292,o),
(119,423,cs),
(119,553,o),
(225,659,o),
(356,659,cs),
(486,659,o),
(592,553,o),
(592,423,cs),
(592,292,o),
(486,186,o),
(356,186,cs)
);
},
{
closed = 1;
nodes = (
(461,485,l),
(461,500,ls),
(461,555,o),
(426,583,o),
(370,583,cs),
(321,583,ls),
(262,583,o),
(228,549,o),
(228,497,cs),
(228,383,ls),
(228,311,o),
(262,278,o),
(334,278,cs),
(461,278,l),
(461,461,l),
(350,461,ls),
(316,461,o),
(313,474,o),
(313,497,cs),
(313,520,o),
(321,534,o),
(342,534,cs),
(346,534,ls),
(360,534,o),
(375,521,o),
(375,502,cs),
(375,485,l)
);
}
);
width = 711;
}
);
metricLeft = O;
metricRight = O;
unicode = 169;
}
{
glyphname = ordfeminine;
layers = (
{
layerId = m01;
shapes = (
{
closed = 1;
nodes = (
(162,334,l),
(162,548,l),
(144,548,ls),
(132,548,o),
(120,556,o),
(120,572,cs),
(120,583,o),
(127,596,o),
(144,596,cs),
(202,596,ls),
(217,596,o),
(227,586,o),
(227,573,cs),
(227,560,o),
(217,549,o),
(202,549,cs),
(193,549,l),
(193,334,l),
(398,334,l),
(398,546,l),
(366,546,o),
(360,554,o),
(340,590,cs),
(271,716,l),
(137,716,l),
(74,588,ls),
(55,549,o),
(41,546,o),
(15,546,c),
(15,334,l)
);
},
{
closed = 1;
nodes = (
(174,679,l),
(200,635,l),
(148,635,l)
);
}
);
width = 413;
}
);
unicode = 170;
}
{
glyphname = logicalnot;
layers = (
{
layerId = m01;
shapes = (
{
closed = 1;
nodes = (
(8,536,l),
(298,536,l),
(298,610,l),
(8,610,l)
);
},
{
closed = 1;
nodes = (
(184,468,l),
(298,468,l),
(298,610,l),
(184,610,l)
);
}
);
width = 306;
}
);
unicode = 172;
}
{
glyphname = registered;
layers = (
{
anchors = (
{
name = bottom;
pos = (337,278);
},
{
name = top;
pos = (327,580);
}
);
layerId = m01;
shapes = (
{
closed = 1;
nodes = (
(508,275,l),
(508,439,l),
(458,439,o),
(483,484,o),
(424,484,c),
(424,491,l),
(437,491,ls),
(453,491,o),
(477,504,o),
(477,536,cs),
(477,571,o),
(437,583,o),
(405,583,cs),
(219,583,l),
(219,543,l),
(241,543,o),
(248,532,o),
(248,515,cs),
(248,465,ls),
(248,448,o),
(241,439,o),
(219,439,c),
(219,278,l),
(345,278,l),
(345,439,l),
(331,439,o),
(326,446,o),
(326,463,c),
(351,463,ls),
(370,463,o),
(379,455,o),
(379,436,cs),
(379,328,ls),
(379,297,o),
(393,275,o),
(447,275,cs)
);
},
{
closed = 1;
nodes = (
(326,540,l),
(362,540,ls),
(374,540,o),
(388,537,o),
(388,522,cs),
(388,511,o),
(379,505,o),
(363,505,cs),
(326,505,l)
);
},
{
closed = 1;
nodes = (
(536,96,o),
(682,242,o),
(682,423,cs),
(682,603,o),
(536,749,o),
(356,749,cs),
(175,749,o),
(29,603,o),
(29,423,cs),
(29,242,o),
(175,96,o),
(356,96,cs)
);
},
{
closed = 1;
nodes = (
(225,186,o),
(119,292,o),
(119,423,cs),
(119,553,o),
(225,659,o),
(356,659,cs),
(486,659,o),
(592,553,o),
(592,423,cs),
(592,292,o),
(486,186,o),
(356,186,cs)
);
}
);
width = 711;
}
);
metricLeft = O;
metricRight = O;
unicode = 174;
}
{
glyphname = degree;
layers = (
{
background = {
shapes = (
{
closed = 1;
nodes = (
(96,690,o),
(106,716,o),
(142,716,cs),
(166,716,o),
(188,693,o),
(188,658,cs),
(188,642,o),
(186,632,o),
(177,622,cs),
(169,612,o),
(156,604,o),
(140,604,cs),
(119,604,o),
(96,626,o),
(96,652,cs)
);
},
{
closed = 1;
nodes = (
(20,621,o),
(35,594,o),
(47,577,cs),
(66,548,o),
(103,534,o),
(143,534,cs),
(177,534,o),
(217,550,o),
(242,583,cs),
(256,603,o),
(260,612,o),
(262,659,cs),
(262,699,o),
(247,726,o),
(235,743,cs),
(216,772,o),
(179,786,o),
(139,786,cs),
(105,786,o),
(65,770,o),
(40,737,cs),
(26,717,o),
(22,708,o),
(20,661,cs)
);
}
);
};
layerId = m01;
shapes = (
{
closed = 1;
nodes = (
(222,523,o),
(285,586,o),
(285,661,cs),
(285,737,o),
(222,798,o),
(147,798,cs),
(71,798,o),
(10,737,o),
(10,661,cs),
(10,586,o),
(71,523,o),
(147,523,cs)
);
},
{
closed = 1;
nodes = (
(120,613,o),
(98,634,o),
(98,661,cs),
(98,688,o),
(120,710,o),
(147,710,cs),
(174,710,o),
(195,688,o),
(195,661,cs),
(195,634,o),
(174,613,o),
(147,613,cs)
);
}
);
width = 295;
}
);
unicode = 176;
}
{
glyphname = plusminus;
layers = (
{
guides = (
{
pos = (1,-247);
}
);
layerId = m01;
shapes = (
{
closed = 1;
nodes = (
(8,434,l),
(8,346,l),
(290,346,l),
(290,434,l)
);
},
{
closed = 1;
nodes = (
(290,630,l),
(8,630,l),
(8,550,l),
(290,550,l)
);
},
{
closed = 1;
nodes = (
(189,464,l),
(189,716,l),
(109,716,l),
(109,464,l)
);
}
);
width = 298;
}
);
unicode = 177;
}
{
glyphname = micro;
layers = (
{
background = {
shapes = (
{
closed = 0;
nodes = (
(202,587,l),
(142,587,l),
(-21,535,l),
(-21,463,l),
(29,463,o),
(46,449,o),
(46,413,cs)
);
}
);
};
layerId = m01;
shapes = (
{
closed = 1;
nodes = (
(184,-100,l),
(184,0,l),
(227,-1,ls),
(297,-3,o),
(326,53,o),
(326,103,c),
(336,103,l),
(336,54,o),
(353,0,o),
(448,0,cs),
(559,0,l),
(559,135,ls),
(559,168,o),
(559,158,o),
(559,171,cs),
(559,172,ls),
(559,185,o),
(559,176,o),
(559,209,cs),
(559,287,l),
(509,287,o),
(492,313,o),
(492,351,cs),
(492,557,l),
(432,557,l),
(269,506,l),
(269,434,l),
(319,434,o),
(336,420,o),
(336,385,cs),
(336,351,ls),
(336,313,o),
(319,287,o),
(269,287,cs),
(219,287,o),
(202,313,o),
(202,351,cs),
(202,557,l),
(142,557,l),
(-21,506,l),
(-21,434,l),
(29,434,o),
(46,420,o),
(46,384,cs),
(46,334,ls),
(46,301,o),
(46,310,o),
(46,297,cs),
(46,296,ls),
(46,283,o),
(46,293,o),
(46,260,cs),
(46,209,ls),
(46,176,o),
(46,185,o),
(46,172,cs),
(46,171,ls),
(46,158,o),
(46,168,o),
(46,135,cs),
(46,-100,l)
);
}
);
width = 588;
},
{
associatedMasterId = m01;
attr = {
coordinates = (
50
);
};
layerId = "A0CF6109-F7F5-4EB6-8828-B959781F3028";
name = "Feb 9, 24 at 09:10";
shapes = (
{
closed = 1;
nodes = (
(184,-100,l),
(184,0,l),
(227,-1,ls),
(297,-3,o),
(326,53,o),
(326,103,c),
(336,103,l),
(336,54,o),
(353,0,o),
(448,0,cs),
(559,0,l),
(559,135,l),
(527,135,o),
(495,139,o),
(495,171,cs),
(495,173,ls),
(495,205,o),
(527,209,o),
(559,209,c),
(559,287,l),
(509,287,o),
(492,313,o),
(492,351,cs),
(492,557,l),
(432,557,l),
(269,506,l),
(269,434,l),
(319,434,o),
(336,420,o),
(336,385,cs),
(336,351,ls),
(336,313,o),
(319,287,o),
(269,287,cs),
(219,287,o),
(202,313,o),
(202,351,cs),
(202,557,l),
(142,557,l),
(-21,506,l),
(-21,434,l),
(29,434,o),
(46,420,o),
(46,384,cs),
(46,334,l),
(78,334,o),
(110,330,o),
(110,298,cs),
(110,296,ls),
(110,264,o),
(78,260,o),
(46,260,c),
(46,209,l),
(78,209,o),
(110,205,o),
(110,173,cs),
(110,171,ls),
(110,139,o),
(78,135,o),
(46,135,c),
(46,-100,l)
);
}
);
width = 604;
},
{
associatedMasterId = m01;
attr = {
coordinates = (
100
);
};
layerId = "52886611-4F3C-4B13-A588-849FDBC26AF9";
name = "Feb 9, 24 at 09:10";
shapes = (
{
closed = 1;
nodes = (
(184,-100,l),
(184,0,l),
(227,-1,ls),
(297,-3,o),
(326,53,o),
(326,103,c),
(336,103,l),
(336,54,o),
(353,0,o),
(448,0,cs),
(559,0,l),
(559,135,l),
(528,135,o),
(456,160,o),
(444,250,c),
(447,251,l),
(488,209,o),
(548,209,o),
(559,209,c),
(559,287,l),
(509,287,o),
(492,313,o),
(492,351,cs),
(492,557,l),
(432,557,l),
(269,506,l),
(269,434,l),
(319,434,o),
(336,420,o),
(336,385,cs),
(336,351,ls),
(336,313,o),
(319,287,o),
(269,287,cs),
(219,287,o),
(202,313,o),
(202,351,cs),
(202,557,l),
(142,557,l),
(-21,506,l),
(-21,434,l),
(29,434,o),
(46,420,o),
(46,384,cs),
(46,334,l),
(57,334,o),
(117,334,o),
(158,376,c),
(161,375,l),
(149,285,o),
(77,260,o),
(46,260,c),
(46,209,l),
(57,209,o),
(117,209,o),
(158,251,c),
(161,250,l),
(149,160,o),
(77,135,o),
(46,135,c),
(46,-100,l)
);
}
);
width = 604;
}
);
unicode = 181;
}
{
glyphname = paragraph;
layers = (
{
anchors = (
{
name = bottom;
pos = (264,0);
},
{
name = hookjoin;
pos = (578,636);
},
{
name = top;
pos = (264,900);
}
);
layerId = m01;
shapes = (
{
closed = 1;
nodes = (
(395,-101,l),
(395,635,l),
(491,635,l),
(491,-100,l),
(648,-100,l),
(648,336,l),
(598,336,o),
(581,363,o),
(581,403,cs),
(581,568,ls),
(581,608,o),
(598,636,o),
(647,636,c),
(648,716,l),
(491,716,l),
(182,715,ls),
(129,715,o),
(30,697,o),
(30,571,cs),
(30,459,o),
(129,433,o),
(182,433,cs),
(305,433,l),
(305,403,ls),
(305,363,o),
(288,336,o),
(238,336,c),
(238,-101,l)
);
}
);
width = 677;
}
);
metricLeft = S;
metricRight = I;
unicode = 182;
}
{
glyphname = ordmasculine;
layers = (
{
layerId = m01;
shapes = (
{
closed = 1;
nodes = (
(242,334,ls),
(291,334,o),
(342,364,o),
(342,448,c),
(342,623,l),
(342,680,o),
(300,722,o),
(242,722,cs),
(116,722,ls),
(58,722,o),
(15,679,o),
(15,623,c),
(15,448,ls),
(15,364,o),
(66,334,o),
(116,334,cs)
);
},
{
closed = 1;
nodes = (
(139,571,o),
(133,582,o),
(133,599,cs),
(133,640,ls),
(133,662,o),
(141,676,o),
(168,676,cs),
(189,676,ls),
(216,676,o),
(225,662,o),
(225,640,cs),
(225,599,ls),
(225,582,o),
(218,571,o),
(204,571,cs),
(195,571,o),
(183,576,o),
(181,604,c),
(177,604,l),
(174,576,o),
(163,571,o),
(154,571,cs)
);
}
);
width = 357;
}
);
unicode = 186;
}
{
color = 5;
glyphname = AE;
kernLeft = A;
kernRight = E;
layers = (
{
anchors = (
{
name = bottom;
pos = (445,0);
},
{
name = top;
pos = (541,716);
}
);
background = {
shapes = (
{
closed = 1;
nodes = (
(308,0,l),
(308,439,l),
(296,439,ls),
(279,439,o),
(262,450,o),
(262,472,cs),
(262,488,o),
(272,505,o),
(296,505,cs),
(377,505,ls),
(398,505,o),
(411,492,o),
(411,473,cs),
(411,453,o),
(398,439,o),
(377,439,cs),
(366,439,l),
(366,0,l),
(528,0,l),
(528,580,l),
(452,716,l),
(398,716,l),
(167,514,ls),
(107,461,o),
(77,434,o),
(29,434,c),
(29,0,l)
);
},
{
closed = 1;
nodes = (
(411,632,l),
(411,564,l),
(334,564,l)
);
},
{
closed = 1;
nodes = (
(861,0,l),
(861,500,l),
(771,500,l),
(771,460,o),
(754,439,o),
(704,439,cs),
(577,439,l),
(577,505,l),
(694,505,l),
(694,575,l),
(577,575,l),
(577,636,l),
(698,636,ls),
(748,636,o),
(765,609,o),
(765,569,c),
(855,569,l),
(855,716,l),
(426,716,l),
(426,500,l),
(436,500,l),
(436,460,o),
(419,434,o),
(369,434,cs),
(366,434,l),
(365,0,l)
);
}
);
};
layerId = m01;
shapes = (
{
closed = 1;
nodes = (
(308,0,l),
(308,439,l),
(296,439,ls),
(279,439,o),
(262,450,o),
(262,472,cs),
(262,488,o),
(272,505,o),
(296,505,cs),
(377,505,ls),
(398,505,o),
(411,492,o),
(411,473,cs),
(411,453,o),
(398,439,o),
(377,439,cs),
(366,439,l),
(366,334,ls),
(366,302,o),
(366,310,o),
(366,297,cs),
(366,296,ls),
(366,283,o),
(366,293,o),
(366,260,cs),
(366,209,ls),
(366,176,o),
(366,185,o),
(366,172,cs),
(366,171,ls),
(366,158,o),
(366,168,o),
(366,135,cs),
(366,0,l),
(861,0,l),
(861,135,ls),
(861,168,o),
(861,158,o),
(861,171,cs),
(861,172,ls),
(861,185,o),
(861,176,o),
(861,209,cs),
(861,260,ls),
(861,293,o),
(861,283,o),
(861,296,cs),
(861,297,ls),
(861,310,o),
(861,301,o),
(861,334,cs),
(861,500,l),
(771,500,l),
(771,460,o),
(754,439,o),
(704,439,cs),
(577,439,l),
(577,505,l),
(694,505,l),
(694,575,l),
(577,575,l),
(577,636,l),
(698,636,ls),
(748,636,o),
(765,609,o),
(765,569,c),
(855,569,l),
(855,716,l),
(398,716,l),
(167,514,ls),
(107,461,o),
(74,434,o),
(29,434,c),
(29,334,ls),
(29,301,o),
(29,310,o),
(29,297,cs),
(29,296,ls),
(29,283,o),
(29,293,o),
(29,260,cs),
(29,209,ls),
(29,176,o),
(29,185,o),
(29,172,cs),
(29,171,ls),
(29,158,o),
(29,168,o),
(29,135,cs),
(29,0,l)
);
},
{
closed = 1;
nodes = (
(411,632,l),
(411,564,l),
(334,564,l)
);
}
);
width = 890;
},
{
anchors = (
{
name = bottom;
pos = (445,0);
},
{
name = top;
pos = (541,716);
}
);
associatedMasterId = m01;
attr = {
coordinates = (
50
);
};
background = {
shapes = (
{
closed = 1;
nodes = (
(308,0,l),
(308,439,l),
(296,439,ls),
(279,439,o),
(262,450,o),
(262,472,cs),
(262,488,o),
(272,505,o),
(296,505,cs),
(377,505,ls),
(398,505,o),
(411,492,o),
(411,473,cs),
(411,453,o),
(398,439,o),
(377,439,cs),
(366,439,l),
(366,0,l),
(528,0,l),
(528,580,l),
(452,716,l),
(398,716,l),
(167,514,ls),
(107,461,o),
(77,434,o),
(29,434,c),
(29,0,l)
);
},
{
closed = 1;
nodes = (
(411,632,l),
(411,564,l),
(334,564,l)
);
},
{
closed = 1;
nodes = (
(861,0,l),
(861,500,l),
(771,500,l),
(771,460,o),
(754,439,o),
(704,439,cs),
(577,439,l),
(577,505,l),
(694,505,l),
(694,575,l),
(577,575,l),
(577,636,l),
(698,636,ls),
(748,636,o),
(765,609,o),
(765,569,c),
(855,569,l),
(855,716,l),
(426,716,l),
(426,500,l),
(436,500,l),
(436,460,o),
(419,434,o),
(369,434,cs),
(366,434,l),
(365,0,l)
);
}
);
};
layerId = "867E0C3C-F851-43FF-9176-E5D051D1CDFB";
name = "{50} Jan 24, 24 at 13:45";
shapes = (
{
closed = 1;
nodes = (
(308,0,l),
(308,439,l),
(296,439,ls),
(279,439,o),
(262,450,o),
(262,472,cs),
(262,488,o),
(272,505,o),
(296,505,cs),
(377,505,ls),
(398,505,o),
(411,492,o),
(411,473,cs),
(411,453,o),
(398,439,o),
(377,439,cs),
(366,439,l),
(366,334,l),
(398,334,o),
(430,330,o),
(430,298,cs),
(430,296,ls),
(430,264,o),
(398,260,o),
(366,260,c),
(366,209,l),
(398,209,o),
(430,205,o),
(430,173,cs),
(430,171,ls),
(430,139,o),
(398,135,o),
(366,135,c),
(366,0,l),
(861,0,l),
(861,135,l),
(829,135,o),
(797,139,o),
(797,171,cs),
(797,173,ls),
(797,205,o),
(829,209,o),
(861,209,c),
(861,260,l),
(829,260,o),
(797,264,o),
(797,296,cs),
(797,298,ls),
(797,330,o),
(829,334,o),
(861,334,c),
(861,500,l),
(771,500,l),
(771,460,o),
(754,439,o),
(704,439,cs),
(577,439,l),
(577,505,l),
(694,505,l),
(694,575,l),
(577,575,l),
(577,636,l),
(698,636,ls),
(748,636,o),
(765,609,o),
(765,569,c),
(855,569,l),
(855,716,l),
(398,716,l),
(167,514,ls),
(107,461,o),
(74,434,o),
(29,434,c),
(29,334,l),
(61,334,o),
(93,330,o),
(93,298,cs),
(93,296,ls),
(93,264,o),
(61,260,o),
(29,260,c),
(29,209,l),
(61,209,o),
(93,205,o),
(93,173,cs),
(93,171,ls),
(93,139,o),
(61,135,o),
(29,135,c),
(29,0,l)
);
},
{
closed = 1;
nodes = (
(411,632,l),
(411,564,l),
(334,564,l)
);
}
);
width = 890;
},
{
anchors = (
{
name = bottom;
pos = (445,0);
},
{
name = top;
pos = (541,716);
}
);
associatedMasterId = m01;
attr = {
coordinates = (
100
);
};
background = {
shapes = (
{
closed = 1;
nodes = (
(308,0,l),
(308,439,l),
(296,439,ls),
(279,439,o),
(262,450,o),
(262,472,cs),
(262,488,o),
(272,505,o),
(296,505,cs),
(377,505,ls),
(398,505,o),
(411,492,o),
(411,473,cs),
(411,453,o),
(398,439,o),
(377,439,cs),
(366,439,l),
(366,0,l),
(528,0,l),
(528,580,l),
(452,716,l),
(398,716,l),
(167,514,ls),
(107,461,o),
(77,434,o),
(29,434,c),
(29,0,l)
);
},
{
closed = 1;
nodes = (
(411,632,l),
(411,564,l),
(334,564,l)
);
},
{
closed = 1;
nodes = (
(861,0,l),
(861,500,l),
(771,500,l),
(771,460,o),
(754,439,o),
(704,439,cs),
(577,439,l),
(577,505,l),
(694,505,l),
(694,575,l),
(577,575,l),
(577,636,l),
(698,636,ls),
(748,636,o),
(765,609,o),
(765,569,c),
(855,569,l),
(855,716,l),
(426,716,l),
(426,500,l),
(436,500,l),
(436,460,o),
(419,434,o),
(369,434,cs),
(366,434,l),
(365,0,l)
);
}
);
};
layerId = "5DF9E2C9-0736-42AF-A4F0-1AC10C95830A";
name = "Jan 24, 24 at 13:44";
shapes = (
{
closed = 1;
nodes = (
(308,0,l),
(308,439,l),
(296,439,ls),
(279,439,o),
(262,450,o),
(262,472,cs),
(262,488,o),
(272,505,o),
(296,505,cs),
(377,505,ls),
(398,505,o),
(411,492,o),
(411,473,cs),
(411,453,o),
(398,439,o),
(377,439,cs),
(366,439,l),
(366,334,l),
(377,334,o),
(437,334,o),
(478,376,c),
(481,375,l),
(469,285,o),
(397,260,o),
(366,260,c),
(366,209,l),
(377,209,o),
(437,209,o),
(478,251,c),
(481,250,l),
(469,160,o),
(397,135,o),
(366,135,c),
(366,0,l),
(861,0,l),
(861,135,l),
(830,135,o),
(758,160,o),
(746,250,c),
(749,251,l),
(790,209,o),
(850,209,o),
(861,209,c),
(861,260,l),
(830,260,o),
(758,285,o),
(746,375,c),
(749,376,l),
(790,334,o),
(850,334,o),
(861,334,c),
(861,500,l),
(771,500,l),
(771,460,o),
(754,439,o),
(704,439,cs),
(577,439,l),
(577,505,l),
(694,505,l),
(694,575,l),
(577,575,l),
(577,636,l),
(698,636,ls),
(748,636,o),
(765,609,o),
(765,569,c),
(855,569,l),
(855,716,l),
(398,716,l),
(167,514,ls),
(107,461,o),
(74,434,o),
(29,434,c),
(29,334,l),
(40,334,o),
(100,334,o),
(141,376,c),
(144,375,l),
(132,285,o),
(60,260,o),
(29,260,c),
(29,209,l),
(40,209,o),
(100,209,o),
(141,251,c),
(144,250,l),
(132,160,o),
(60,135,o),
(29,135,c),
(29,0,l)
);
},
{
closed = 1;
nodes = (
(411,632,l),
(411,564,l),
(334,564,l)
);
}
);
width = 890;
}
);
metricLeft = A;
metricRight = E;
unicode = 198;
}
{
color = 5;
glyphname = Eth;
kernLeft = H;
kernRight = O;
layers = (
{
anchors = (
{
name = bottom;
pos = (303,0);
},
{
name = center;
pos = (303,358);
},
{
name = hook;
pos = (29,636);
},
{
name = top;
pos = (322,716);
},
{
name = topright;
pos = (652,589);
}
);
layerId = m01;
shapes = (
{
closed = 1;
nodes = (
(405,0,ls),
(498,0,o),
(571,52,o),
(590,135,cs),
(592,144,o),
(594,158,o),
(594,171,cs),
(594,172,ls),
(594,185,o),
(594,176,o),
(594,209,cs),
(594,260,ls),
(594,293,o),
(594,283,o),
(594,296,cs),
(594,297,ls),
(594,310,o),
(594,301,o),
(594,334,c),
(594,530,ls),
(594,637,o),
(514,716,o),
(405,716,cs),
(29,716,l),
(29,636,l),
(79,636,o),
(96,609,o),
(96,569,cs),
(96,495,ls),
(96,455,o),
(79,434,o),
(29,434,c),
(29,334,ls),
(29,301,o),
(29,310,o),
(29,297,cs),
(29,296,ls),
(29,283,o),
(29,293,o),
(29,260,cs),
(29,209,ls),
(29,176,o),
(29,185,o),
(29,172,cs),
(29,171,ls),
(29,158,o),
(29,168,o),
(29,135,cs),
(29,0,l)
);
},
{
closed = 1;
nodes = (
(323,501,l),
(323,571,l),
(31,571,l),
(31,501,l)
);
},
{
closed = 1;
nodes = (
(264,636,l),
(334,636,ls),
(384,636,o),
(402,619,o),
(402,569,cs),
(402,506,ls),
(402,456,o),
(384,439,o),
(334,439,cs),
(264,439,l)
);
}
);
width = 623;
},
{
anchors = (
{
name = bottom;
pos = (303,0);
},
{
name = center;
pos = (303,358);
},
{
name = hook;
pos = (29,636);
},
{
name = top;
pos = (322,716);
},
{
name = topright;
pos = (652,589);
}
);
associatedMasterId = m01;
attr = {
coordinates = (
50
);
};
layerId = "BDDDF001-7605-4740-99FE-6E1D7BF2AD8A";
name = "Jan 26, 24 at 07:51";
shapes = (
{
closed = 1;
nodes = (
(405,0,ls),
(498,0,o),
(571,52,o),
(590,135,c),
(559,135,o),
(530,140,o),
(530,171,cs),
(530,173,ls),
(530,205,o),
(562,209,o),
(594,209,c),
(594,260,l),
(562,260,o),
(530,264,o),
(530,296,cs),
(530,298,ls),
(530,330,o),
(562,334,o),
(594,334,c),
(594,530,ls),
(594,637,o),
(514,716,o),
(405,716,cs),
(29,716,l),
(29,636,l),
(79,636,o),
(96,609,o),
(96,569,cs),
(96,495,ls),
(96,455,o),
(79,434,o),
(29,434,c),
(29,334,l),
(61,334,o),
(93,330,o),
(93,298,cs),
(93,296,ls),
(93,264,o),
(61,260,o),
(29,260,c),
(29,209,l),
(61,209,o),
(93,205,o),
(93,173,cs),
(93,171,ls),
(93,139,o),
(61,135,o),
(29,135,c),
(29,0,l)
);
},
{
closed = 1;
nodes = (
(323,501,l),
(323,571,l),
(31,571,l),
(31,501,l)
);
},
{
closed = 1;
nodes = (
(264,636,l),
(334,636,ls),
(384,636,o),
(402,619,o),
(402,569,cs),
(402,506,ls),
(402,456,o),
(384,439,o),
(334,439,cs),
(264,439,l)
);
}
);
width = 623;
},
{
anchors = (
{
name = bottom;
pos = (303,0);
},
{
name = center;
pos = (303,358);
},
{
name = hook;
pos = (29,636);
},
{
name = top;
pos = (322,716);
},
{
name = topright;
pos = (652,589);
}
);
associatedMasterId = m01;
attr = {
coordinates = (
100
);
};
layerId = "75DFF0A4-8F9A-4E68-9A3C-EAD8096DB8FC";
name = "Jan 26, 24 at 07:51";
shapes = (
{
closed = 1;
nodes = (
(405,0,ls),
(498,0,o),
(571,52,o),
(590,135,c),
(557,137,o),
(491,164,o),
(479,250,c),
(482,251,l),
(523,209,o),
(583,209,o),
(594,209,c),
(594,260,l),
(563,260,o),
(491,285,o),
(479,375,c),
(482,376,l),
(523,334,o),
(583,334,o),
(594,334,c),
(594,530,ls),
(594,637,o),
(514,716,o),
(405,716,cs),
(29,716,l),
(29,636,l),
(79,636,o),
(96,609,o),
(96,569,cs),
(96,495,ls),
(96,455,o),
(79,434,o),
(29,434,c),
(29,334,l),
(40,334,o),
(100,334,o),
(141,376,c),
(144,375,l),
(132,285,o),
(60,260,o),
(29,260,c),
(29,209,l),
(40,209,o),
(100,209,o),
(141,251,c),
(144,250,l),
(132,160,o),
(60,135,o),
(29,135,c),
(29,0,l)
);
},
{
closed = 1;
nodes = (
(323,501,l),
(323,571,l),
(31,571,l),
(31,501,l)
);
},
{
closed = 1;
nodes = (
(264,636,l),
(334,636,ls),
(384,636,o),
(402,619,o),
(402,569,cs),
(402,506,ls),
(402,456,o),
(384,439,o),
(334,439,cs),
(264,439,l)
);
}
);
width = 623;
}
);
metricLeft = D;
metricRight = D;
unicode = 208;
}
{
glyphname = multiply;
layers = (
{
layerId = m01;
shapes = (
{
closed = 1;
nodes = (
(226,717,l),
(0,491,l),
(58,433,l),
(284,659,l)
);
},
{
closed = 1;
nodes = (
(284,491,l),
(58,717,l),
(1,660,l),
(227,434,l)
);
}
);
width = 284;
}
);
unicode = 215;
}
{
color = 5;
glyphname = Oslash;
kernLeft = O;
kernRight = O;
layers = (
{
anchors = (
{
name = bottom;
pos = (317,0);
},
{
name = center;
pos = (317,358);
},
{
name = horn;
pos = (548,642);
},
{
name = ogonek;
pos = (421,0);
},
{
name = top;
pos = (317,716);
},
{
name = topleft;
pos = (20,716);
},
{
name = topright;
pos = (614,716);
}
);
layerId = m01;
shapes = (
{
closed = 1;
nodes = (
(416,-6,ls),
(509,-6,o),
(582,52,o),
(601,135,cs),
(603,144,o),
(605,158,o),
(605,171,cs),
(605,172,ls),
(605,185,o),
(605,176,o),
(605,209,cs),
(605,260,ls),
(605,293,o),
(605,283,o),
(605,296,cs),
(605,297,ls),
(605,310,o),
(605,301,o),
(605,334,cs),
(605,536,ls),
(605,643,o),
(525,722,o),
(416,722,cs),
(218,722,ls),
(109,722,o),
(29,642,o),
(29,536,cs),
(29,334,ls),
(29,301,o),
(29,310,o),
(29,297,cs),
(29,296,ls),
(29,283,o),
(29,293,o),
(29,260,cs),
(29,209,ls),
(29,175,o),
(29,184,o),
(29,171,cs),
(29,170,ls),
(29,157,o),
(31,144,o),
(33,135,cs),
(52,52,o),
(125,-6,o),
(218,-6,cs)
);
},
{
closed = 1;
nodes = (
(156,-60,l),
(214,59,l),
(119,59,l),
(66,-60,l)
);
},
{
closed = 1;
nodes = (
(243,439,o),
(231,459,o),
(231,492,cs),
(231,569,ls),
(231,609,o),
(247,636,o),
(297,636,cs),
(337,636,ls),
(387,636,o),
(403,609,o),
(403,569,cs),
(403,492,ls),
(403,459,o),
(391,439,o),
(364,439,cs),
(347,439,o),
(325,449,o),
(321,501,c),
(313,501,l),
(309,449,o),
(287,439,o),
(270,439,cs)
);
},
{
closed = 1;
nodes = (
(478,671,l),
(550,791,l),
(460,791,l),
(383,671,l)
);
}
);
width = 634;
},
{
anchors = (
{
name = bottom;
pos = (317,0);
},
{
name = center;
pos = (317,358);
},
{
name = horn;
pos = (548,642);
},
{
name = ogonek;
pos = (421,0);
},
{
name = top;
pos = (317,716);
},
{
name = topleft;
pos = (20,716);
},
{
name = topright;
pos = (614,716);
}
);
associatedMasterId = m01;
attr = {
coordinates = (
50
);
};
layerId = "C9A40D48-8F92-492A-BA9F-1048EF4C4D03";
name = "Jan 26, 24 at 06:54";
shapes = (
{
closed = 1;
nodes = (
(416,-6,ls),
(509,-6,o),
(582,52,o),
(601,135,c),
(570,135,o),
(541,140,o),
(541,171,cs),
(541,173,ls),
(541,205,o),
(573,209,o),
(605,209,c),
(605,260,l),
(573,260,o),
(541,264,o),
(541,296,cs),
(541,298,ls),
(541,330,o),
(573,334,o),
(605,334,c),
(605,536,ls),
(605,643,o),
(525,722,o),
(416,722,cs),
(218,722,ls),
(109,722,o),
(29,643,o),
(29,536,cs),
(29,334,l),
(61,334,o),
(93,330,o),
(93,298,cs),
(93,296,ls),
(93,264,o),
(61,260,o),
(29,260,c),
(29,209,l),
(61,209,o),
(93,205,o),
(93,173,cs),
(93,171,ls),
(93,140,o),
(64,135,o),
(33,135,c),
(52,52,o),
(125,-6,o),
(218,-6,cs)
);
},
{
closed = 1;
nodes = (
(156,-60,l),
(214,59,l),
(119,59,l),
(66,-60,l)
);
},
{
closed = 1;
nodes = (
(243,439,o),
(231,459,o),
(231,492,cs),
(231,569,ls),
(231,609,o),
(247,636,o),
(297,636,cs),
(337,636,ls),
(387,636,o),
(403,609,o),
(403,569,cs),
(403,492,ls),
(403,459,o),
(391,439,o),
(364,439,cs),
(347,439,o),
(325,449,o),
(321,501,c),
(313,501,l),
(309,449,o),
(287,439,o),
(270,439,cs)
);
},
{
closed = 1;
nodes = (
(478,671,l),
(550,791,l),
(460,791,l),
(383,671,l)
);
}
);
width = 634;
},
{
anchors = (
{
name = bottom;
pos = (317,0);
},
{
name = center;
pos = (317,358);
},
{
name = horn;
pos = (548,642);
},
{
name = ogonek;
pos = (421,0);
},
{
name = top;
pos = (317,716);
},
{
name = topleft;
pos = (20,716);
},
{
name = topright;
pos = (614,716);
}
);
associatedMasterId = m01;
attr = {
coordinates = (
100
);
};
layerId = "BFA3EC11-1950-40D7-87E1-BEE236DD50D9";
name = "Jan 26, 24 at 06:54";
shapes = (
{
closed = 1;
nodes = (
(416,-6,ls),
(509,-6,o),
(582,52,o),
(601,135,c),
(568,137,o),
(502,164,o),
(490,250,c),
(493,251,l),
(534,209,o),
(594,209,o),
(605,209,c),
(605,260,l),
(574,260,o),
(502,285,o),
(490,375,c),
(493,376,l),
(534,334,o),
(594,334,o),
(605,334,c),
(605,536,ls),
(605,643,o),
(525,722,o),
(416,722,cs),
(218,722,ls),
(109,722,o),
(29,643,o),
(29,536,cs),
(29,334,l),
(40,334,o),
(100,334,o),
(141,376,c),
(144,375,l),
(132,285,o),
(60,260,o),
(29,260,c),
(29,209,l),
(40,209,o),
(100,209,o),
(141,251,c),
(144,250,l),
(132,164,o),
(66,137,o),
(33,135,c),
(52,52,o),
(125,-6,o),
(218,-6,cs)
);
},
{
closed = 1;
nodes = (
(156,-60,l),
(214,59,l),
(119,59,l),
(66,-60,l)
);
},
{
closed = 1;
nodes = (
(243,439,o),
(231,459,o),
(231,492,cs),
(231,569,ls),
(231,609,o),
(247,636,o),
(297,636,cs),
(337,636,ls),
(387,636,o),
(403,609,o),
(403,569,cs),
(403,492,ls),
(403,459,o),
(391,439,o),
(364,439,cs),
(347,439,o),
(325,449,o),
(321,501,c),
(313,501,l),
(309,449,o),
(287,439,o),
(270,439,cs)
);
},
{
closed = 1;
nodes = (
(478,671,l),
(550,791,l),
(460,791,l),
(383,671,l)
);
}
);
width = 634;
}
);
metricLeft = O;
metricRight = O;
unicode = 216;
}
{
color = 5;
glyphname = Thorn;
kernLeft = H;
kernRight = thorn;
layers = (
{
anchors = (
{
name = bottom;
pos = (300,0);
},
{
name = top;
pos = (300,716);
}
);
layerId = m01;
shapes = (
{
closed = 1;
nodes = (
(331,0,l),
(331,322,l),
(290,322,o),
(271,340,o),
(266,368,c),
(484,368,ls),
(521,368,o),
(599,389,o),
(599,476,cs),
(599,582,o),
(510,588,o),
(470,588,cs),
(267,588,l),
(273,615,o),
(292,635,o),
(331,635,c),
(331,716,l),
(29,716,l),
(29,636,l),
(79,636,o),
(96,609,o),
(96,569,cs),
(96,384,ls),
(96,344,o),
(79,323,o),
(29,323,c),
(29,209,ls),
(29,176,o),
(29,185,o),
(29,172,cs),
(29,171,ls),
(29,158,o),
(29,167,o),
(29,135,cs),
(29,0,l)
);
},
{
closed = 1;
nodes = (
(264,506,l),
(369,506,ls),
(397,506,o),
(410,490,o),
(410,469,cs),
(410,444,o),
(394,432,o),
(368,432,cs),
(264,432,l)
);
}
);
width = 609;
},
{
anchors = (
{
name = bottom;
pos = (300,0);
},
{
name = top;
pos = (300,716);
}
);
associatedMasterId = m01;
attr = {
coordinates = (
50
);
};
layerId = "2008DA0D-922E-42BF-86EE-5AFD37DCFCB1";
name = "{50} Jan 26, 24 at 07:12";
shapes = (
{
closed = 1;
nodes = (
(331,0,l),
(331,322,l),
(290,322,o),
(271,340,o),
(266,368,c),
(484,368,ls),
(521,368,o),
(599,389,o),
(599,476,cs),
(599,582,o),
(510,588,o),
(470,588,cs),
(267,588,l),
(273,615,o),
(292,635,o),
(331,635,c),
(331,716,l),
(29,716,l),
(29,636,l),
(79,636,o),
(96,609,o),
(96,569,cs),
(96,384,ls),
(96,344,o),
(79,323,o),
(29,323,c),
(29,209,l),
(61,209,o),
(93,205,o),
(93,173,cs),
(93,171,ls),
(93,139,o),
(61,135,o),
(29,135,c),
(29,0,l)
);
},
{
closed = 1;
nodes = (
(264,506,l),
(369,506,ls),
(397,506,o),
(410,490,o),
(410,469,cs),
(410,444,o),
(394,432,o),
(368,432,cs),
(264,432,l)
);
}
);
width = 609;
},
{
anchors = (
{
name = bottom;
pos = (300,0);
},
{
name = top;
pos = (300,716);
}
);
associatedMasterId = m01;
attr = {
coordinates = (
100
);
};
layerId = "E630D65E-A719-4034-AA20-07C37941631E";
name = "Jan 26, 24 at 07:12";
shapes = (
{
closed = 1;
nodes = (
(331,0,l),
(331,322,l),
(290,322,o),
(271,340,o),
(266,368,c),
(484,368,ls),
(521,368,o),
(599,389,o),
(599,476,cs),
(599,582,o),
(510,588,o),
(470,588,cs),
(267,588,l),
(273,615,o),
(292,635,o),
(331,635,c),
(331,716,l),
(29,716,l),
(29,636,l),
(79,636,o),
(96,609,o),
(96,569,cs),
(96,384,ls),
(96,344,o),
(79,323,o),
(29,323,c),
(29,209,l),
(40,209,o),
(100,209,o),
(141,251,c),
(144,250,l),
(132,160,o),
(60,135,o),
(29,135,c),
(29,0,l)
);
},
{
closed = 1;
nodes = (
(264,506,l),
(369,506,ls),
(397,506,o),
(410,490,o),
(410,469,cs),
(410,444,o),
(394,432,o),
(368,432,cs),
(264,432,l)
);
}
);
width = 609;
}
);
metricRight = P;
unicode = 222;
}
{
glyphname = divide;
layers = (
{
layerId = m01;
shapes = (
{
closed = 1;
nodes = (
(186,409,o),
(208,439,o),
(208,462,cs),
(208,492,o),
(184,513,o),
(157,513,cs),
(128,513,o),
(104,491,o),
(104,462,cs),
(104,430,o),
(126,409,o),
(156,409,c)
);
},
{
closed = 1;
nodes = (
(8,534,l),
(308,534,l),
(308,616,l),
(8,616,l)
);
},
{
closed = 1;
nodes = (
(186,638,o),
(208,668,o),
(208,691,cs),
(208,721,o),
(184,742,o),
(157,742,cs),
(128,742,o),
(104,720,o),
(104,691,cs),
(104,659,o),
(126,638,o),
(156,638,c)
);
}
);
width = 316;
}
);
unicode = 247;
}
{
color = 5;
glyphname = Hbar;
kernLeft = H;
kernRight = H;
layers = (
{
anchors = (
{
name = bottom;
pos = (350,0);
},
{
name = center;
pos = (349,358);
},
{
name = hook;
pos = (29,636);
},
{
name = top;
pos = (349,716);
},
{
name = topleft;
pos = (0,716);
}
);
layerId = m01;
shapes = (
{
closed = 1;
nodes = (
(671,0,l),
(671,434,l),
(621,434,o),
(604,460,o),
(604,500,cs),
(604,564,ls),
(604,604,o),
(621,636,o),
(671,636,c),
(671,716,l),
(379,716,l),
(379,631,l),
(424,631,o),
(446,609,o),
(446,575,cs),
(446,505,l),
(446,465,o),
(429,439,o),
(379,439,c),
(379,334,ls),
(379,301,o),
(379,310,o),
(379,297,cs),
(379,296,ls),
(379,283,o),
(379,293,o),
(379,260,cs),
(379,209,ls),
(379,176,o),
(379,185,o),
(379,172,cs),
(379,171,ls),
(379,158,o),
(379,168,o),
(379,135,cs),
(379,0,l)
);
},
{
closed = 1;
nodes = (
(321,0,l),
(321,439,l),
(271,439,o),
(254,465,o),
(254,505,cs),
(254,575,l),
(254,609,o),
(276,631,o),
(321,631,c),
(321,716,l),
(29,716,l),
(29,636,l),
(79,636,o),
(96,604,o),
(96,564,cs),
(96,500,ls),
(96,460,o),
(79,434,o),
(29,434,c),
(29,334,ls),
(29,301,o),
(29,310,o),
(29,297,cs),
(29,296,ls),
(29,283,o),
(29,293,o),
(29,260,cs),
(29,209,ls),
(29,176,o),
(29,185,o),
(29,172,cs),
(29,171,ls),
(29,158,o),
(29,168,o),
(29,135,cs),
(29,0,l)
);
},
{
closed = 1;
nodes = (
(470,484,l),
(470,529,l),
(229,529,l),
(229,484,l)
);
},
{
closed = 1;
nodes = (
(667,551,l),
(667,596,l),
(29,596,l),
(29,551,l)
);
}
);
width = 700;
},
{
anchors = (
{
name = bottom;
pos = (350,0);
},
{
name = center;
pos = (349,358);
},
{
name = hook;
pos = (29,636);
},
{
name = top;
pos = (349,716);
},
{
name = topleft;
pos = (0,716);
}
);
associatedMasterId = m01;
attr = {
coordinates = (
50
);
};
layerId = "63D3CB3B-DC8B-4709-B076-F243F2E59C49";
name = "Jan 26, 24 at 08:45";
shapes = (
{
closed = 1;
nodes = (
(671,0,l),
(671,434,l),
(621,434,o),
(604,460,o),
(604,500,cs),
(604,564,ls),
(604,604,o),
(621,636,o),
(671,636,c),
(671,716,l),
(379,716,l),
(379,631,l),
(424,631,o),
(446,609,o),
(446,575,cs),
(446,505,l),
(446,465,o),
(429,439,o),
(379,439,c),
(379,334,l),
(411,334,o),
(443,330,o),
(443,298,cs),
(443,296,ls),
(443,264,o),
(411,260,o),
(379,260,c),
(379,209,l),
(411,209,o),
(443,205,o),
(443,173,cs),
(443,171,ls),
(443,139,o),
(411,135,o),
(379,135,c),
(379,0,l)
);
},
{
closed = 1;
nodes = (
(321,0,l),
(321,439,l),
(271,439,o),
(254,465,o),
(254,505,c),
(254,575,ls),
(254,609,o),
(276,631,o),
(321,631,c),
(321,716,l),
(29,716,l),
(29,636,l),
(79,636,o),
(96,604,o),
(96,564,cs),
(96,500,ls),
(96,460,o),
(79,434,o),
(29,434,c),
(29,334,l),
(61,334,o),
(93,330,o),
(93,298,cs),
(93,296,ls),
(93,264,o),
(61,260,o),
(29,260,c),
(29,209,l),
(61,209,o),
(93,205,o),
(93,173,cs),
(93,171,ls),
(93,139,o),
(61,135,o),
(29,135,c),
(29,0,l)
);
},
{
closed = 1;
nodes = (
(470,484,l),
(470,529,l),
(229,529,l),
(229,484,l)
);
},
{
closed = 1;
nodes = (
(667,551,l),
(667,596,l),
(29,596,l),
(29,551,l)
);
}
);
width = 700;
},
{
anchors = (
{
name = bottom;
pos = (350,0);
},
{
name = center;
pos = (349,358);
},
{
name = hook;
pos = (29,636);
},
{
name = top;
pos = (349,716);
},
{
name = topleft;
pos = (0,716);
}
);
associatedMasterId = m01;
attr = {
coordinates = (
100
);
};
layerId = "6B55ABC6-4159-4EDB-9DEF-8288783D0B5A";
name = "Jan 26, 24 at 08:45";
shapes = (
{
closed = 1;
nodes = (
(671,0,l),
(671,434,l),
(621,434,o),
(604,460,o),
(604,500,cs),
(604,564,ls),
(604,604,o),
(621,636,o),
(671,636,c),
(671,716,l),
(379,716,l),
(379,631,l),
(424,631,o),
(446,609,o),
(446,575,cs),
(446,505,l),
(446,465,o),
(429,439,o),
(379,439,c),
(379,334,l),
(390,334,o),
(450,334,o),
(491,376,c),
(494,375,l),
(482,285,o),
(410,260,o),
(379,260,c),
(379,209,l),
(390,209,o),
(450,209,o),
(491,251,c),
(494,250,l),
(482,160,o),
(410,135,o),
(379,135,c),
(379,0,l)
);
},
{
closed = 1;
nodes = (
(321,0,l),
(321,439,l),
(271,439,o),
(254,465,o),
(254,505,cs),
(254,575,l),
(254,609,o),
(276,631,o),
(321,631,c),
(321,716,l),
(29,716,l),
(29,636,l),
(79,636,o),
(96,604,o),
(96,564,cs),
(96,500,ls),
(96,460,o),
(79,434,o),
(29,434,c),
(29,334,l),
(40,334,o),
(100,334,o),
(141,376,c),
(144,375,l),
(132,285,o),
(60,260,o),
(29,260,c),
(29,209,l),
(40,209,o),
(100,209,o),
(141,251,c),
(144,250,l),
(132,160,o),
(60,135,o),
(29,135,c),
(29,0,l)
);
},
{
closed = 1;
nodes = (
(470,484,l),
(470,529,l),
(229,529,l),
(229,484,l)
);
},
{
closed = 1;
nodes = (
(667,551,l),
(667,596,l),
(29,596,l),
(29,551,l)
);
}
);
width = 700;
}
);
unicode = 294;
}
{
color = 5;
glyphname = kgreenlandic;
kernLeft = H;
kernRight = K;
layers = (
{
anchors = (
{
name = bottom;
pos = (349,0);
},
{
name = top;
pos = (361,589);
}
);
layerId = m01;
name = Regular;
shapes = (
{
closed = 1;
nodes = (
(312,0,l),
(312,312,l),
(280,312,o),
(253,322,o),
(253,344,c),
(355,393,l),
(384,358,ls),
(402,336,o),
(404,333,o),
(404,325,cs),
(404,315,o),
(395,312,o),
(382,312,cs),
(370,312,l),
(370,209,l),
(370,176,o),
(370,185,o),
(370,172,cs),
(370,171,ls),
(370,158,o),
(370,168,o),
(370,135,c),
(370,0,l),
(668,0,l),
(668,308,l),
(649,308,ls),
(624,308,o),
(613,317,o),
(551,385,cs),
(489,453,l),
(563,486,ls),
(611,508,o),
(617,509,o),
(633,509,cs),
(643,509,l),
(643,589,l),
(361,589,l),
(361,504,l),
(380,504,ls),
(388,504,o),
(395,500,o),
(395,493,cs),
(395,486,o),
(392,483,o),
(386,480,cs),
(249,417,l),
(249,437,ls),
(249,481,o),
(270,504,o),
(312,504,c),
(312,589,l),
(29,589,l),
(29,509,l),
(73,509,o),
(96,484,o),
(96,437,cs),
(96,373,ls),
(96,328,o),
(74,307,o),
(29,307,c),
(29,209,l),
(29,176,o),
(29,185,o),
(29,172,cs),
(29,171,ls),
(29,158,o),
(29,168,o),
(29,135,c),
(29,0,l)
);
}
);
width = 697;
},
{
anchors = (
{
name = bottom;
pos = (349,0);
},
{
name = top;
pos = (361,589);
}
);
associatedMasterId = m01;
attr = {
coordinates = (
50
);
};
layerId = "23ECAD70-FCB4-4880-9E50-12D3E25FE391";
name = "{50} Jan 26, 24 at 07:24";
shapes = (
{
closed = 1;
nodes = (
(312,0,l),
(312,312,l),
(280,312,o),
(253,322,o),
(253,344,c),
(355,393,l),
(384,358,ls),
(402,336,o),
(404,333,o),
(404,325,cs),
(404,315,o),
(395,312,o),
(382,312,cs),
(370,312,l),
(370,209,l),
(402,209,o),
(434,205,o),
(434,173,cs),
(434,171,ls),
(434,139,o),
(402,135,o),
(370,135,c),
(370,0,l),
(668,0,l),
(668,308,l),
(649,308,ls),
(624,308,o),
(613,317,o),
(551,385,cs),
(489,453,l),
(563,486,ls),
(611,508,o),
(617,509,o),
(633,509,cs),
(643,509,l),
(643,589,l),
(361,589,l),
(361,504,l),
(380,504,ls),
(388,504,o),
(395,500,o),
(395,493,cs),
(395,486,o),
(392,483,o),
(386,480,cs),
(249,417,l),
(249,437,ls),
(249,481,o),
(270,504,o),
(312,504,c),
(312,589,l),
(29,589,l),
(29,509,l),
(73,509,o),
(96,484,o),
(96,437,cs),
(96,373,ls),
(96,328,o),
(74,307,o),
(29,307,c),
(29,209,l),
(61,209,o),
(93,205,o),
(93,173,cs),
(93,171,ls),
(93,139,o),
(61,135,o),
(29,135,c),
(29,0,l)
);
}
);
width = 697;
},
{
anchors = (
{
name = bottom;
pos = (349,0);
},
{
name = top;
pos = (361,589);
}
);
associatedMasterId = m01;
attr = {
coordinates = (
100
);
};
layerId = "20A6B162-5473-4E67-9AF5-F34783227078";
name = "Jan 26, 24 at 07:23";
shapes = (
{
closed = 1;
nodes = (
(312,0,l),
(312,312,l),
(280,312,o),
(253,322,o),
(253,344,c),
(355,393,l),
(384,358,ls),
(402,336,o),
(404,333,o),
(404,325,cs),
(404,315,o),
(395,312,o),
(382,312,cs),
(370,312,l),
(370,209,l),
(381,209,o),
(441,209,o),
(482,251,c),
(485,250,l),
(473,160,o),
(401,135,o),
(370,135,c),
(370,0,l),
(668,0,l),
(668,308,l),
(649,308,ls),
(624,308,o),
(613,317,o),
(551,385,cs),
(489,453,l),
(563,486,ls),
(611,508,o),
(617,509,o),
(633,509,cs),
(643,509,l),
(643,589,l),
(361,589,l),
(361,504,l),
(380,504,ls),
(388,504,o),
(395,500,o),
(395,493,cs),
(395,486,o),
(392,483,o),
(386,480,cs),
(249,417,l),
(249,437,ls),
(249,481,o),
(270,504,o),
(312,504,c),
(312,589,l),
(29,589,l),
(29,509,l),
(73,509,o),
(96,484,o),
(96,437,cs),
(96,373,ls),
(96,328,o),
(74,307,o),
(29,307,c),
(29,209,l),
(40,209,o),
(100,209,o),
(141,251,c),
(144,250,l),
(132,160,o),
(60,135,o),
(29,135,c),
(29,0,l)
);
}
);
width = 697;
}
);
unicode = 312;
}
